<svg xmlns="http://www.w3.org/2000/svg" xmlns:xlink="http://www.w3.org/1999/xlink" viewBox="0 0 52 52"><defs><style>.cls-1{fill:url(#linear-gradient);}.cls-2{fill:url(#linear-gradient-2);}.cls-3{opacity:0.83;}.cls-4{fill:none;stroke-width:2px;stroke:url(#Orange_Yellow);}</style><linearGradient id="linear-gradient" x1="18.63" y1="37.32" x2="18.63" y2="14.48" gradientUnits="userSpaceOnUse"><stop offset="0" stop-color="#fff33b"/><stop offset="0.04" stop-color="#fee72e"/><stop offset="0.12" stop-color="#fed51b"/><stop offset="0.2" stop-color="#fdca10"/><stop offset="0.28" stop-color="#fdc70c"/><stop offset="0.78" stop-color="#f3903f"/><stop offset="0.89" stop-color="#ed683c"/><stop offset="1" stop-color="#e93e3a"/></linearGradient><linearGradient id="linear-gradient-2" x1="36.06" y1="37.52" x2="36.06" y2="19.87" xlink:href="#linear-gradient"/><linearGradient id="Orange_Yellow" x1="26" y1="52" x2="26" gradientUnits="userSpaceOnUse"><stop offset="0" stop-color="#fff33b"/><stop offset="0.04" stop-color="#fee72e"/><stop offset="0.12" stop-color="#fed51b"/><stop offset="0.2" stop-color="#fdca10"/><stop offset="0.28" stop-color="#fdc70c"/><stop offset="0.67" stop-color="#f3903f"/><stop offset="0.89" stop-color="#ed683c"/><stop offset="1" stop-color="#e93e3a"/></linearGradient></defs><title>ae</title><g id="Layer_2" data-name="Layer 2"><g id="Layer_1-2" data-name="Layer 1"><path class="cls-1" d="M23.46,31.61H13.74l-2,5.71H9l8.28-22.84h2.59l8.31,22.84H25.48ZM22.55,29,18.6,17.81,14.66,29Z"/><path class="cls-2" d="M42.91,29.72H31.67a5.9,5.9,0,0,0,1.61,3.67,4.61,4.61,0,0,0,3.41,1.38,4.71,4.71,0,0,0,4-2.08l1.38,2a6.29,6.29,0,0,1-2.33,2.09,6.77,6.77,0,0,1-3.13.72,6.88,6.88,0,0,1-3.89-1.13,7.31,7.31,0,0,1-2.63-3.15,10.8,10.8,0,0,1-.93-4.56,11.05,11.05,0,0,1,.9-4.54A7.54,7.54,0,0,1,32.55,21a6,6,0,0,1,3.56-1.12A5.91,5.91,0,0,1,39.66,21a7.5,7.5,0,0,1,2.43,3.15A11.62,11.62,0,0,1,43,28.77,9.28,9.28,0,0,1,42.91,29.72ZM33.1,23.88a6.11,6.11,0,0,0-1.43,3.59h8.89a6.13,6.13,0,0,0-1.43-3.57,3.83,3.83,0,0,0-3-1.39A3.87,3.87,0,0,0,33.1,23.88Z"/><g class="cls-3"><path class="cls-4" d="M40,51H12A11,11,0,0,1,1,40V12A11,11,0,0,1,12,1H40A11,11,0,0,1,51,12V40A11,11,0,0,1,40,51Z"/></g></g></g></svg>