<svg xmlns="http://www.w3.org/2000/svg" viewBox="0 0 51 51"><defs><style>.cls-1{fill:#c3a3cd;}.cls-2{fill:none;stroke:#c3a3cd;stroke-miterlimit:10;}</style></defs><title>ae0</title><g id="Layer_2" data-name="Layer 2"><g id="Layer_1-2" data-name="Layer 1"><path class="cls-1" d="M23,31.11H13.24l-2,5.71H8.54L16.82,14h2.59l8.31,22.84H25Zm-.91-2.61L18.1,17.31,14.16,28.5Z"/><path class="cls-1" d="M42.41,29.22H31.17a5.9,5.9,0,0,0,1.61,3.67,4.61,4.61,0,0,0,3.41,1.38,4.71,4.71,0,0,0,4-2.08l1.38,2a6.29,6.29,0,0,1-2.33,2.09,6.77,6.77,0,0,1-3.13.72,6.88,6.88,0,0,1-3.89-1.13,7.31,7.31,0,0,1-2.63-3.15,10.8,10.8,0,0,1-.93-4.56,11.05,11.05,0,0,1,.9-4.54,7.54,7.54,0,0,1,2.49-3.15,6,6,0,0,1,3.56-1.12,5.91,5.91,0,0,1,3.55,1.12,7.5,7.5,0,0,1,2.43,3.15,11.62,11.62,0,0,1,.87,4.63A9.28,9.28,0,0,1,42.41,29.22ZM32.6,23.38A6.11,6.11,0,0,0,31.17,27h8.89a6.13,6.13,0,0,0-1.43-3.57,3.83,3.83,0,0,0-3-1.39A3.87,3.87,0,0,0,32.6,23.38Z"/><path class="cls-2" d="M39.48,50.5h-28a11,11,0,0,1-11-11v-28a11,11,0,0,1,11-11h28a11,11,0,0,1,11,11v28A11,11,0,0,1,39.48,50.5Z"/></g></g></svg>