<svg xmlns="http://www.w3.org/2000/svg" xmlns:xlink="http://www.w3.org/1999/xlink" viewBox="0 0 52 52"><defs><style>.cls-1{opacity:0.83;}.cls-2{fill:none;stroke-width:2px;stroke:url(#Orange_Yellow);}.cls-3{fill:url(#linear-gradient);}.cls-4{fill:url(#linear-gradient-2);}</style><linearGradient id="Orange_Yellow" x1="26" y1="52" x2="26" gradientUnits="userSpaceOnUse"><stop offset="0" stop-color="#fff33b"/><stop offset="0.04" stop-color="#fee72e"/><stop offset="0.12" stop-color="#fed51b"/><stop offset="0.2" stop-color="#fdca10"/><stop offset="0.28" stop-color="#fdc70c"/><stop offset="0.67" stop-color="#f3903f"/><stop offset="0.89" stop-color="#ed683c"/><stop offset="1" stop-color="#e93e3a"/></linearGradient><linearGradient id="linear-gradient" x1="22.37" y1="37.32" x2="22.37" y2="14.49" xlink:href="#Orange_Yellow"/><linearGradient id="linear-gradient-2" x1="35.57" y1="37.32" x2="35.57" y2="12.63" xlink:href="#Orange_Yellow"/></defs><title>ai</title><g id="Layer_2" data-name="Layer 2"><g id="Layer_1-2" data-name="Layer 1"><g class="cls-1"><path class="cls-2" d="M40,51H12A11,11,0,0,1,1,40V12A11,11,0,0,1,12,1H40A11,11,0,0,1,51,12V40A11,11,0,0,1,40,51Z"/></g><path class="cls-3" d="M27.2,31.61H17.48l-2,5.71h-2.7l8.29-22.83h2.59L32,37.32H29.21ZM26.29,29,22.34,17.81,18.39,29Z"/><path class="cls-4" d="M34.35,16.12a2.21,2.21,0,0,1-.48-1.44,2.26,2.26,0,0,1,.48-1.45,1.5,1.5,0,0,1,1.22-.6,1.52,1.52,0,0,1,1.21.57,2.12,2.12,0,0,1,.48,1.42,2.31,2.31,0,0,1-.48,1.48,1.55,1.55,0,0,1-2.43,0Zm0,3.91h2.51V37.32H34.31Z"/></g></g></svg>