<svg xmlns="http://www.w3.org/2000/svg" viewBox="0 0 51 51"><defs><style>.cls-1{fill:none;stroke:#f47f20;stroke-miterlimit:10;}.cls-2{fill:#f47f20;}</style></defs><title>ai0</title><g id="Layer_2" data-name="Layer 2"><g id="Layer_1-2" data-name="Layer 1"><path class="cls-1" d="M39.48,50.5h-28a11,11,0,0,1-11-11v-28a11,11,0,0,1,11-11h28a11,11,0,0,1,11,11v28A11,11,0,0,1,39.48,50.5Z"/><path class="cls-2" d="M26.7,31.11H17l-2,5.71h-2.7L20.56,14h2.59l8.31,22.83H28.71Zm-.91-2.61L21.84,17.31,17.89,28.5Z"/><path class="cls-2" d="M33.85,15.62a2.21,2.21,0,0,1-.48-1.44,2.26,2.26,0,0,1,.48-1.45,1.5,1.5,0,0,1,1.22-.6,1.52,1.52,0,0,1,1.21.57,2.12,2.12,0,0,1,.48,1.42,2.31,2.31,0,0,1-.48,1.48,1.55,1.55,0,0,1-2.43,0Zm0,3.91h2.51V36.82H33.81Z"/></g></g></svg>