<svg xmlns="http://www.w3.org/2000/svg" xmlns:xlink="http://www.w3.org/1999/xlink" viewBox="0 0 52 52"><defs><style>.cls-1{fill:url(#linear-gradient);}.cls-2{fill:url(#linear-gradient-2);}.cls-3{opacity:0.83;}.cls-4{fill:none;stroke-width:2px;stroke:url(#Orange_Yellow);}</style><linearGradient id="linear-gradient" x1="18.25" y1="37.32" x2="18.25" y2="14.49" gradientUnits="userSpaceOnUse"><stop offset="0" stop-color="#fff33b"/><stop offset="0.04" stop-color="#fee72e"/><stop offset="0.12" stop-color="#fed51b"/><stop offset="0.2" stop-color="#fdca10"/><stop offset="0.28" stop-color="#fdc70c"/><stop offset="0.67" stop-color="#f3903f"/><stop offset="0.89" stop-color="#ed683c"/><stop offset="1" stop-color="#e93e3a"/></linearGradient><linearGradient id="linear-gradient-2" x1="36.77" y1="37.32" x2="36.77" y2="19.87" xlink:href="#linear-gradient"/><linearGradient id="Orange_Yellow" x1="26" y1="52" x2="26" y2="0" xlink:href="#linear-gradient"/></defs><title>an</title><g id="Layer_2" data-name="Layer 2"><g id="Layer_1-2" data-name="Layer 1"><path class="cls-1" d="M23.08,31.61H13.36l-2,5.71H8.66l8.28-22.83h2.59l8.31,22.83H25.1ZM22.17,29l-4-11.19L14.28,29Z"/><path class="cls-2" d="M41.78,21.78a8.64,8.64,0,0,1,1.56,5.59v10H40.83V27.73a6.12,6.12,0,0,0-1-3.78,3.27,3.27,0,0,0-2.77-1.28,3.87,3.87,0,0,0-3.21,1.49,6.69,6.69,0,0,0-1.18,4.26v8.9H30.19V20H32.6v2.61a5.27,5.27,0,0,1,2-2.06,6,6,0,0,1,2.94-.71A5.09,5.09,0,0,1,41.78,21.78Z"/><g class="cls-3"><path class="cls-4" d="M40,51H12A11,11,0,0,1,1,40V12A11,11,0,0,1,12,1H40A11,11,0,0,1,51,12V40A11,11,0,0,1,40,51Z"/></g></g></g></svg>