<svg xmlns="http://www.w3.org/2000/svg" viewBox="0 0 51 51"><defs><style>.cls-1{fill:#ee3b2c;}.cls-2{fill:none;stroke:#ee3b2c;stroke-miterlimit:10;}</style></defs><title>an0</title><g id="Layer_2" data-name="Layer 2"><g id="Layer_1-2" data-name="Layer 1"><path class="cls-1" d="M22.58,31.11H12.86l-2,5.71H8.16L16.44,14H19l8.31,22.83H24.6Zm-.91-2.61-4-11.19L13.78,28.5Z"/><path class="cls-1" d="M41.28,21.28a8.64,8.64,0,0,1,1.56,5.59v10H40.33V27.23a6.12,6.12,0,0,0-1-3.78,3.27,3.27,0,0,0-2.77-1.28,3.87,3.87,0,0,0-3.21,1.49,6.69,6.69,0,0,0-1.18,4.26v8.9H29.69V19.53H32.1v2.61a5.27,5.27,0,0,1,2-2.06,6,6,0,0,1,2.94-.71A5.09,5.09,0,0,1,41.28,21.28Z"/><path class="cls-2" d="M39.48,50.5h-28a11,11,0,0,1-11-11v-28a11,11,0,0,1,11-11h28a11,11,0,0,1,11,11v28A11,11,0,0,1,39.48,50.5Z"/></g></g></svg>