<svg xmlns="http://www.w3.org/2000/svg" viewBox="0 0 50 50"><defs><style>.cls-1{fill:#573e7d;}.cls-2{fill:#fff;}</style></defs><title>bootstrap0</title><g id="Layer_2" data-name="Layer 2"><g id="Layer_1-2" data-name="Layer 1"><path class="cls-1" d="M0,43.55A6.45,6.45,0,0,0,6.45,50h37.1A6.45,6.45,0,0,0,50,43.55V6.45A6.45,6.45,0,0,0,43.55,0H6.45A6.45,6.45,0,0,0,0,6.45Z"/><path class="cls-2" d="M20.73,22.12V15H27a10.57,10.57,0,0,1,1.71.14,4.42,4.42,0,0,1,1.47.53,2.86,2.86,0,0,1,1,1.06,3.5,3.5,0,0,1,.39,1.74,3.23,3.23,0,0,1-1.15,2.76,4.81,4.81,0,0,1-2.92.85ZM14.08,9.86V40.14H28.75a15.42,15.42,0,0,0,4-.51,10.61,10.61,0,0,0,3.44-1.57,7.73,7.73,0,0,0,2.39-2.74,8.21,8.21,0,0,0,.89-4,8.37,8.37,0,0,0-1.38-4.85,7.18,7.18,0,0,0-4.17-2.82A7.56,7.56,0,0,0,37,21.18a6.63,6.63,0,0,0,1-3.81,8,8,0,0,0-.7-3.56,5.83,5.83,0,0,0-2-2.31,8.67,8.67,0,0,0-3-1.26,19.19,19.19,0,0,0-4-.38ZM20.73,35V26.65H28a5.64,5.64,0,0,1,3.48,1A3.9,3.9,0,0,1,32.78,31a4.15,4.15,0,0,1-.41,1.95,3.25,3.25,0,0,1-1.08,1.21,4.5,4.5,0,0,1-1.57.63,8.63,8.63,0,0,1-1.86.19Z"/></g></g></svg>