<svg xmlns="http://www.w3.org/2000/svg" viewBox="0 0 35.42 50.02"><defs><style>.cls-1{fill:#435ba9;}.cls-2{fill:#4767b0;}.cls-3{fill:#ebebeb;}.cls-4{fill:#010101;}.cls-5{fill:#fff;}</style></defs><title>css0_1</title><g id="Layer_2" data-name="Layer 2"><g id="Layer_1-2" data-name="Layer 1"><polygon id="polygon2989" class="cls-1" points="35.42 9.81 32.26 45.97 17.76 50.02 3.29 46.02 0 9.87 35.42 9.81"/><polygon id="polygon2991" class="cls-2" points="29.49 43.67 32.2 12.77 17.72 12.8 17.77 46.94 29.49 43.67"/><polygon id="polygon2993" class="cls-3" points="7.42 26.23 7.82 30.66 17.75 30.64 17.74 26.21 7.42 26.23"/><polygon id="polygon2995" class="cls-3" points="17.72 17.23 17.71 17.23 6.6 17.25 7.01 21.68 17.73 21.67 17.72 17.23"/><polygon id="polygon2997" class="cls-3" points="17.77 42.34 17.76 37.73 17.74 37.73 12.8 36.41 12.48 32.87 10.08 32.87 8.03 32.88 8.66 39.84 17.75 42.34 17.77 42.34"/><path id="path2999" class="cls-4" d="M8.32,0h5.37V2.27H10.57V4.52H13.7V6.76H8.33Z"/><path id="path3001" class="cls-4" d="M14.77,0h5.37V2H17v.39h3.12v4.5H14.78V4.81H17.9V4.41H14.77Z"/><path id="path3003" class="cls-4" d="M21.21,0h5.37V2H23.46v.39h3.13v4.5H21.22V4.79h3.12V4.4H21.22Z"/><polygon id="polygon3005" class="cls-5" points="23.19 30.63 22.69 36.39 17.74 37.73 17.75 42.34 26.84 39.81 26.9 39.06 27.93 27.38 28.03 26.19 28.82 17.21 17.71 17.23 17.72 21.67 23.96 21.66 23.57 26.2 17.72 26.21 17.73 30.64 23.19 30.63"/></g></g></svg>