<svg xmlns="http://www.w3.org/2000/svg" viewBox="0 0 35.42 50"><defs><style>.cls-1{fill:#435ba9;}.cls-2{fill:#4767b0;}.cls-3{fill:#ebebeb;}.cls-4{fill:#010101;}.cls-5{fill:#fff;}</style></defs><title>css0</title><g id="Layer_2" data-name="Layer 2"><g id="Layer_1-2" data-name="Layer 1"><g id="layer1"><g id="g3013"><polygon id="polygon2989" class="cls-1" points="35.42 9.83 32.2 45.98 17.69 50 3.22 45.98 0 9.83 35.42 9.83"/><polygon id="polygon2991" class="cls-2" points="29.43 43.68 32.19 12.78 17.71 12.78 17.71 46.93 29.43 43.68"/><polygon id="polygon2993" class="cls-3" points="7.39 26.19 7.79 30.63 17.71 30.63 17.71 26.19 7.39 26.19"/><polygon id="polygon2995" class="cls-3" points="17.71 17.22 17.7 17.22 6.59 17.22 7 21.65 17.71 21.65 17.71 17.22"/><polygon id="polygon2997" class="cls-3" points="17.71 42.32 17.71 37.71 17.69 37.72 12.75 36.38 12.44 32.84 10.04 32.84 7.99 32.84 8.61 39.81 17.69 42.33 17.71 42.32"/><path id="path2999" class="cls-4" d="M8.34,0h5.37V2.25H10.58V4.49h3.13V6.74H8.34Z"/><path id="path3001" class="cls-4" d="M14.78,0h5.37V2H17v.39h3.12v4.5H14.78v-2h3.13v-.4H14.78Z"/><path id="path3003" class="cls-4" d="M21.23,0H26.6V2H23.47v.39H26.6v4.5H21.23v-2h3.12v-.4H21.23Z"/><polygon id="polygon3005" class="cls-5" points="23.16 30.63 22.64 36.38 17.7 37.71 17.7 42.33 26.79 39.81 26.85 39.06 27.9 27.38 28 26.19 28.8 17.22 17.7 17.22 17.7 21.65 23.95 21.65 23.54 26.19 17.7 26.19 17.7 30.63 23.16 30.63"/></g></g></g></g></svg>