<svg xmlns="http://www.w3.org/2000/svg" xmlns:xlink="http://www.w3.org/1999/xlink" viewBox="0 0 52 52"><defs><style>.cls-1{fill:url(#linear-gradient);}.cls-2{fill:url(#linear-gradient-2);}.cls-3{opacity:0.83;}.cls-4{fill:none;stroke-miterlimit:10;stroke-width:2px;stroke:url(#Orange_Yellow);}</style><linearGradient id="linear-gradient" x1="14.34" y1="36.83" x2="14.34" y2="15.17" gradientUnits="userSpaceOnUse"><stop offset="0" stop-color="#fff33b"/><stop offset="0.04" stop-color="#fee72e"/><stop offset="0.12" stop-color="#fed51b"/><stop offset="0.2" stop-color="#fdca10"/><stop offset="0.28" stop-color="#fdc70c"/><stop offset="0.67" stop-color="#f3903f"/><stop offset="0.89" stop-color="#ed683c"/><stop offset="1" stop-color="#e93e3a"/></linearGradient><linearGradient id="linear-gradient-2" x1="35.01" y1="36.83" x2="35.01" y2="20.43" xlink:href="#linear-gradient"/><linearGradient id="Orange_Yellow" x1="26" y1="52" x2="26" y2="0" xlink:href="#linear-gradient"/></defs><title>dw</title><g id="Layer_2" data-name="Layer 2"><g id="Layer_1-2" data-name="Layer 1"><path class="cls-1" d="M6,15.17h7.31a8.91,8.91,0,0,1,4.88,1.36,9.09,9.09,0,0,1,3.31,3.82A12.89,12.89,0,0,1,22.68,26a12.89,12.89,0,0,1-1.18,5.65,9.09,9.09,0,0,1-3.31,3.82,8.91,8.91,0,0,1-4.88,1.36H6Zm7.16,19a6.56,6.56,0,0,0,6.17-3.89A9.81,9.81,0,0,0,20.2,26a9.81,9.81,0,0,0-.87-4.25,6.56,6.56,0,0,0-6.17-3.89H8.48V34.14Z"/><path class="cls-2" d="M46,20.43l-4.91,16.4H38.81L35,24.39,31.18,36.83H28.9L24,20.43h2.25l3.82,13.06,4-13.06h2L40,33.55l3.92-13.12Z"/><g class="cls-3"><path class="cls-4" d="M40,51H12A11,11,0,0,1,1,40V12A11,11,0,0,1,12,1H40A11,11,0,0,1,51,12V40A11,11,0,0,1,40,51Z"/></g></g></g></svg>