<svg xmlns="http://www.w3.org/2000/svg" viewBox="0 0 51 51"><defs><style>.cls-1{fill:#71bf44;}.cls-2{fill:none;stroke:#71bf44;stroke-miterlimit:10;}</style></defs><title>dw0</title><g id="Layer_2" data-name="Layer 2"><g id="Layer_1-2" data-name="Layer 1"><path class="cls-1" d="M5.5,14.67h7.31A8.91,8.91,0,0,1,17.69,16,9.09,9.09,0,0,1,21,19.85a12.89,12.89,0,0,1,1.18,5.65A12.89,12.89,0,0,1,21,31.15,9.09,9.09,0,0,1,17.69,35a8.91,8.91,0,0,1-4.88,1.36H5.5Zm7.16,19a6.56,6.56,0,0,0,6.17-3.89,9.81,9.81,0,0,0,.87-4.25,9.81,9.81,0,0,0-.87-4.25,6.56,6.56,0,0,0-6.17-3.89H8V33.64Z"/><path class="cls-1" d="M45.5,19.93l-4.91,16.4H38.31L34.52,23.89,30.68,36.33H28.4l-4.88-16.4h2.25L29.59,33l4-13.06h2l3.89,13.12,3.92-13.12Z"/><path class="cls-2" d="M39.48,50.5h-28a11,11,0,0,1-11-11v-28a11,11,0,0,1,11-11h28a11,11,0,0,1,11,11v28A11,11,0,0,1,39.48,50.5Z"/></g></g></svg>