<svg xmlns="http://www.w3.org/2000/svg" viewBox="0 0 35.43 50"><defs><style>.cls-1{fill:#010101;}.cls-2{fill:#e44f26;}.cls-3{fill:#f1672a;}.cls-4{fill:#ebebeb;}.cls-5{fill:#fff;}</style></defs><title>html0</title><g id="Layer_2" data-name="Layer 2"><g id="Layer_1-2" data-name="Layer 1"><path class="cls-1" d="M3.3,0H5.55V2.23H7.62V0H9.86V6.74H7.62V4.49h-2V6.74H3.3m9.53-4.49h-2V0h6.22V2.25h-2V6.74H12.83M18.06,0h2.35l1.45,2.37L23.3,0h2.35V6.74H23.41V3.4L21.84,5.82,20.26,3.4V6.74h-2.2M26.77,0H29V4.51H32.2V6.74H26.77"/><path class="cls-2" d="M3.22,46,0,9.82H35.43L32.21,46,17.69,50"/><path class="cls-3" d="M17.71,46.92V12.79H32.2L29.43,43.65"/><path class="cls-4" d="M6.58,17.22H17.71v4.43H11.45l.41,4.54h5.85v4.43H7.79M8,32.84h4.45l.31,3.55,5,1.32v4.63L8.61,39.8"/><path class="cls-5" d="M28.81,17.22H17.7v4.43H28.4M28,26.19H17.7v4.44h5.46l-.51,5.76L17.7,37.71v4.61l9.08-2.52"/></g></g></svg>