<svg xmlns="http://www.w3.org/2000/svg" xmlns:xlink="http://www.w3.org/1999/xlink" viewBox="0 0 52 52"><defs><style>.cls-1{fill:url(#linear-gradient);}.cls-2{fill:url(#linear-gradient-2);}.cls-3{opacity:0.83;}.cls-4{fill:none;stroke-width:2px;stroke:url(#Orange_Yellow);}</style><linearGradient id="linear-gradient" x1="16.9" y1="38" x2="16.9" y2="15.17" gradientUnits="userSpaceOnUse"><stop offset="0" stop-color="#fff33b"/><stop offset="0.04" stop-color="#fee72e"/><stop offset="0.12" stop-color="#fed51b"/><stop offset="0.2" stop-color="#fdca10"/><stop offset="0.28" stop-color="#fdc70c"/><stop offset="0.67" stop-color="#f3903f"/><stop offset="0.89" stop-color="#ed683c"/><stop offset="1" stop-color="#e93e3a"/></linearGradient><linearGradient id="linear-gradient-2" x1="29.23" y1="38.2" x2="29.23" y2="13.8" xlink:href="#linear-gradient"/><linearGradient id="Orange_Yellow" x1="26" y1="52" x2="26" y2="0" xlink:href="#linear-gradient"/></defs><title>id</title><g id="Layer_2" data-name="Layer 2"><g id="Layer_1-2" data-name="Layer 1"><path class="cls-1" d="M15.6,15.17h2.61V38H15.6Z"/><path class="cls-2" d="M36.4,13.8V38H34V35.26a6,6,0,0,1-2.12,2.19,5.46,5.46,0,0,1-2.82.75,6.17,6.17,0,0,1-3.61-1.11A7.4,7.4,0,0,1,23,34a11,11,0,0,1-.91-4.62,10.92,10.92,0,0,1,.91-4.6,7.37,7.37,0,0,1,2.49-3.1,6.17,6.17,0,0,1,3.61-1.11,5.49,5.49,0,0,1,4.83,2.78V13.8ZM31.65,34.69a5,5,0,0,0,1.67-2.15,7.91,7.91,0,0,0,.6-3.18,7.91,7.91,0,0,0-.6-3.18A5,5,0,0,0,31.65,24a4.07,4.07,0,0,0-2.38-.75,4,4,0,0,0-2.39.75,5.07,5.07,0,0,0-1.68,2.14,7.74,7.74,0,0,0-.61,3.18,7.74,7.74,0,0,0,.61,3.18,5.1,5.1,0,0,0,1.68,2.15,3.9,3.9,0,0,0,2.39.77A4,4,0,0,0,31.65,34.69Z"/><g class="cls-3"><path class="cls-4" d="M40,51H12A11,11,0,0,1,1,40V12A11,11,0,0,1,12,1H40A11,11,0,0,1,51,12V40A11,11,0,0,1,40,51Z"/></g></g></g></svg>