<svg xmlns="http://www.w3.org/2000/svg" viewBox="0 0 51 51"><defs><style>.cls-1{fill:#ed478a;}.cls-2{fill:none;stroke:#ed478a;stroke-miterlimit:10;}</style></defs><title>id0</title><g id="Layer_2" data-name="Layer 2"><g id="Layer_1-2" data-name="Layer 1"><path class="cls-1" d="M15.1,14.67h2.61V37.5H15.1Z"/><path class="cls-1" d="M35.9,13.3V37.5H33.5V34.76A6,6,0,0,1,31.38,37a5.46,5.46,0,0,1-2.82.75A6.17,6.17,0,0,1,25,36.59a7.4,7.4,0,0,1-2.49-3.11,11,11,0,0,1-.91-4.62,10.92,10.92,0,0,1,.91-4.6A7.37,7.37,0,0,1,25,21.16a6.17,6.17,0,0,1,3.61-1.11,5.49,5.49,0,0,1,4.83,2.78V13.3ZM31.15,34.19A5,5,0,0,0,32.82,32a7.91,7.91,0,0,0,.6-3.18,7.91,7.91,0,0,0-.6-3.18,5,5,0,0,0-1.67-2.14,4.07,4.07,0,0,0-2.38-.75,4,4,0,0,0-2.39.75,5.07,5.07,0,0,0-1.68,2.14,7.74,7.74,0,0,0-.61,3.18A7.74,7.74,0,0,0,24.7,32a5.1,5.1,0,0,0,1.68,2.15,3.9,3.9,0,0,0,2.39.77A4,4,0,0,0,31.15,34.19Z"/><path class="cls-2" d="M39.48,50.5h-28a11,11,0,0,1-11-11v-28a11,11,0,0,1,11-11h28a11,11,0,0,1,11,11v28A11,11,0,0,1,39.48,50.5Z"/></g></g></svg>