<svg xmlns="http://www.w3.org/2000/svg" viewBox="0 0 26.88 50"><defs><style>.cls-1{fill:#010101;}</style></defs><title>java0</title><g id="Layer_2" data-name="Layer 2"><g id="Layer_1-2" data-name="Layer 1"><path id="path3" class="cls-1" d="M25.75,39.43h-.19v-.11h.51v.11h-.19V40h-.13Zm1,0h0l-.19.49h-.08l-.19-.49h0V40h-.12v-.63h.18l.17.45.17-.45h.18V40h-.12v-.49Z"/><path id="path5" class="cls-1" d="M8.89,26.52s-1.31.76.93,1a19.54,19.54,0,0,0,7.1-.3,11.73,11.73,0,0,0,1.89.92C12.1,31,3.61,28,8.89,26.52"/><path id="path7" class="cls-1" d="M8.07,22.77s-1.47,1.09.77,1.32A27.83,27.83,0,0,0,18,23.65a4.06,4.06,0,0,0,1.41.86c-8.12,2.37-17.16.19-11.35-1.74"/><path id="path9" class="cls-1" d="M15,16.4c1.66,1.9-.43,3.62-.43,3.62s4.2-2.17,2.27-4.89C15,12.6,13.64,11.34,21.12,7c0,0-11.74,2.94-6.14,9.4"/><path id="path11" class="cls-1" d="M23.86,29.3s1,.8-1.06,1.42c-3.88,1.17-16.13,1.53-19.54,0C2,30.23,4.33,29.49,5.05,29.34a4.25,4.25,0,0,1,1.19-.13c-1.36-1-8.8,1.88-3.78,2.69,13.69,2.22,25-1,21.4-2.6"/><path id="path13" class="cls-1" d="M9.52,18.88s-6.23,1.48-2.21,2a48.12,48.12,0,0,0,8.25-.09c2.58-.22,5.17-.68,5.17-.68a11,11,0,0,0-1.57.84c-6.33,1.66-18.56.89-15-.82a11.73,11.73,0,0,1,5.4-1.27"/><path id="path15" class="cls-1" d="M20.7,25.13c6.43-3.35,3.46-6.56,1.38-6.13a4.9,4.9,0,0,0-.73.2,1.2,1.2,0,0,1,.55-.42C26,17.33,29.16,23,20.57,25.3a.57.57,0,0,0,.13-.17"/><path id="path17" class="cls-1" d="M16.82,0s3.56,3.56-3.38,9.05c-5.57,4.39-1.27,6.9,0,9.76-3.25-2.93-5.64-5.51-4-7.91C11.75,7.37,18.26,5.66,16.82,0"/><path id="path19" class="cls-1" d="M10.15,34.19c6.18.39,15.66-.22,15.89-3.14,0,0-.44,1.1-5.11,2a50.4,50.4,0,0,1-15.63.24s.79.66,4.85.92"/><path id="path21" class="cls-1" d="M9.14,45.35a2.78,2.78,0,0,1-1.75.79,1.12,1.12,0,0,1-1.22-1.23c0-.82.46-1.42,2.29-1.42h.68v1.86m1.61,1.82V41.55c0-1.43-.82-2.38-2.79-2.38a7.36,7.36,0,0,0-3,.65l.23,1a7.12,7.12,0,0,1,2.3-.45c1.14,0,1.63.45,1.63,1.4v.71H8.57c-2.76,0-4,1.07-4,2.68,0,1.39.82,2.18,2.36,2.18a3.57,3.57,0,0,0,2.43-1l.12.85Z"/><path id="path23" class="cls-1" d="M16.11,47.17h-2l-2.42-7.86h1.75l1.5,4.83.33,1.45a30.23,30.23,0,0,0,1.57-6.28h1.7a32.07,32.07,0,0,1-2.43,7.86"/><path id="path25" class="cls-1" d="M23.8,45.35a2.78,2.78,0,0,1-1.75.79,1.11,1.11,0,0,1-1.21-1.23c0-.82.45-1.42,2.29-1.42h.67v1.86m1.61,1.82V41.55c0-1.43-.82-2.38-2.79-2.38a7.4,7.4,0,0,0-3,.65l.24,1a7.07,7.07,0,0,1,2.3-.45c1.13,0,1.62.45,1.62,1.4v.71h-.56c-2.77,0-4,1.07-4,2.68,0,1.39.82,2.18,2.36,2.18a3.56,3.56,0,0,0,2.43-1l.13.85Z"/><path id="path27" class="cls-1" d="M2.8,48.5a4.24,4.24,0,0,1-2,1.5L0,49.07a3.28,3.28,0,0,0,1.39-1.31,5.06,5.06,0,0,0,.3-2.27v-9H3.4v8.84c0,1.75-.14,2.45-.6,3.14"/></g></g></svg>