<svg xmlns="http://www.w3.org/2000/svg" viewBox="0 0 35.41 50"><defs><style>.cls-1{fill:#eec723;}.cls-2{fill:#fade34;}.cls-3{fill:#ebebeb;}.cls-4{fill:#fff;}.cls-5{fill:#171617;}.cls-6{fill:#030303;}</style></defs><title>js0</title><g id="Layer_2" data-name="Layer 2"><g id="Layer_1-2" data-name="Layer 1"><polygon class="cls-1" points="3.22 45.98 0 9.84 35.41 9.84 32.19 45.98 17.69 50 3.22 45.98"/><polygon class="cls-2" points="17.68 46.88 29.4 43.63 32.15 12.75 17.68 12.75 17.68 46.88"/><polygon class="cls-3" points="17.67 37.67 17.65 37.68 12.71 36.34 12.4 32.81 10 32.81 7.95 32.81 8.57 39.77 17.65 42.29 17.67 42.28 17.67 37.67"/><polygon class="cls-3" points="18.27 30.59 18.27 26.16 12.81 26.16 13.45 19.2 18.28 19.07 18.27 14.46 9.44 14.46 9.11 17.73 8.07 29.4 7.96 30.59 9.16 30.59 18.27 30.59"/><polygon class="cls-4" points="18.24 19.07 18.26 19.07 23.1 19.36 23.51 23.94 25.91 23.94 27.96 23.94 27.19 15.37 18.26 14.46 18.24 14.46 18.24 19.07"/><polyline class="cls-4" points="27.5 19.09 27.12 14.46 17.77 14.46 17.77 17.33 17.77 19.08 17.77 19.09 27.5 19.09"/><polygon class="cls-4" points="17.66 26.16 17.66 30.59 23.11 30.59 22.6 36.34 17.66 37.67 17.66 42.29 26.75 39.77 26.81 39.02 27.85 27.35 27.96 26.16 26.77 26.16 17.66 26.16"/><polygon class="cls-5" points="23.95 1.85 21.01 1.85 24.07 5.17 24.07 6.75 17.77 6.75 17.77 4.9 20.83 4.9 17.77 1.58 17.77 0 23.95 0 23.95 1.85"/><path class="cls-6" d="M16.65,0V6.74H11.23V4.52H14.4V0Z"/></g></g></svg>