<svg xmlns="http://www.w3.org/2000/svg" xmlns:xlink="http://www.w3.org/1999/xlink" viewBox="0 0 50 44.91"><defs><style>.cls-1{fill:url(#linear-gradient);}.cls-2{fill:url(#linear-gradient-2);}.cls-3{fill:#31a7a7;}.cls-4{fill:#277878;}.cls-5{fill:#1f6362;}.cls-6{fill:#1f5b5b;}.cls-7{fill:#277978;}.cls-8{fill:#1b5151;}.cls-9{fill:#2e9493;}.cls-10{fill:#2e9996;}</style><linearGradient id="linear-gradient" x1="-0.21" y1="44.17" x2="50.11" y2="14.54" gradientUnits="userSpaceOnUse"><stop offset="0" stop-color="#6dcbd4"/><stop offset="1" stop-color="#169a99"/></linearGradient><linearGradient id="linear-gradient-2" x1="1.32" y1="21.94" x2="44.96" y2="12.57" gradientUnits="userSpaceOnUse"><stop offset="0" stop-color="#3ab9b8"/><stop offset="1" stop-color="#106969"/></linearGradient></defs><title>maya0</title><g id="Layer_2" data-name="Layer 2"><g id="Layer_1-2" data-name="Layer 1"><polygon id="_Path_" data-name="&lt;Path&gt;" class="cls-1" points="50 44.91 50 13.77 24.87 0 0 13.75 0 44.91 9.85 44.91 14.47 31.01 25 43.71 35.03 31.59 39.31 44.91 50 44.91"/><polygon id="_Path_2" data-name="&lt;Path&gt;" class="cls-2" points="24.87 0 0 13.77 14.47 31.01 18.73 18.35 24.87 0 30.77 18.35 35.03 31.59 50 13.77 24.87 0"/><polygon id="_Path_3" data-name="&lt;Path&gt;" class="cls-3" points="9.85 44.91 24.87 0 9.85 18.35 9.85 44.91"/><polygon id="_Path_4" data-name="&lt;Path&gt;" class="cls-4" points="39.31 44.91 24.87 0 39.25 18.35 39.25 26.23 39.31 44.91"/><polygon id="_Path_5" data-name="&lt;Path&gt;" class="cls-5" points="16.18 25.94 24.87 0 9.85 18.35 16.18 25.94"/><polygon id="_Path_6" data-name="&lt;Path&gt;" class="cls-6" points="33.21 25.94 24.87 0 39.25 18.35 33.21 25.94"/><polygon id="_Path_7" data-name="&lt;Path&gt;" class="cls-7" points="9.85 25.5 14.47 31.01 16.18 25.94 9.85 18.35 9.85 25.5"/><polygon id="_Path_8" data-name="&lt;Path&gt;" class="cls-8" points="39.25 26.57 35.03 31.59 33.21 25.94 39.25 18.35 39.25 26.57"/><polygon id="_Path_9" data-name="&lt;Path&gt;" class="cls-9" points="24.87 0 16.18 25.94 25 34.88 33.21 25.94 24.87 0"/><polygon id="_Path_10" data-name="&lt;Path&gt;" class="cls-10" points="24.87 0 25 34.88 33.21 25.94 24.87 0"/></g></g></svg>