<svg xmlns="http://www.w3.org/2000/svg" xmlns:xlink="http://www.w3.org/1999/xlink" viewBox="0 0 50 44.91"><defs><style>.cls-1{fill:url(#linear-gradient);}.cls-2{fill:url(#linear-gradient-2);}.cls-3{fill:url(#linear-gradient-3);}.cls-4{fill:url(#Orange_Yellow);}.cls-5{fill:url(#Orange_Yellow-2);}.cls-6{fill:url(#linear-gradient-4);}.cls-7{fill:url(#linear-gradient-5);}.cls-8{fill:url(#linear-gradient-6);}.cls-9{fill:url(#linear-gradient-7);}.cls-10{fill:url(#linear-gradient-8);}</style><linearGradient id="linear-gradient" x1="-0.21" y1="44.17" x2="50.11" y2="14.54" gradientUnits="userSpaceOnUse"><stop offset="0" stop-color="#fff33b"/><stop offset="0.17" stop-color="#fff03b"/><stop offset="0.32" stop-color="#fde53b"/><stop offset="0.46" stop-color="#fbd33b"/><stop offset="0.6" stop-color="#f8ba3b"/><stop offset="0.73" stop-color="#f49a3b"/><stop offset="0.86" stop-color="#ef723a"/><stop offset="0.99" stop-color="#ea443a"/><stop offset="1" stop-color="#e93e3a"/></linearGradient><linearGradient id="linear-gradient-2" x1="1.32" y1="21.94" x2="44.96" y2="12.57" gradientUnits="userSpaceOnUse"><stop offset="0" stop-color="#f3903f"/><stop offset="0.44" stop-color="#f38e3f"/><stop offset="0.63" stop-color="#f2873e"/><stop offset="0.77" stop-color="#f07a3d"/><stop offset="0.88" stop-color="#ed693c"/><stop offset="0.89" stop-color="#ed683c"/><stop offset="1" stop-color="#e93e3a"/></linearGradient><linearGradient id="linear-gradient-3" x1="9.84" y1="22.45" x2="24.87" y2="22.45" gradientUnits="userSpaceOnUse"><stop offset="0" stop-color="#f3903f"/><stop offset="0.57" stop-color="#ed683c"/><stop offset="0.84" stop-color="#e93e3a"/></linearGradient><linearGradient id="Orange_Yellow" x1="24.87" y1="22.45" x2="39.31" y2="22.45" gradientUnits="userSpaceOnUse"><stop offset="0" stop-color="#fff33b"/><stop offset="0.04" stop-color="#fee72e"/><stop offset="0.12" stop-color="#fed51b"/><stop offset="0.2" stop-color="#fdca10"/><stop offset="0.28" stop-color="#fdc70c"/><stop offset="0.67" stop-color="#f3903f"/><stop offset="0.89" stop-color="#ed683c"/><stop offset="1" stop-color="#e93e3a"/></linearGradient><linearGradient id="Orange_Yellow-2" x1="9.84" y1="12.97" x2="24.87" y2="12.97" xlink:href="#Orange_Yellow"/><linearGradient id="linear-gradient-4" x1="24.87" y1="12.97" x2="39.25" y2="12.97" gradientUnits="userSpaceOnUse"><stop offset="0" stop-color="#f3903f"/><stop offset="0.41" stop-color="#ed683c"/><stop offset="1" stop-color="#e93e3a"/></linearGradient><linearGradient id="linear-gradient-5" x1="9.84" y1="24.68" x2="16.18" y2="24.68" gradientUnits="userSpaceOnUse"><stop offset="0.41" stop-color="#f3903f"/><stop offset="0.65" stop-color="#ed683c"/><stop offset="1" stop-color="#e93e3a"/></linearGradient><linearGradient id="linear-gradient-6" x1="33.21" y1="24.97" x2="39.25" y2="24.97" gradientUnits="userSpaceOnUse"><stop offset="0" stop-color="#f3903f"/><stop offset="0.15" stop-color="#ed683c"/><stop offset="1" stop-color="#e93e3a"/></linearGradient><linearGradient id="linear-gradient-7" x1="16.18" y1="17.44" x2="33.21" y2="17.44" gradientUnits="userSpaceOnUse"><stop offset="0.47" stop-color="#f3903f"/><stop offset="0.65" stop-color="#ed683c"/><stop offset="0.77" stop-color="#e93e3a"/></linearGradient><linearGradient id="linear-gradient-8" x1="24.87" y1="17.44" x2="33.21" y2="17.44" gradientUnits="userSpaceOnUse"><stop offset="0" stop-color="#fff33b"/><stop offset="0.04" stop-color="#fee72e"/><stop offset="0.12" stop-color="#fed51b"/><stop offset="0.2" stop-color="#fdca10"/><stop offset="0.28" stop-color="#fdc70c"/><stop offset="1" stop-color="#f3903f"/></linearGradient></defs><title>maya</title><g id="Layer_2" data-name="Layer 2"><g id="Layer_1-2" data-name="Layer 1"><polygon id="_Path_" data-name="&lt;Path&gt;" class="cls-1" points="50 44.91 50 13.77 24.87 0 0 13.75 0 44.91 9.85 44.91 14.47 31.01 25 43.71 35.03 31.59 39.31 44.91 50 44.91"/><polygon id="_Path_2" data-name="&lt;Path&gt;" class="cls-2" points="24.87 0 0 13.77 14.47 31.01 18.73 18.35 24.87 0 30.77 18.35 35.03 31.59 50 13.77 24.87 0"/><polygon id="_Path_3" data-name="&lt;Path&gt;" class="cls-3" points="9.85 44.91 24.87 0 9.85 18.35 9.85 44.91"/><polygon id="_Path_4" data-name="&lt;Path&gt;" class="cls-4" points="39.31 44.91 24.87 0 39.25 18.35 39.25 26.23 39.31 44.91"/><polygon id="_Path_5" data-name="&lt;Path&gt;" class="cls-5" points="16.18 25.94 24.87 0 9.85 18.35 16.18 25.94"/><polygon id="_Path_6" data-name="&lt;Path&gt;" class="cls-6" points="33.21 25.94 24.87 0 39.25 18.35 33.21 25.94"/><polygon id="_Path_7" data-name="&lt;Path&gt;" class="cls-7" points="9.85 25.5 14.47 31.01 16.18 25.94 9.85 18.35 9.85 25.5"/><polygon id="_Path_8" data-name="&lt;Path&gt;" class="cls-8" points="39.25 26.57 35.03 31.59 33.21 25.94 39.25 18.35 39.25 26.57"/><polygon id="_Path_9" data-name="&lt;Path&gt;" class="cls-9" points="24.87 0 16.18 25.94 25 34.88 33.21 25.94 24.87 0"/><polygon id="_Path_10" data-name="&lt;Path&gt;" class="cls-10" points="24.87 0 25 34.88 33.21 25.94 24.87 0"/></g></g></svg>