<svg xmlns="http://www.w3.org/2000/svg" xmlns:xlink="http://www.w3.org/1999/xlink" viewBox="0 0 144.01 32"><defs><style>.cls-1{fill:url(#linear-gradient);}.cls-2{fill:#fff;}</style><linearGradient id="linear-gradient" x1="96.84" y1="-26.65" x2="50.23" y2="54.09" gradientUnits="userSpaceOnUse"><stop offset="0" stop-color="#fff33b"/><stop offset="0.04" stop-color="#fee72e"/><stop offset="0.12" stop-color="#fed51b"/><stop offset="0.2" stop-color="#fdca10"/><stop offset="0.28" stop-color="#fdc70c"/><stop offset="0.67" stop-color="#f3903f"/><stop offset="0.89" stop-color="#ed683c"/><stop offset="1" stop-color="#e93e3a"/></linearGradient></defs><title>phaser</title><g id="Layer_2" data-name="Layer 2"><g id="Layer_1-2" data-name="Layer 1"><path class="cls-1" d="M144,28v3c-8.49,1.55-14.35-1-16-10.2,0-.17-.48-.27-.83-.44-.13,1.8-.25,3.57-.39,5.62H71.65c-8,0-8,0-11-7.42-.06-.16-.53-.17-1.13-.34a40.15,40.15,0,0,1-1.78,5c-.52,1-1.53,2.57-2.37,2.6-5.72.23-11.46.12-16.71.12l-1.58-8.17-1.74.37-.68,7.6H24.21l-.38-6.4H12.19l-.39,6.33H1V0H49V11.67l.91.19L54,0H66c1.29,3.74,2.55,7.49,3.87,11.21,1.86,5.25,1.88,5.24,8.68,4C71.27,12.4,70.23,7.1,71,1a5.48,5.48,0,0,0,0-1h72c0,4.66.18,9.33-.11,14-.11,1.79-1.27,3.53-2.47,6.61C141.18,22.15,142.59,25.08,144,28Zm-3.26-12.24V2.24H118.31V23.6h6.81V9.27h7.8l0,.58-6.72.34c2,4.84,4.24,9.29,5.71,14s4.12,5.81,8.66,4.24c-1.47-4.05-2.92-8-4.45-12.21Zm-24.09,1.11v-7H104.09v-1h12.73V2.19H97.35V23.76h19.36V17.83H104.3l0-1ZM73.44,1.79C70.09,12,81,12.2,84.78,18.16H73.34v5.49h22.4C97.65,14.77,88.24,14,85.23,8H95.81V1.79ZM10,23.74V9.36h7.69l0,.45-6.18.48c2.38,7.5,4.24,8.29,13.25,5.92V2.27H3.34V23.74ZM26.35,2.08V23.76h6.42l.49-7.42h7v7.41h6.54V2.06H40V9.7H33.18l-.42-7.62ZM71.7,23.5c-2.28-6.55-4.45-13.16-7-19.62A4.68,4.68,0,0,0,61.1,1.62c-1.91,0-5,.54-5.52,1.73-2.78,6.6-4.91,13.47-7.25,20.2,5.13,1.67,7.56-.2,8.55-4.85.59-2.77,1.75-5.41,3.12-9.5,1.39,4.16,2.51,6.73,3.11,9.42C64.12,23.12,66.34,25.35,71.7,23.5Z"/><path class="cls-2" d="M1,0V25.67H11.8l.39-6.33H23.83l.38,6.4H34.65l.68-7.6,1.74-.37,1.58,8.17c5.25,0,11,.11,16.71-.12.84,0,1.85-1.56,2.37-2.6a40.15,40.15,0,0,0,1.78-5c.6.17,1.07.18,1.13.34,3,7.42,3,7.42,11,7.42h55.11c.14-2.05.26-3.82.39-5.62.35.17.8.27.83.44,1.67,9.18,7.53,11.75,16,10.2a17.51,17.51,0,0,1-4,1Q70,32,0,32C0,22.17,0,12.33.05,2.5A7.69,7.69,0,0,1,1,0Z"/><path class="cls-2" d="M71,0a5.48,5.48,0,0,1,0,1c-.79,6.11.25,11.41,7.53,14.25-6.8,1.21-6.82,1.22-8.68-4C68.55,7.49,67.29,3.74,66,0Z"/><path class="cls-2" d="M144,28c-1.41-2.92-2.82-5.85-3.58-7.41,1.2-3.08,2.36-4.82,2.47-6.61.29-4.65.11-9.32.11-14,.34.67,1,1.33,1,2C144,10.67,144,19.33,144,28Z"/><path class="cls-2" d="M54,0,49.91,11.86,49,11.67V0Z"/><path class="cls-2" d="M140.74,15.76l-4.6.45c1.53,4.18,3,8.16,4.45,12.21-4.54,1.57-7.2.46-8.66-4.24s-3.7-9.15-5.71-14l6.72-.34,0-.58h-7.8V23.6h-6.81V2.24h22.43Z"/><path class="cls-2" d="M116.65,16.87H104.34l0,1h12.41v5.93H97.35V2.19h19.47V8.9H104.09v1h12.56Z"/><path class="cls-2" d="M73.44,1.79H95.81V8H85.23c3,6,12.42,6.81,10.51,15.69H73.34V18.16H84.78C81,12.2,70.09,12,73.44,1.79Z"/><path class="cls-2" d="M10,23.74H3.34V2.27H24.78V16.21c-9,2.37-10.87,1.58-13.25-5.92l6.18-.48,0-.45H10Z"/><path class="cls-2" d="M26.35,2.08h6.41l.42,7.62H40V2.06h6.83V23.75H40.25V16.34h-7l-.49,7.42H26.35Z"/><path class="cls-2" d="M71.7,23.5c-5.36,1.85-7.58-.38-8.59-4.88-.6-2.69-1.72-5.26-3.11-9.42-1.37,4.09-2.53,6.73-3.12,9.5-1,4.65-3.42,6.52-8.55,4.85,2.34-6.73,4.47-13.6,7.25-20.2.49-1.19,3.61-1.7,5.52-1.73a4.68,4.68,0,0,1,3.63,2.26C67.25,10.34,69.42,17,71.7,23.5Z"/></g></g></svg>