<svg xmlns="http://www.w3.org/2000/svg" xmlns:xlink="http://www.w3.org/1999/xlink" viewBox="0 0 52 52"><defs><style>.cls-1{opacity:0.83;}.cls-2{fill:none;stroke-miterlimit:10;stroke-width:2px;stroke:url(#Orange_Yellow);}.cls-3{fill:url(#linear-gradient);}.cls-4{fill:url(#linear-gradient-2);}</style><linearGradient id="Orange_Yellow" x1="26" y1="52" x2="26" gradientUnits="userSpaceOnUse"><stop offset="0" stop-color="#fff33b"/><stop offset="0.04" stop-color="#fee72e"/><stop offset="0.12" stop-color="#fed51b"/><stop offset="0.2" stop-color="#fdca10"/><stop offset="0.28" stop-color="#fdc70c"/><stop offset="0.67" stop-color="#f3903f"/><stop offset="0.89" stop-color="#ed683c"/><stop offset="1" stop-color="#e93e3a"/></linearGradient><linearGradient id="linear-gradient" x1="21.58" y1="37.42" x2="21.58" y2="14.58" xlink:href="#Orange_Yellow"/><linearGradient id="linear-gradient-2" x1="35.93" y1="37.42" x2="35.93" y2="19.97" xlink:href="#Orange_Yellow"/></defs><title>pr</title><g id="Layer_2" data-name="Layer 2"><g id="Layer_1-2" data-name="Layer 1"><g class="cls-1"><path class="cls-2" d="M40,51H12A11,11,0,0,1,1,40V12A11,11,0,0,1,12,1H40A11,11,0,0,1,51,12V40A11,11,0,0,1,40,51Z"/></g><path class="cls-3" d="M26.93,16.7a8.08,8.08,0,0,1,2,5.84,8.07,8.07,0,0,1-2,5.84,7.39,7.39,0,0,1-5.6,2.12H16.81v6.92H14.2V14.58h7.13A7.42,7.42,0,0,1,26.93,16.7Zm-1.88,9.64a5.17,5.17,0,0,0,1.3-3.8,5.18,5.18,0,0,0-1.3-3.8,5.12,5.12,0,0,0-3.79-1.32H16.81V27.66h4.45A5.12,5.12,0,0,0,25.05,26.34Z"/><path class="cls-4" d="M36.55,20.75A5.86,5.86,0,0,1,39.66,20v3a4.3,4.3,0,0,0-.58,0,3.8,3.8,0,0,0-3.2,1.51,7,7,0,0,0-1.16,4.33v8.61H32.21V20.13h2.4V23A4.85,4.85,0,0,1,36.55,20.75Z"/></g></g></svg>