<svg xmlns="http://www.w3.org/2000/svg" viewBox="0 0 51 51"><defs><style>.cls-1{fill:none;stroke:#bb82b9;stroke-miterlimit:10;}.cls-2{fill:#bb82b9;}</style></defs><title>pr0</title><g id="Layer_2" data-name="Layer 2"><g id="Layer_1-2" data-name="Layer 1"><path class="cls-1" d="M39.48,50.5h-28a11,11,0,0,1-11-11v-28a11,11,0,0,1,11-11h28a11,11,0,0,1,11,11v28A11,11,0,0,1,39.48,50.5Z"/><path class="cls-2" d="M26.43,16.2a8.08,8.08,0,0,1,2,5.84,8.07,8.07,0,0,1-2,5.84A7.39,7.39,0,0,1,20.83,30H16.31v6.92H13.7V14.08h7.13A7.42,7.42,0,0,1,26.43,16.2Zm-1.88,9.64a5.17,5.17,0,0,0,1.3-3.8,5.18,5.18,0,0,0-1.3-3.8,5.12,5.12,0,0,0-3.79-1.32H16.31V27.16h4.45A5.12,5.12,0,0,0,24.55,25.84Z"/><path class="cls-2" d="M36.05,20.25a5.86,5.86,0,0,1,3.11-.78v3a4.3,4.3,0,0,0-.58,0A3.8,3.8,0,0,0,35.38,24a7,7,0,0,0-1.16,4.33v8.61H31.71V19.63h2.4v2.9A4.85,4.85,0,0,1,36.05,20.25Z"/></g></g></svg>