<svg xmlns="http://www.w3.org/2000/svg" xmlns:xlink="http://www.w3.org/1999/xlink" viewBox="24.95 14.29 50 50"><defs><style>.cls-1,.cls-6{fill:none;}.cls-2{fill:#010101;}.cls-3{clip-path:url(#clip-path);}.cls-4{fill:#133257;opacity:0.5;isolation:isolate;}.cls-5{fill:#fff;}.cls-6{stroke:#fff;stroke-width:0.2px;}</style><clipPath id="clip-path"><rect class="cls-1" x="24.95" y="13.29" width="50" height="49.9" rx="7.26" ry="7.26"/></clipPath></defs><title>prossessing0</title><g id="Layer_2" data-name="Layer 2"><g id="Layer_1-2" data-name="Layer 1"><g id="layer2"><rect id="rect2862" class="cls-2" x="24.95" y="13.29" width="50" height="49.9" rx="7.26" ry="7.26"/></g><g id="layer6"><g class="cls-3"><path id="path3005" class="cls-4" d="M49.9,38.19A16.61,16.61,0,1,1,33.29,21.57,16.61,16.61,0,0,1,49.9,38.19Z"/></g><g class="cls-3"><path id="path3785" class="cls-4" d="M45.4,16.72a7.93,7.93,0,0,1-15.85,0h0a7.93,7.93,0,1,1,15.85,0Z"/></g><g class="cls-3"><path id="path3799" class="cls-4" d="M70.86,32.52a8,8,0,1,1-8-8A8,8,0,0,1,70.86,32.52Z"/></g><g class="cls-3"><path id="path3801" class="cls-4" d="M54.19,18.1a7.87,7.87,0,0,1-15.74,0h0a7.87,7.87,0,1,1,15.74,0Z"/></g><g class="cls-3"><path id="path3803" class="cls-4" d="M35.28,55.83a8.08,8.08,0,1,1-8.08-8.08A8.08,8.08,0,0,1,35.28,55.83Z"/></g><g class="cls-3"><path id="path3805" class="cls-4" d="M79.35,18.3a8,8,0,1,1-8-8A8,8,0,0,1,79.35,18.3Z"/></g><g class="cls-3"><path id="path3807" class="cls-4" d="M70.45,15.54a8,8,0,1,1-8-8,8,8,0,0,1,8,8Z"/></g><g class="cls-3"><path id="path3809" class="cls-4" d="M77.3,16.36A8.28,8.28,0,1,1,69,8.08,8.28,8.28,0,0,1,77.3,16.36Z"/></g><g class="cls-3"><path id="path3815" class="cls-4" d="M39.26,25.87A19.63,19.63,0,1,1,19.63,6.24,19.63,19.63,0,0,1,39.26,25.87Z"/></g><g class="cls-3"><path id="path3823" class="cls-4" d="M63.29,36a7.93,7.93,0,1,1-15.85,0h0a7.93,7.93,0,0,1,15.85,0Z"/></g><g class="cls-3"><path id="path3829" class="cls-4" d="M63.29,8a8,8,0,1,1-8-8A8,8,0,0,1,63.29,8Z"/></g><g class="cls-3"><path id="path3829-1" class="cls-4" d="M53.46,9.57a8,8,0,1,1-8-8A8,8,0,0,1,53.46,9.57Z"/></g><g class="cls-3"><path id="path3829-7" class="cls-4" d="M61.77,12a8,8,0,1,1-8-8A8,8,0,0,1,61.77,12Z"/></g><g class="cls-3"><path id="path3829-7-4" class="cls-4" d="M45.87,9.71a8,8,0,1,1-8-8A8,8,0,0,1,45.87,9.71Z"/></g><g class="cls-3"><path id="path3827" class="cls-4" d="M63.29,25.1a7.93,7.93,0,1,1-15.85,0h0a7.93,7.93,0,0,1,15.85,0Z"/></g><g class="cls-3"><path id="path3799-0" class="cls-4" d="M84.38,34.83a8,8,0,1,1-8-8A8,8,0,0,1,84.38,34.83Z"/></g><g class="cls-3"><path id="path3799-4" class="cls-4" d="M84.52,24.44a8,8,0,1,1-8-8A8,8,0,0,1,84.52,24.44Z"/></g></g><g id="layer7"><path id="path3996" class="cls-5" d="M37.93,16.79a.46.46,0,0,1-.92,0h0a.47.47,0,0,1,.46-.46.46.46,0,0,1,.46.46Z"/><path id="path3996-8" class="cls-5" d="M46.68,18a.45.45,0,0,1-.46.46.46.46,0,0,1-.46-.46h0a.47.47,0,0,1,.46-.46.46.46,0,0,1,.46.46Z"/><path id="path3996-4" class="cls-5" d="M33.74,38.27a.46.46,0,0,1-.46.46.47.47,0,0,1-.46-.46h0a.46.46,0,0,1,.92,0Z"/><path id="path3996-5" class="cls-5" d="M63.31,32.7a.46.46,0,0,1-.92,0h0a.47.47,0,0,1,.46-.46.46.46,0,0,1,.46.46Z"/><path id="path3996-7" class="cls-5" d="M63,15.49a.45.45,0,0,1-.46.46.46.46,0,0,1-.46-.46h0a.46.46,0,1,1,.92,0Z"/><path id="path3996-52" class="cls-5" d="M69.31,16.36a.46.46,0,0,1-.92,0h0a.47.47,0,0,1,.46-.46.46.46,0,0,1,.46.46Z"/><path id="path3996-6" class="cls-5" d="M71.84,18.17a.46.46,0,0,1-.46.46.47.47,0,0,1-.46-.46h0a.46.46,0,0,1,.46-.46.45.45,0,0,1,.46.46Z"/><path id="path3996-4-1" class="cls-5" d="M27.63,56a.47.47,0,0,1-.46.46.45.45,0,0,1-.46-.46h0a.46.46,0,0,1,.46-.46.47.47,0,0,1,.46.46Z"/></g><g id="layer8"><g class="cls-3"><path id="path4074" class="cls-6" d="M37.51,16.78l-4.2,21.69"/></g><g class="cls-3"><path id="path4076" class="cls-6" d="M46.26,17.94l9,7.16"/></g><g class="cls-3"><path id="path4078" class="cls-6" d="M62.81,32.69l-9.9-10.34"/></g><g class="cls-3"><path id="path4109" class="cls-6" d="M37.51,16.86l8.82,1.22"/></g><g class="cls-3"><path id="path4111" class="cls-6" d="M33.31,38.26,51,21.84"/></g><g class="cls-3"><path id="path4135" class="cls-6" d="M33.39,38,27.17,56"/></g><g class="cls-3"><path id="path4137" class="cls-6" d="M62.81,32.76,57,35.51"/></g><g class="cls-3"><path id="path4139" class="cls-6" d="M56.88,35.94,33.31,38.26,21.82,45.92"/></g><g class="cls-3"><path id="path4141" class="cls-6" d="M33.17,38.26,20.59,26.54"/></g><g class="cls-3"><path id="path4143" class="cls-6" d="M37.58,16.86,19.94,26.18"/></g><g class="cls-3"><path id="path4145" class="cls-6" d="M46.26,18l2.09,5.93"/></g><g class="cls-3"><path id="path4147" class="cls-6" d="M37.51,16.93l9,6"/></g><g class="cls-3"><path id="path4149" class="cls-6" d="M62.74,32.62l14.17,2.17"/></g><g class="cls-3"><path id="path4151" class="cls-6" d="M71.42,18.45,76,23.94"/></g><g class="cls-3"><path id="path4153" class="cls-6" d="M68.89,16.35l2.53,2.1"/></g><g class="cls-3"><path id="path4155" class="cls-6" d="M62.52,15.55l-6.07,8.68"/></g><g class="cls-3"><path id="path4157" class="cls-6" d="M68.89,16.35,56.52,24.74"/></g><g class="cls-3"><path id="path4159" class="cls-6" d="M37.51,16.78l-.87-5.56"/></g><g class="cls-3"><path id="path4161" class="cls-6" d="M62.6,15.55l6.36.87"/></g><g class="cls-3"><path id="path4163" class="cls-6" d="M37.43,16.86l2.17-6.15"/></g><g class="cls-3"><path id="path4165" class="cls-6" d="M46.33,18.16l-5.57-6.44"/></g><g class="cls-3"><path id="path4167" class="cls-6" d="M62.52,15.48l-11.42,7"/></g><g class="cls-3"><path id="path4169" class="cls-6" d="M71.42,18.23l2-3.4"/></g><g class="cls-3"><path id="path4173" class="cls-6" d="M46.18,18,52,12.16"/></g><g class="cls-3"><path id="path4175" class="cls-6" d="M62.52,15.48l.94-3.32"/></g><g class="cls-3"><path id="path4177" class="cls-6" d="M71.42,18.37l4-.57"/></g><g class="cls-3"><path id="path4179" class="cls-6" d="M46.26,17.94l3.83-6.72"/></g><g class="cls-3"><path id="path4181" class="cls-6" d="M62.52,15.55,69,12.66"/></g><g class="cls-3"><path id="path4183" class="cls-6" d="M46.18,18l-3.11-7.08"/></g><g class="cls-3"><path id="path4185" class="cls-6" d="M69,16.35l-8.82-5.28"/></g><g class="cls-3"><path id="path4187" class="cls-6" d="M46.18,18.08l9.11-7.15"/></g><g class="cls-3"><path id="path4189" class="cls-6" d="M49.8,21.55l4.26-9.83"/></g><g class="cls-3"><path id="path4191" class="cls-6" d="M71.42,18.37l5.13,1.31"/></g><g class="cls-3"><path id="path4193" class="cls-6" d="M69,16.42l-4-5.28"/></g><g class="cls-3"><path id="path4195" class="cls-6" d="M71.56,18.45l-6.51-8"/></g><g class="cls-3"><path id="path4197" class="cls-6" d="M68.89,16.42l6.86.07"/></g><g class="cls-3"><path id="path4199" class="cls-6" d="M62.45,15.63,54.86,12.3"/></g><g class="cls-3"><path id="path4201" class="cls-6" d="M68.81,16.42l4.34-3.76"/></g><g class="cls-3"><path id="path4203" class="cls-6" d="M62.45,15.63l-3.18-4.05"/></g></g><g id="layer3"><path id="rect2887" class="cls-5" d="M40.49,20.76V56.34h4.2V45.5h8.79A5.51,5.51,0,0,0,59,40V26.28a5.51,5.51,0,0,0-5.52-5.52Zm4.2,4h8.89A1.23,1.23,0,0,1,54.81,26V40.08a1.23,1.23,0,0,1-1.23,1.23H44.69V24.79Z"/></g><g id="layer5"><path id="path3918" class="cls-5" d="M56.34,50.4a3.29,3.29,0,1,0,3.29,3.29A3.29,3.29,0,0,0,56.34,50.4Zm-1,1.81,2.53,1.52-2.53,1.44Z"/><path id="path3918-1" class="cls-5" d="M63.57,50.4a3.29,3.29,0,1,0,3.29,3.29A3.29,3.29,0,0,0,63.57,50.4Zm-1.12,2.17h2.32v2.32H62.45Z"/></g></g></g></svg>