<svg xmlns="http://www.w3.org/2000/svg" xmlns:xlink="http://www.w3.org/1999/xlink" viewBox="24.95 14.29 50 50"><defs><style>.cls-1{fill:none;}.cls-159,.cls-161,.cls-2{isolation:isolate;}.cls-3{clip-path:url(#clip-path);}.cls-4{fill:#fff33b;}.cls-5{fill:#fff23b;}.cls-6{fill:#fff13b;}.cls-7{fill:#fff03b;}.cls-8{fill:#ffef3b;}.cls-9{fill:#ffee3b;}.cls-10{fill:#ffee3c;}.cls-11{fill:#ffed3c;}.cls-12{fill:#ffec3c;}.cls-13{fill:#ffeb3c;}.cls-14{fill:#ffea3c;}.cls-15{fill:#ffe93c;}.cls-16{fill:#ffe83c;}.cls-17{fill:#ffe83d;}.cls-18{fill:#ffe73d;}.cls-19{fill:#ffe63d;}.cls-20{fill:#ffe53d;}.cls-21{fill:#ffe43d;}.cls-22{fill:#ffe33d;}.cls-23{fill:#ffe23d;}.cls-24{fill:#ffe23e;}.cls-25{fill:#ffe13e;}.cls-26{fill:#ffe03e;}.cls-27{fill:#ffdf3e;}.cls-28{fill:#ffde3e;}.cls-29{fill:#ffdd3e;}.cls-30{fill:#ffdc3e;}.cls-31{fill:#ffdb3f;}.cls-32{fill:#ffda3f;}.cls-33{fill:#ffd93f;}.cls-34{fill:#ffd83f;}.cls-35{fill:#ffd73f;}.cls-36{fill:#ffd63f;}.cls-37{fill:#ffd53f;}.cls-38{fill:#ffd43f;}.cls-39{fill:#ffd33f;}.cls-40{fill:#ffd23f;}.cls-41{fill:#ffd140;}.cls-42{fill:#ffd040;}.cls-43{fill:#ffcf40;}.cls-44{fill:#ffce40;}.cls-45{fill:#ffcd40;}.cls-46{fill:#fecd40;}.cls-47{fill:#fecc40;}.cls-48{fill:#fecb40;}.cls-49{fill:#feca40;}.cls-50{fill:#fec940;}.cls-51{fill:#fdc840;}.cls-52{fill:#fdc740;}.cls-53{fill:#fdc640;}.cls-54{fill:#fdc540;}.cls-55{fill:#fcc441;}.cls-56{fill:#fcc341;}.cls-57{fill:#fcc241;}.cls-58{fill:#fcc141;}.cls-59{fill:#fcc041;}.cls-60{fill:#fbbf41;}.cls-61{fill:#fbbe41;}.cls-62{fill:#fbbd41;}.cls-63{fill:#fbbc41;}.cls-64{fill:#fbbb41;}.cls-65{fill:#fbba41;}.cls-66{fill:#faba41;}.cls-67{fill:#fab941;}.cls-68{fill:#fab841;}.cls-69{fill:#fab741;}.cls-70{fill:#fab641;}.cls-71{fill:#f9b541;}.cls-72{fill:#f9b441;}.cls-73{fill:#f9b341;}.cls-74{fill:#f9b241;}.cls-75{fill:#f9b141;}.cls-76{fill:#f8b041;}.cls-77{fill:#f8af41;}.cls-78{fill:#f8ae41;}.cls-79{fill:#f8ad41;}.cls-80{fill:#f8ac41;}.cls-81{fill:#f7ab41;}.cls-82{fill:#f7aa41;}.cls-83{fill:#f7a941;}.cls-84{fill:#f7a841;}.cls-85{fill:#f7a741;}.cls-86{fill:#f7a641;}.cls-87{fill:#f6a541;}.cls-88{fill:#f6a441;}.cls-89{fill:#f6a340;}.cls-90{fill:#f6a240;}.cls-91{fill:#f6a140;}.cls-92{fill:#f5a040;}.cls-93{fill:#f59f40;}.cls-94{fill:#f59e40;}.cls-95{fill:#f59c40;}.cls-96{fill:#f59b40;}.cls-97{fill:#f49a40;}.cls-98{fill:#f49940;}.cls-99{fill:#f49840;}.cls-100{fill:#f49740;}.cls-101{fill:#f49640;}.cls-102{fill:#f39540;}.cls-103{fill:#f39440;}.cls-104{fill:#f39240;}.cls-105{fill:#f39140;}.cls-106{fill:#f39040;}.cls-107{fill:#f38f3f;}.cls-108{fill:#f28e3f;}.cls-109{fill:#f28d3f;}.cls-110{fill:#f28c3f;}.cls-111{fill:#f28a3f;}.cls-112{fill:#f2893f;}.cls-113{fill:#f1883f;}.cls-114{fill:#f1873f;}.cls-115{fill:#f1863f;}.cls-116{fill:#f1843f;}.cls-117{fill:#f1833f;}.cls-118{fill:#f0823f;}.cls-119{fill:#f0813e;}.cls-120{fill:#f07f3e;}.cls-121{fill:#f07e3e;}.cls-122{fill:#f07d3e;}.cls-123{fill:#ef7b3e;}.cls-124{fill:#ef7a3e;}.cls-125{fill:#ef793e;}.cls-126{fill:#ef773e;}.cls-127{fill:#ef763e;}.cls-128{fill:#ef753e;}.cls-129{fill:#ee733d;}.cls-130{fill:#ee723d;}.cls-131{fill:#ee703d;}.cls-132{fill:#ee6f3d;}.cls-133{fill:#ee6d3d;}.cls-134{fill:#ed6c3d;}.cls-135{fill:#ed6a3d;}.cls-136{fill:#ed683d;}.cls-137{fill:#ed673c;}.cls-138{fill:#ec653c;}.cls-139{fill:#ec633c;}.cls-140{fill:#ec623c;}.cls-141{fill:#ec603c;}.cls-142{fill:#ec5e3c;}.cls-143{fill:#ec5c3c;}.cls-144{fill:#eb5a3c;}.cls-145{fill:#eb593b;}.cls-146{fill:#eb573b;}.cls-147{fill:#eb553b;}.cls-148{fill:#eb533b;}.cls-149{fill:#ea513b;}.cls-150{fill:#ea4e3b;}.cls-151{fill:#ea4c3a;}.cls-152{fill:#ea4a3a;}.cls-153{fill:#ea483a;}.cls-154{fill:#e9453a;}.cls-155{fill:#e9433a;}.cls-156{fill:#e9413a;}.cls-157{fill:#e93e3a;}.cls-158{mix-blend-mode:luminosity;}.cls-159{opacity:0.5;}.cls-160{fill:#133257;}.cls-161,.cls-162,.cls-163{opacity:0.2;}.cls-163{mix-blend-mode:color;}.cls-164{fill:#fff;}</style><clipPath id="clip-path"><rect class="cls-1" x="24.95" y="13.29" width="50" height="49.9" rx="7.26" ry="7.26"/></clipPath></defs><title>Asset 47</title><g class="cls-2"><g id="Layer_2" data-name="Layer 2"><g id="Layer_1-2" data-name="Layer 1"><g id="rect2862"><g class="cls-3"><polygon class="cls-4" points="29.2 13.29 24.95 17.55 24.95 13.29 29.2 13.29"/><polygon class="cls-4" points="29.59 13.29 24.95 17.94 24.95 17.55 29.2 13.29 29.59 13.29"/><polygon class="cls-4" points="29.99 13.29 24.95 18.33 24.95 17.94 29.59 13.29 29.99 13.29"/><polygon class="cls-4" points="30.38 13.29 24.95 18.73 24.95 18.33 29.99 13.29 30.38 13.29"/><polygon class="cls-4" points="30.78 13.29 24.95 19.12 24.95 18.73 30.38 13.29 30.78 13.29"/><polygon class="cls-4" points="31.17 13.29 24.95 19.52 24.95 19.12 30.78 13.29 31.17 13.29"/><polygon class="cls-4" points="31.57 13.29 24.95 19.91 24.95 19.52 31.17 13.29 31.57 13.29"/><polygon class="cls-4" points="31.96 13.29 24.95 20.3 24.95 19.91 31.57 13.29 31.96 13.29"/><polygon class="cls-4" points="32.35 13.29 24.95 20.7 24.95 20.3 31.96 13.29 32.35 13.29"/><polygon class="cls-4" points="32.75 13.29 24.95 21.09 24.95 20.7 32.35 13.29 32.75 13.29"/><polygon class="cls-4" points="33.14 13.29 24.95 21.48 24.95 21.09 32.75 13.29 33.14 13.29"/><polygon class="cls-4" points="33.53 13.29 24.95 21.88 24.95 21.48 33.14 13.29 33.53 13.29"/><polygon class="cls-4" points="33.93 13.29 24.95 22.27 24.95 21.88 33.53 13.29 33.93 13.29"/><polygon class="cls-4" points="34.32 13.29 24.95 22.67 24.95 22.27 33.93 13.29 34.32 13.29"/><polygon class="cls-5" points="34.72 13.29 24.95 23.06 24.95 22.67 34.32 13.29 34.72 13.29"/><polygon class="cls-5" points="35.11 13.29 24.95 23.45 24.95 23.06 34.72 13.29 35.11 13.29"/><polygon class="cls-5" points="35.5 13.29 24.95 23.85 24.95 23.45 35.11 13.29 35.5 13.29"/><polygon class="cls-5" points="35.9 13.29 24.95 24.24 24.95 23.85 35.5 13.29 35.9 13.29"/><polygon class="cls-5" points="36.29 13.29 24.95 24.64 24.95 24.24 35.9 13.29 36.29 13.29"/><polygon class="cls-5" points="36.69 13.29 24.95 25.03 24.95 24.64 36.29 13.29 36.69 13.29"/><polygon class="cls-5" points="37.08 13.29 24.95 25.42 24.95 25.03 36.69 13.29 37.08 13.29"/><polygon class="cls-5" points="37.47 13.29 24.95 25.82 24.95 25.42 37.08 13.29 37.47 13.29"/><polygon class="cls-6" points="37.87 13.29 24.95 26.21 24.95 25.82 37.47 13.29 37.87 13.29"/><polygon class="cls-6" points="38.26 13.29 24.95 26.61 24.95 26.21 37.87 13.29 38.26 13.29"/><polygon class="cls-6" points="38.66 13.29 24.95 27 24.95 26.61 38.26 13.29 38.66 13.29"/><polygon class="cls-6" points="39.05 13.29 24.95 27.39 24.95 27 38.66 13.29 39.05 13.29"/><polygon class="cls-6" points="39.44 13.29 24.95 27.79 24.95 27.39 39.05 13.29 39.44 13.29"/><polygon class="cls-6" points="39.84 13.29 24.95 28.18 24.95 27.79 39.44 13.29 39.84 13.29"/><polygon class="cls-7" points="40.23 13.29 24.95 28.57 24.95 28.18 39.84 13.29 40.23 13.29"/><polygon class="cls-7" points="40.63 13.29 24.95 28.97 24.95 28.57 40.23 13.29 40.63 13.29"/><polygon class="cls-7" points="41.02 13.29 24.95 29.36 24.95 28.97 40.63 13.29 41.02 13.29"/><polygon class="cls-7" points="41.41 13.29 24.95 29.76 24.95 29.36 41.02 13.29 41.41 13.29"/><polygon class="cls-7" points="41.81 13.29 24.95 30.15 24.95 29.76 41.41 13.29 41.81 13.29"/><polygon class="cls-8" points="42.2 13.29 24.95 30.55 24.95 30.15 41.81 13.29 42.2 13.29"/><polygon class="cls-8" points="42.59 13.29 24.95 30.94 24.95 30.55 42.2 13.29 42.59 13.29"/><polygon class="cls-8" points="42.99 13.29 24.95 31.33 24.95 30.94 42.59 13.29 42.99 13.29"/><polygon class="cls-8" points="43.38 13.29 24.95 31.73 24.95 31.33 42.99 13.29 43.38 13.29"/><polygon class="cls-8" points="43.78 13.29 24.95 32.12 24.95 31.73 43.38 13.29 43.78 13.29"/><polygon class="cls-9" points="44.17 13.29 24.95 32.52 24.95 32.12 43.78 13.29 44.17 13.29"/><polygon class="cls-9" points="44.56 13.29 24.95 32.91 24.95 32.52 44.17 13.29 44.56 13.29"/><polygon class="cls-9" points="44.96 13.29 24.95 33.3 24.95 32.91 44.56 13.29 44.96 13.29"/><polygon class="cls-10" points="45.35 13.29 24.95 33.7 24.95 33.3 44.96 13.29 45.35 13.29"/><polygon class="cls-11" points="45.75 13.29 24.95 34.09 24.95 33.7 45.35 13.29 45.75 13.29"/><polygon class="cls-11" points="46.14 13.29 24.95 34.48 24.95 34.09 45.75 13.29 46.14 13.29"/><polygon class="cls-11" points="46.53 13.29 24.95 34.88 24.95 34.48 46.14 13.29 46.53 13.29"/><polygon class="cls-11" points="46.93 13.29 24.95 35.27 24.95 34.88 46.53 13.29 46.93 13.29"/><polygon class="cls-11" points="47.32 13.29 24.95 35.67 24.95 35.27 46.93 13.29 47.32 13.29"/><polygon class="cls-12" points="47.72 13.29 24.95 36.06 24.95 35.67 47.32 13.29 47.72 13.29"/><polygon class="cls-12" points="48.11 13.29 24.95 36.45 24.95 36.06 47.72 13.29 48.11 13.29"/><polygon class="cls-12" points="48.5 13.29 24.95 36.85 24.95 36.45 48.11 13.29 48.5 13.29"/><polygon class="cls-13" points="48.9 13.29 24.95 37.24 24.95 36.85 48.5 13.29 48.9 13.29"/><polygon class="cls-13" points="49.29 13.29 24.95 37.64 24.95 37.24 48.9 13.29 49.29 13.29"/><polygon class="cls-13" points="49.69 13.29 24.95 38.03 24.95 37.64 49.29 13.29 49.69 13.29"/><polygon class="cls-13" points="50.08 13.29 24.95 38.42 24.95 38.03 49.69 13.29 50.08 13.29"/><polygon class="cls-14" points="50.47 13.29 24.95 38.82 24.95 38.42 50.08 13.29 50.47 13.29"/><polygon class="cls-14" points="50.87 13.29 24.95 39.21 24.95 38.82 50.47 13.29 50.87 13.29"/><polygon class="cls-14" points="51.26 13.29 24.95 39.6 24.95 39.21 50.87 13.29 51.26 13.29"/><polygon class="cls-14" points="51.66 13.29 24.95 40 24.95 39.6 51.26 13.29 51.66 13.29"/><polygon class="cls-15" points="52.05 13.29 24.95 40.39 24.95 40 51.66 13.29 52.05 13.29"/><polygon class="cls-15" points="52.44 13.29 24.95 40.79 24.95 40.39 52.05 13.29 52.44 13.29"/><polygon class="cls-15" points="52.84 13.29 24.95 41.18 24.95 40.79 52.44 13.29 52.84 13.29"/><polygon class="cls-16" points="53.23 13.29 24.95 41.58 24.95 41.18 52.84 13.29 53.23 13.29"/><polygon class="cls-17" points="53.63 13.29 24.95 41.97 24.95 41.58 53.23 13.29 53.63 13.29"/><polygon class="cls-17" points="54.02 13.29 24.95 42.36 24.95 41.97 53.63 13.29 54.02 13.29"/><polygon class="cls-18" points="54.41 13.29 24.95 42.76 24.95 42.36 54.02 13.29 54.41 13.29"/><polygon class="cls-18" points="54.81 13.29 24.95 43.15 24.95 42.76 54.41 13.29 54.81 13.29"/><polygon class="cls-18" points="55.2 13.29 24.95 43.55 24.95 43.15 54.81 13.29 55.2 13.29"/><polygon class="cls-19" points="55.59 13.29 24.95 43.94 24.95 43.55 55.2 13.29 55.59 13.29"/><polygon class="cls-19" points="55.99 13.29 24.95 44.33 24.95 43.94 55.59 13.29 55.99 13.29"/><polygon class="cls-19" points="56.38 13.29 24.95 44.73 24.95 44.33 55.99 13.29 56.38 13.29"/><polygon class="cls-20" points="56.78 13.29 24.95 45.12 24.95 44.73 56.38 13.29 56.78 13.29"/><polygon class="cls-20" points="57.17 13.29 24.95 45.51 24.95 45.12 56.78 13.29 57.17 13.29"/><polygon class="cls-20" points="57.56 13.29 24.95 45.91 24.95 45.51 57.17 13.29 57.56 13.29"/><polygon class="cls-21" points="57.96 13.29 24.95 46.3 24.95 45.91 57.56 13.29 57.96 13.29"/><polygon class="cls-21" points="58.35 13.29 24.95 46.7 24.95 46.3 57.96 13.29 58.35 13.29"/><polygon class="cls-22" points="58.75 13.29 24.95 47.09 24.95 46.7 58.35 13.29 58.75 13.29"/><polygon class="cls-22" points="59.14 13.29 24.95 47.48 24.95 47.09 58.75 13.29 59.14 13.29"/><polygon class="cls-22" points="59.53 13.29 24.95 47.88 24.95 47.48 59.14 13.29 59.53 13.29"/><polygon class="cls-23" points="59.93 13.29 24.95 48.27 24.95 47.88 59.53 13.29 59.93 13.29"/><polygon class="cls-24" points="60.32 13.29 24.95 48.67 24.95 48.27 59.93 13.29 60.32 13.29"/><polygon class="cls-25" points="60.72 13.29 24.95 49.06 24.95 48.67 60.32 13.29 60.72 13.29"/><polygon class="cls-25" points="61.11 13.29 24.95 49.45 24.95 49.06 60.72 13.29 61.11 13.29"/><polygon class="cls-25" points="61.5 13.29 24.95 49.85 24.95 49.45 61.11 13.29 61.5 13.29"/><polygon class="cls-26" points="61.9 13.29 24.95 50.24 24.95 49.85 61.5 13.29 61.9 13.29"/><polygon class="cls-26" points="62.29 13.29 24.95 50.63 24.95 50.24 61.9 13.29 62.29 13.29"/><polygon class="cls-27" points="62.69 13.29 24.95 51.03 24.95 50.63 62.29 13.29 62.69 13.29"/><polygon class="cls-27" points="63.08 13.29 24.95 51.42 24.95 51.03 62.69 13.29 63.08 13.29"/><polygon class="cls-28" points="63.47 13.29 24.95 51.82 24.95 51.42 63.08 13.29 63.47 13.29"/><polygon class="cls-28" points="63.87 13.29 24.95 52.21 24.95 51.82 63.47 13.29 63.87 13.29"/><polygon class="cls-29" points="64.26 13.29 24.95 52.6 24.95 52.21 63.87 13.29 64.26 13.29"/><polygon class="cls-29" points="64.66 13.29 24.95 53 24.95 52.6 64.26 13.29 64.66 13.29"/><polygon class="cls-30" points="65.05 13.29 24.95 53.39 24.95 53 64.66 13.29 65.05 13.29"/><polygon class="cls-30" points="65.44 13.29 24.95 53.79 24.95 53.39 65.05 13.29 65.44 13.29"/><polygon class="cls-31" points="65.84 13.29 24.95 54.18 24.95 53.79 65.44 13.29 65.84 13.29"/><polygon class="cls-31" points="66.23 13.29 24.95 54.58 24.95 54.18 65.84 13.29 66.23 13.29"/><polygon class="cls-32" points="66.63 13.29 24.95 54.97 24.95 54.58 66.23 13.29 66.63 13.29"/><polygon class="cls-32" points="67.02 13.29 24.95 55.36 24.95 54.97 66.63 13.29 67.02 13.29"/><polygon class="cls-33" points="67.41 13.29 24.95 55.76 24.95 55.36 67.02 13.29 67.41 13.29"/><polygon class="cls-34" points="67.81 13.29 24.95 56.15 24.95 55.76 67.41 13.29 67.81 13.29"/><polygon class="cls-34" points="68.2 13.29 24.95 56.54 24.95 56.15 67.81 13.29 68.2 13.29"/><polygon class="cls-35" points="68.59 13.29 24.95 56.94 24.95 56.54 68.2 13.29 68.59 13.29"/><polygon class="cls-35" points="68.99 13.29 24.95 57.33 24.95 56.94 68.59 13.29 68.99 13.29"/><polygon class="cls-36" points="69.38 13.29 24.95 57.73 24.95 57.33 68.99 13.29 69.38 13.29"/><polygon class="cls-36" points="69.78 13.29 24.95 58.12 24.95 57.73 69.38 13.29 69.78 13.29"/><polygon class="cls-37" points="70.17 13.29 24.95 58.51 24.95 58.12 69.78 13.29 70.17 13.29"/><polygon class="cls-38" points="70.56 13.29 24.95 58.91 24.95 58.51 70.17 13.29 70.56 13.29"/><polygon class="cls-38" points="70.96 13.29 24.95 59.3 24.95 58.91 70.56 13.29 70.96 13.29"/><polygon class="cls-39" points="71.35 13.29 24.95 59.7 24.95 59.3 70.96 13.29 71.35 13.29"/><polygon class="cls-39" points="71.75 13.29 24.95 60.09 24.95 59.7 71.35 13.29 71.75 13.29"/><polygon class="cls-40" points="72.14 13.29 24.95 60.48 24.95 60.09 71.75 13.29 72.14 13.29"/><polygon class="cls-41" points="72.53 13.29 24.95 60.88 24.95 60.48 72.14 13.29 72.53 13.29"/><polygon class="cls-41" points="72.93 13.29 24.95 61.27 24.95 60.88 72.53 13.29 72.93 13.29"/><polygon class="cls-42" points="73.32 13.29 24.95 61.67 24.95 61.27 72.93 13.29 73.32 13.29"/><polygon class="cls-43" points="73.72 13.29 24.95 62.06 24.95 61.67 73.32 13.29 73.72 13.29"/><polygon class="cls-43" points="74.11 13.29 24.95 62.45 24.95 62.06 73.72 13.29 74.11 13.29"/><polygon class="cls-44" points="74.5 13.29 24.99 62.81 24.95 62.77 24.95 62.45 74.11 13.29 74.5 13.29"/><polygon class="cls-45" points="74.53 13.29 74.71 13.48 25.18 63.01 24.99 62.81 74.5 13.29 74.53 13.29"/><polygon class="cls-46" points="74.71 13.48 74.91 13.68 25.39 63.19 25.37 63.19 25.18 63.01 74.71 13.48"/><polygon class="cls-47" points="74.91 13.68 74.95 13.71 74.95 14.03 25.79 63.19 25.39 63.19 74.91 13.68"/><polygon class="cls-48" points="74.95 14.42 26.18 63.19 25.79 63.19 74.95 14.03 74.95 14.42"/><polygon class="cls-48" points="74.95 14.82 26.58 63.19 26.18 63.19 74.95 14.42 74.95 14.82"/><polygon class="cls-49" points="74.95 15.21 26.97 63.19 26.58 63.19 74.95 14.82 74.95 15.21"/><polygon class="cls-50" points="74.95 15.61 27.36 63.19 26.97 63.19 74.95 15.21 74.95 15.61"/><polygon class="cls-51" points="74.95 16 27.76 63.19 27.36 63.19 74.95 15.61 74.95 16"/><polygon class="cls-51" points="74.95 16.39 28.15 63.19 27.76 63.19 74.95 16 74.95 16.39"/><polygon class="cls-52" points="74.95 16.79 28.55 63.19 28.15 63.19 74.95 16.39 74.95 16.79"/><polygon class="cls-53" points="74.95 17.18 28.94 63.19 28.55 63.19 74.95 16.79 74.95 17.18"/><polygon class="cls-54" points="74.95 17.57 29.33 63.19 28.94 63.19 74.95 17.18 74.95 17.57"/><polygon class="cls-54" points="74.95 17.97 29.73 63.19 29.33 63.19 74.95 17.57 74.95 17.97"/><polygon class="cls-55" points="74.95 18.36 30.12 63.19 29.73 63.19 74.95 17.97 74.95 18.36"/><polygon class="cls-56" points="74.95 18.76 30.52 63.19 30.12 63.19 74.95 18.36 74.95 18.76"/><polygon class="cls-57" points="74.95 19.15 30.91 63.19 30.52 63.19 74.95 18.76 74.95 19.15"/><polygon class="cls-58" points="74.95 19.54 31.3 63.19 30.91 63.19 74.95 19.15 74.95 19.54"/><polygon class="cls-59" points="74.95 19.94 31.7 63.19 31.3 63.19 74.95 19.54 74.95 19.94"/><polygon class="cls-59" points="74.95 20.33 32.09 63.19 31.7 63.19 74.95 19.94 74.95 20.33"/><polygon class="cls-60" points="74.95 20.73 32.48 63.19 32.09 63.19 74.95 20.33 74.95 20.73"/><polygon class="cls-61" points="74.95 21.12 32.88 63.19 32.48 63.19 74.95 20.73 74.95 21.12"/><polygon class="cls-62" points="74.95 21.51 33.27 63.19 32.88 63.19 74.95 21.12 74.95 21.51"/><polygon class="cls-63" points="74.95 21.91 33.67 63.19 33.27 63.19 74.95 21.51 74.95 21.91"/><polygon class="cls-64" points="74.95 22.3 34.06 63.19 33.67 63.19 74.95 21.91 74.95 22.3"/><polygon class="cls-65" points="74.95 22.7 34.45 63.19 34.06 63.19 74.95 22.3 74.95 22.7"/><polygon class="cls-66" points="74.95 23.09 34.85 63.19 34.45 63.19 74.95 22.7 74.95 23.09"/><polygon class="cls-67" points="74.95 23.48 35.24 63.19 34.85 63.19 74.95 23.09 74.95 23.48"/><polygon class="cls-68" points="74.95 23.88 35.64 63.19 35.24 63.19 74.95 23.48 74.95 23.88"/><polygon class="cls-69" points="74.95 24.27 36.03 63.19 35.64 63.19 74.95 23.88 74.95 24.27"/><polygon class="cls-70" points="74.95 24.66 36.42 63.19 36.03 63.19 74.95 24.27 74.95 24.66"/><polygon class="cls-71" points="74.95 25.06 36.82 63.19 36.42 63.19 74.95 24.66 74.95 25.06"/><polygon class="cls-72" points="74.95 25.45 37.21 63.19 36.82 63.19 74.95 25.06 74.95 25.45"/><polygon class="cls-73" points="74.95 25.85 37.61 63.19 37.21 63.19 74.95 25.45 74.95 25.85"/><polygon class="cls-74" points="74.95 26.24 38 63.19 37.61 63.19 74.95 25.85 74.95 26.24"/><polygon class="cls-75" points="74.95 26.64 38.39 63.19 38 63.19 74.95 26.24 74.95 26.64"/><polygon class="cls-76" points="74.95 27.03 38.79 63.19 38.39 63.19 74.95 26.64 74.95 27.03"/><polygon class="cls-77" points="74.95 27.42 39.18 63.19 38.79 63.19 74.95 27.03 74.95 27.42"/><polygon class="cls-78" points="74.95 27.82 39.58 63.19 39.18 63.19 74.95 27.42 74.95 27.82"/><polygon class="cls-79" points="74.95 28.21 39.97 63.19 39.58 63.19 74.95 27.82 74.95 28.21"/><polygon class="cls-80" points="74.95 28.61 40.36 63.19 39.97 63.19 74.95 28.21 74.95 28.61"/><polygon class="cls-81" points="74.95 29 40.76 63.19 40.36 63.19 74.95 28.61 74.95 29"/><polygon class="cls-82" points="74.95 29.39 41.15 63.19 40.76 63.19 74.95 29 74.95 29.39"/><polygon class="cls-83" points="74.95 29.79 41.55 63.19 41.15 63.19 74.95 29.39 74.95 29.79"/><polygon class="cls-84" points="74.95 30.18 41.94 63.19 41.55 63.19 74.95 29.79 74.95 30.18"/><polygon class="cls-85" points="74.95 30.57 42.33 63.19 41.94 63.19 74.95 30.18 74.95 30.57"/><polygon class="cls-86" points="74.95 30.97 42.73 63.19 42.33 63.19 74.95 30.57 74.95 30.97"/><polygon class="cls-87" points="74.95 31.36 43.12 63.19 42.73 63.19 74.95 30.97 74.95 31.36"/><polygon class="cls-88" points="74.95 31.76 43.52 63.19 43.12 63.19 74.95 31.36 74.95 31.76"/><polygon class="cls-89" points="74.95 32.15 43.91 63.19 43.52 63.19 74.95 31.76 74.95 32.15"/><polygon class="cls-90" points="74.95 32.54 44.3 63.19 43.91 63.19 74.95 32.15 74.95 32.54"/><polygon class="cls-91" points="74.95 32.94 44.7 63.19 44.3 63.19 74.95 32.54 74.95 32.94"/><polygon class="cls-92" points="74.95 33.33 45.09 63.19 44.7 63.19 74.95 32.94 74.95 33.33"/><polygon class="cls-93" points="74.95 33.73 45.48 63.19 45.09 63.19 74.95 33.33 74.95 33.73"/><polygon class="cls-94" points="74.95 34.12 45.88 63.19 45.48 63.19 74.95 33.73 74.95 34.12"/><polygon class="cls-95" points="74.95 34.51 46.27 63.19 45.88 63.19 74.95 34.12 74.95 34.51"/><polygon class="cls-96" points="74.95 34.91 46.67 63.19 46.27 63.19 74.95 34.51 74.95 34.91"/><polygon class="cls-97" points="74.95 35.3 47.06 63.19 46.67 63.19 74.95 34.91 74.95 35.3"/><polygon class="cls-98" points="74.95 35.7 47.45 63.19 47.06 63.19 74.95 35.3 74.95 35.7"/><polygon class="cls-99" points="74.95 36.09 47.85 63.19 47.45 63.19 74.95 35.7 74.95 36.09"/><polygon class="cls-100" points="74.95 36.48 48.24 63.19 47.85 63.19 74.95 36.09 74.95 36.48"/><polygon class="cls-101" points="74.95 36.88 48.64 63.19 48.24 63.19 74.95 36.48 74.95 36.88"/><polygon class="cls-102" points="74.95 37.27 49.03 63.19 48.64 63.19 74.95 36.88 74.95 37.27"/><polygon class="cls-103" points="74.95 37.66 49.42 63.19 49.03 63.19 74.95 37.27 74.95 37.66"/><polygon class="cls-104" points="74.95 38.06 49.82 63.19 49.42 63.19 74.95 37.66 74.95 38.06"/><polygon class="cls-105" points="74.95 38.45 50.21 63.19 49.82 63.19 74.95 38.06 74.95 38.45"/><polygon class="cls-106" points="74.95 38.85 50.61 63.19 50.21 63.19 74.95 38.45 74.95 38.85"/><polygon class="cls-107" points="74.95 39.24 51 63.19 50.61 63.19 74.95 38.85 74.95 39.24"/><polygon class="cls-108" points="74.95 39.63 51.39 63.19 51 63.19 74.95 39.24 74.95 39.63"/><polygon class="cls-109" points="74.95 40.03 51.79 63.19 51.39 63.19 74.95 39.63 74.95 40.03"/><polygon class="cls-110" points="74.95 40.42 52.18 63.19 51.79 63.19 74.95 40.03 74.95 40.42"/><polygon class="cls-111" points="74.95 40.82 52.58 63.19 52.18 63.19 74.95 40.42 74.95 40.82"/><polygon class="cls-112" points="74.95 41.21 52.97 63.19 52.58 63.19 74.95 40.82 74.95 41.21"/><polygon class="cls-113" points="74.95 41.6 53.36 63.19 52.97 63.19 74.95 41.21 74.95 41.6"/><polygon class="cls-114" points="74.95 42 53.76 63.19 53.36 63.19 74.95 41.6 74.95 42"/><polygon class="cls-115" points="74.95 42.39 54.15 63.19 53.76 63.19 74.95 42 74.95 42.39"/><polygon class="cls-116" points="74.95 42.79 54.55 63.19 54.15 63.19 74.95 42.39 74.95 42.79"/><polygon class="cls-117" points="74.95 43.18 54.94 63.19 54.55 63.19 74.95 42.79 74.95 43.18"/><polygon class="cls-118" points="74.95 43.57 55.33 63.19 54.94 63.19 74.95 43.18 74.95 43.57"/><polygon class="cls-119" points="74.95 43.97 55.73 63.19 55.33 63.19 74.95 43.57 74.95 43.97"/><polygon class="cls-120" points="74.95 44.36 56.12 63.19 55.73 63.19 74.95 43.97 74.95 44.36"/><polygon class="cls-121" points="74.95 44.76 56.52 63.19 56.12 63.19 74.95 44.36 74.95 44.76"/><polygon class="cls-122" points="74.95 45.15 56.91 63.19 56.52 63.19 74.95 44.76 74.95 45.15"/><polygon class="cls-123" points="74.95 45.54 57.3 63.19 56.91 63.19 74.95 45.15 74.95 45.54"/><polygon class="cls-124" points="74.95 45.94 57.7 63.19 57.3 63.19 74.95 45.54 74.95 45.94"/><polygon class="cls-125" points="74.95 46.33 58.09 63.19 57.7 63.19 74.95 45.94 74.95 46.33"/><polygon class="cls-126" points="74.95 46.73 58.48 63.19 58.09 63.19 74.95 46.33 74.95 46.73"/><polygon class="cls-127" points="74.95 47.12 58.88 63.19 58.48 63.19 74.95 46.73 74.95 47.12"/><polygon class="cls-128" points="74.95 47.51 59.27 63.19 58.88 63.19 74.95 47.12 74.95 47.51"/><polygon class="cls-129" points="74.95 47.91 59.67 63.19 59.27 63.19 74.95 47.51 74.95 47.91"/><polygon class="cls-130" points="74.95 48.3 60.06 63.19 59.67 63.19 74.95 47.91 74.95 48.3"/><polygon class="cls-131" points="74.95 48.7 60.45 63.19 60.06 63.19 74.95 48.3 74.95 48.7"/><polygon class="cls-132" points="74.95 49.09 60.85 63.19 60.45 63.19 74.95 48.7 74.95 49.09"/><polygon class="cls-133" points="74.95 49.48 61.24 63.19 60.85 63.19 74.95 49.09 74.95 49.48"/><polygon class="cls-134" points="74.95 49.88 61.64 63.19 61.24 63.19 74.95 49.48 74.95 49.88"/><polygon class="cls-135" points="74.95 50.27 62.03 63.19 61.64 63.19 74.95 49.88 74.95 50.27"/><polygon class="cls-136" points="74.95 50.66 62.42 63.19 62.03 63.19 74.95 50.27 74.95 50.66"/><polygon class="cls-137" points="74.95 51.06 62.82 63.19 62.42 63.19 74.95 50.66 74.95 51.06"/><polygon class="cls-138" points="74.95 51.45 63.21 63.19 62.82 63.19 74.95 51.06 74.95 51.45"/><polygon class="cls-139" points="74.95 51.85 63.6 63.19 63.21 63.19 74.95 51.45 74.95 51.85"/><polygon class="cls-140" points="74.95 52.24 64 63.19 63.6 63.19 74.95 51.85 74.95 52.24"/><polygon class="cls-141" points="74.95 52.63 64.39 63.19 64 63.19 74.95 52.24 74.95 52.63"/><polygon class="cls-142" points="74.95 53.03 64.79 63.19 64.39 63.19 74.95 52.63 74.95 53.03"/><polygon class="cls-143" points="74.95 53.42 65.18 63.19 64.79 63.19 74.95 53.03 74.95 53.42"/><polygon class="cls-144" points="74.95 53.82 65.58 63.19 65.18 63.19 74.95 53.42 74.95 53.82"/><polygon class="cls-145" points="74.95 54.21 65.97 63.19 65.58 63.19 74.95 53.82 74.95 54.21"/><polygon class="cls-146" points="74.95 54.6 66.36 63.19 65.97 63.19 74.95 54.21 74.95 54.6"/><polygon class="cls-147" points="74.95 55 66.76 63.19 66.36 63.19 74.95 54.6 74.95 55"/><polygon class="cls-148" points="74.95 55.39 67.15 63.19 66.76 63.19 74.95 55 74.95 55.39"/><polygon class="cls-149" points="74.95 55.79 67.55 63.19 67.15 63.19 74.95 55.39 74.95 55.79"/><polygon class="cls-150" points="74.95 56.18 67.94 63.19 67.55 63.19 74.95 55.79 74.95 56.18"/><polygon class="cls-151" points="74.95 56.57 68.33 63.19 67.94 63.19 74.95 56.18 74.95 56.57"/><polygon class="cls-152" points="74.95 56.97 68.73 63.19 68.33 63.19 74.95 56.57 74.95 56.97"/><polygon class="cls-153" points="74.95 57.36 69.12 63.19 68.73 63.19 74.95 56.97 74.95 57.36"/><polygon class="cls-154" points="74.95 57.76 69.51 63.19 69.12 63.19 74.95 57.36 74.95 57.76"/><polygon class="cls-155" points="74.95 58.15 69.91 63.19 69.51 63.19 74.95 57.76 74.95 58.15"/><polygon class="cls-156" points="74.95 58.54 70.3 63.19 69.91 63.19 74.95 58.15 74.95 58.54"/><polygon class="cls-157" points="74.95 58.94 70.7 63.19 70.3 63.19 74.95 58.54 74.95 58.94"/><polygon class="cls-157" points="70.7 63.19 74.95 58.94 74.95 63.19 70.7 63.19"/></g></g><g class="cls-158"><g class="cls-3"><g id="path3005" class="cls-159"><path class="cls-160" d="M49.9,38.19A16.61,16.61,0,1,1,33.29,21.57,16.61,16.61,0,0,1,49.9,38.19Z"/></g></g></g><g class="cls-3"><g id="path3785" class="cls-159"><path class="cls-160" d="M45.4,16.72a7.93,7.93,0,0,1-15.85,0h0a7.93,7.93,0,1,1,15.85,0Z"/></g></g><rect class="cls-1" x="24.95" y="13.29" width="50" height="49.9" rx="7.26" ry="7.26"/><g id="path3799" class="cls-161"><path class="cls-160" d="M70.86,32.52a8,8,0,1,1-8-8A8,8,0,0,1,70.86,32.52Z"/></g><g class="cls-3"><g id="path3801" class="cls-159"><path class="cls-160" d="M54.19,18.1a7.87,7.87,0,0,1-15.74,0h0a7.87,7.87,0,1,1,15.74,0Z"/></g></g><g class="cls-162"><g class="cls-3"><g id="path3803" class="cls-159"><path class="cls-160" d="M35.28,55.83a8.08,8.08,0,1,1-8.08-8.08A8.08,8.08,0,0,1,35.28,55.83Z"/></g></g></g><g class="cls-3"><g id="path3805" class="cls-159"><path class="cls-160" d="M79.35,18.3a8,8,0,1,1-8-8A8,8,0,0,1,79.35,18.3Z"/></g></g><g class="cls-3"><g id="path3807" class="cls-159"><path class="cls-160" d="M70.45,15.54a8,8,0,1,1-8-8,8,8,0,0,1,8,8Z"/></g></g><g class="cls-163"><g class="cls-3"><g id="path3809" class="cls-159"><path class="cls-160" d="M77.3,16.36A8.28,8.28,0,1,1,69,8.08,8.28,8.28,0,0,1,77.3,16.36Z"/></g></g></g><g class="cls-3"><g id="path3815" class="cls-159"><path class="cls-160" d="M39.26,25.87A19.63,19.63,0,1,1,19.63,6.24,19.63,19.63,0,0,1,39.26,25.87Z"/></g></g><g class="cls-162"><g class="cls-3"><g id="path3823" class="cls-159"><path class="cls-160" d="M63.29,36a7.93,7.93,0,1,1-15.85,0h0a7.93,7.93,0,0,1,15.85,0Z"/></g></g></g><g class="cls-3"><g id="path3829" class="cls-159"><path class="cls-160" d="M63.29,8a8,8,0,1,1-8-8A8,8,0,0,1,63.29,8Z"/></g></g><g class="cls-3"><g id="path3829-1" class="cls-159"><path class="cls-160" d="M53.46,9.57a8,8,0,1,1-8-8A8,8,0,0,1,53.46,9.57Z"/></g></g><g class="cls-3"><g id="path3829-7" class="cls-159"><path class="cls-160" d="M61.77,12a8,8,0,1,1-8-8A8,8,0,0,1,61.77,12Z"/></g></g><g class="cls-3"><g id="path3829-7-4" class="cls-159"><path class="cls-160" d="M45.87,9.71a8,8,0,1,1-8-8A8,8,0,0,1,45.87,9.71Z"/></g></g><rect class="cls-1" x="24.95" y="13.29" width="50" height="49.9" rx="7.26" ry="7.26"/><g id="path3827" class="cls-159"><path class="cls-160" d="M63.29,25.1a7.93,7.93,0,1,1-15.85,0h0a7.93,7.93,0,0,1,15.85,0Z"/></g><g class="cls-162"><g class="cls-3"><g id="path3799-0" class="cls-159"><path class="cls-160" d="M84.38,34.83a8,8,0,1,1-8-8A8,8,0,0,1,84.38,34.83Z"/></g></g></g><g class="cls-3"><g id="path3799-4" class="cls-159"><path class="cls-160" d="M84.52,24.44a8,8,0,1,1-8-8A8,8,0,0,1,84.52,24.44Z"/></g></g><g id="layer7"><g id="path3996"><path class="cls-164" d="M37.93,16.79a.46.46,0,0,1-.92,0h0a.47.47,0,0,1,.46-.46.46.46,0,0,1,.46.46Z"/></g><g id="path3996-8"><path class="cls-164" d="M46.68,18a.45.45,0,0,1-.46.46.46.46,0,0,1-.46-.46h0a.47.47,0,0,1,.46-.46.46.46,0,0,1,.46.46Z"/></g><g id="path3996-4"><path class="cls-164" d="M33.74,38.27a.46.46,0,0,1-.46.46.47.47,0,0,1-.46-.46h0a.46.46,0,0,1,.92,0Z"/></g><g id="path3996-5"><path class="cls-164" d="M63.31,32.7a.46.46,0,0,1-.92,0h0a.47.47,0,0,1,.46-.46.46.46,0,0,1,.46.46Z"/></g><g id="path3996-7"><path class="cls-164" d="M63,15.49a.45.45,0,0,1-.46.46.46.46,0,0,1-.46-.46h0a.46.46,0,1,1,.92,0Z"/></g><g id="path3996-52"><path class="cls-164" d="M69.31,16.36a.46.46,0,0,1-.92,0h0a.47.47,0,0,1,.46-.46.46.46,0,0,1,.46.46Z"/></g><g id="path3996-6"><path class="cls-164" d="M71.84,18.17a.46.46,0,0,1-.46.46.47.47,0,0,1-.46-.46h0a.46.46,0,0,1,.46-.46.45.45,0,0,1,.46.46Z"/></g><g id="path3996-4-1"><path class="cls-164" d="M27.63,56a.47.47,0,0,1-.46.46.45.45,0,0,1-.46-.46h0a.46.46,0,0,1,.46-.46.47.47,0,0,1,.46.46Z"/></g></g><g id="layer8"><g class="cls-3"><g id="path4074"><polygon class="cls-164" points="33.41 38.49 33.21 38.45 37.41 16.76 37.61 16.8 33.41 38.49"/></g></g><g class="cls-3"><g id="path4076"><polygon class="cls-164" points="55.16 25.18 46.19 18.02 46.32 17.86 55.28 25.02 55.16 25.18"/></g></g><g class="cls-3"><g id="path4078"><polygon class="cls-164" points="62.74 32.76 52.83 22.42 52.98 22.28 62.88 32.62 62.74 32.76"/></g></g><g class="cls-3"><g id="path4109"><polygon class="cls-164" points="46.31 18.18 37.49 16.95 37.52 16.75 46.34 17.98 46.31 18.18"/></g></g><g class="cls-3"><g id="path4111"><polygon class="cls-164" points="33.38 38.33 33.24 38.18 50.89 21.77 51.02 21.92 33.38 38.33"/></g></g><g class="cls-3"><g id="path4135"><polygon class="cls-164" points="27.26 56 27.07 55.94 33.29 37.93 33.48 38 27.26 56"/></g></g><g class="cls-3"><g id="path4137"><rect class="cls-164" x="56.72" y="34.03" width="6.4" height="0.2" transform="translate(-8.85 29.06) rotate(-25.45)"/></g></g><g class="cls-3"><g id="path4139"><polygon class="cls-164" points="21.87 46 21.76 45.84 33.3 38.16 56.87 35.84 56.89 36.04 33.35 38.35 21.87 46"/></g></g><g class="cls-3"><g id="path4141"><polygon class="cls-164" points="33.1 38.33 20.52 26.62 20.66 26.47 33.24 38.18 33.1 38.33"/></g></g><g class="cls-3"><g id="path4143"><polygon class="cls-164" points="19.98 26.27 19.89 26.09 37.53 16.77 37.63 16.95 19.98 26.27"/></g></g><g class="cls-3"><g id="path4145"><rect class="cls-164" x="47.2" y="17.83" width="0.2" height="6.29" transform="translate(-4.29 16.97) rotate(-19.48)"/></g></g><g class="cls-3"><g id="path4147"><rect class="cls-164" x="41.89" y="14.53" width="0.2" height="10.79" transform="translate(2.07 43.74) rotate(-56.2)"/></g></g><g class="cls-3"><g id="path4149"><polygon class="cls-164" points="76.9 34.89 62.73 32.72 62.76 32.52 76.93 34.69 76.9 34.89"/></g></g><g class="cls-3"><g id="path4151"><rect class="cls-164" x="73.63" y="17.6" width="0.2" height="7.18" transform="translate(3.68 52.47) rotate(-40.1)"/></g></g><g class="cls-3"><g id="path4153"><polygon class="cls-164" points="71.35 18.52 68.82 16.43 68.95 16.27 71.48 18.37 71.35 18.52"/></g></g><g class="cls-3"><g id="path4155"><rect class="cls-164" x="54.19" y="19.79" width="10.59" height="0.2" transform="matrix(0.57, -0.82, 0.82, 0.57, 9.08, 57.22)"/></g></g><g class="cls-3"><g id="path4157"><polygon class="cls-164" points="56.58 24.82 56.47 24.65 68.83 16.27 68.94 16.43 56.58 24.82"/></g></g><g class="cls-3"><g id="path4159"><rect class="cls-164" x="36.97" y="11.18" width="0.2" height="5.63" transform="translate(-1.71 5.88) rotate(-8.86)"/></g></g><g class="cls-3"><g id="path4161"><rect class="cls-164" x="65.68" y="12.78" width="0.2" height="6.42" transform="matrix(0.14, -0.99, 0.99, 0.14, 41.05, 79)"/></g></g><g class="cls-3"><g id="path4163"><rect class="cls-164" x="35.26" y="13.68" width="6.52" height="0.2" transform="translate(12.68 45.5) rotate(-70.51)"/></g></g><g class="cls-3"><g id="path4165"><rect class="cls-164" x="43.44" y="10.69" width="0.2" height="8.51" transform="translate(0.84 32.13) rotate(-40.86)"/></g></g><g class="cls-3"><g id="path4167"><polygon class="cls-164" points="51.15 22.58 51.05 22.41 62.47 15.39 62.58 15.57 51.15 22.58"/></g></g><g class="cls-3"><g id="path4169"><rect class="cls-164" x="70.45" y="16.43" width="3.96" height="0.2" transform="translate(21.17 70.3) rotate(-59.23)"/></g></g><g class="cls-3"><g id="path4173"><polygon class="cls-164" points="46.26 18.08 46.11 17.94 51.9 12.08 52.04 12.23 46.26 18.08"/></g></g><g class="cls-3"><g id="path4175"><polygon class="cls-164" points="62.62 15.51 62.43 15.45 63.37 12.13 63.56 12.18 62.62 15.51"/></g></g><g class="cls-3"><g id="path4177"><rect class="cls-164" x="71.4" y="17.98" width="4.02" height="0.2" transform="translate(-1.85 10.82) rotate(-8.33)"/></g></g><g class="cls-3"><g id="path4179"><polygon class="cls-164" points="46.34 17.99 46.17 17.89 50 11.16 50.17 11.27 46.34 17.99"/></g></g><g class="cls-3"><g id="path4181"><rect class="cls-164" x="62.21" y="14.01" width="7.05" height="0.2" transform="translate(0 28.21) rotate(-24.22)"/></g></g><g class="cls-3"><g id="path4183"><polygon class="cls-164" points="46.09 18.05 42.98 10.97 43.17 10.89 46.28 17.97 46.09 18.05"/></g></g><g class="cls-3"><g id="path4185"><polygon class="cls-164" points="68.91 16.44 60.09 11.16 60.19 10.98 69.01 16.26 68.91 16.44"/></g></g><g class="cls-3"><g id="path4187"><rect class="cls-164" x="44.94" y="14.4" width="11.59" height="0.2" transform="translate(1.87 34.43) rotate(-38.14)"/></g></g><g class="cls-3"><g id="path4189"><polygon class="cls-164" points="49.89 21.6 49.7 21.51 53.97 11.68 54.16 11.76 49.89 21.6"/></g></g><g class="cls-3"><g id="path4191"><rect class="cls-164" x="73.88" y="16.38" width="0.2" height="5.3" transform="translate(37.36 86.06) rotate(-75.78)"/></g></g><g class="cls-3"><g id="path4193"><rect class="cls-164" x="66.9" y="10.46" width="0.2" height="6.65" transform="translate(5.45 43.63) rotate(-37.49)"/></g></g><g class="cls-3"><g id="path4195"><rect class="cls-164" x="68.21" y="9.33" width="0.2" height="10.28" transform="translate(6.28 46.53) rotate(-39.29)"/></g></g><g class="cls-3"><g id="path4197"><rect class="cls-164" x="72.22" y="13.02" width="0.2" height="6.87" transform="translate(55.1 88.6) rotate(-89.4)"/></g></g><g class="cls-3"><g id="path4199"><polygon class="cls-164" points="62.41 15.72 54.82 12.39 54.9 12.21 62.49 15.53 62.41 15.72"/></g></g><g class="cls-3"><g id="path4201"><rect class="cls-164" x="68.11" y="14.44" width="5.74" height="0.2" transform="translate(7.81 50.03) rotate(-40.9)"/></g></g><g class="cls-3"><g id="path4203"><rect class="cls-164" x="60.76" y="11.03" width="0.2" height="5.15" transform="translate(4.6 40.51) rotate(-38.16)"/></g></g></g><g id="layer3"><g id="rect2887"><path class="cls-164" d="M40.49,20.76V56.34h4.2V45.5h8.79A5.51,5.51,0,0,0,59,40V26.28a5.51,5.51,0,0,0-5.52-5.52Zm4.2,4h8.89A1.23,1.23,0,0,1,54.81,26V40.08a1.23,1.23,0,0,1-1.23,1.23H44.69V24.79Z"/></g></g><g id="layer5"><g id="path3918"><path class="cls-164" d="M56.34,50.4a3.29,3.29,0,1,0,3.29,3.29A3.29,3.29,0,0,0,56.34,50.4Zm-1,1.81,2.53,1.52-2.53,1.44Z"/></g><g id="path3918-1"><path class="cls-164" d="M63.57,50.4a3.29,3.29,0,1,0,3.29,3.29A3.29,3.29,0,0,0,63.57,50.4Zm-1.12,2.17h2.32v2.32H62.45Z"/></g></g></g></g></g></svg>