<svg xmlns="http://www.w3.org/2000/svg" xmlns:xlink="http://www.w3.org/1999/xlink" viewBox="0 0 52 52"><defs><style>.cls-1{fill:url(#Orange_Yellow);}.cls-2{fill:url(#Orange_Yellow-2);}.cls-3{opacity:0.83;}.cls-4{fill:none;stroke-miterlimit:10;stroke-width:2px;stroke:url(#Orange_Yellow-3);}</style><linearGradient id="Orange_Yellow" x1="19.15" y1="37.32" x2="19.15" y2="14.48" gradientUnits="userSpaceOnUse"><stop offset="0" stop-color="#fff33b"/><stop offset="0.04" stop-color="#fee72e"/><stop offset="0.12" stop-color="#fed51b"/><stop offset="0.2" stop-color="#fdca10"/><stop offset="0.28" stop-color="#fdc70c"/><stop offset="0.67" stop-color="#f3903f"/><stop offset="0.89" stop-color="#ed683c"/><stop offset="1" stop-color="#e93e3a"/></linearGradient><linearGradient id="Orange_Yellow-2" x1="34.38" y1="37.52" x2="34.38" y2="19.87" xlink:href="#Orange_Yellow"/><linearGradient id="Orange_Yellow-3" x1="26" y1="52" x2="26" y2="0" xlink:href="#Orange_Yellow"/></defs><title>ps</title><g id="Layer_2" data-name="Layer 2"><g id="Layer_1-2" data-name="Layer 1"><path class="cls-1" d="M24.5,16.6a8.1,8.1,0,0,1,2,5.84,8.07,8.07,0,0,1-2,5.84,7.39,7.39,0,0,1-5.6,2.12H14.38v6.92H11.77V14.48H18.9A7.42,7.42,0,0,1,24.5,16.6Zm-1.88,9.64a5.17,5.17,0,0,0,1.3-3.8,5.18,5.18,0,0,0-1.3-3.8,5.12,5.12,0,0,0-3.79-1.32H14.38V27.57h4.45A5.09,5.09,0,0,0,22.62,26.24Z"/><path class="cls-2" d="M31,36.94a6.6,6.6,0,0,1-2.46-1.45L29.57,33a6.94,6.94,0,0,0,2.22,1.31,7.39,7.39,0,0,0,2.64.49c2.19,0,3.29-.79,3.29-2.35a1.72,1.72,0,0,0-.44-1.24,2.71,2.71,0,0,0-1.11-.67c-.45-.14-1.08-.3-1.9-.47a16.18,16.18,0,0,1-2.73-.75,4.18,4.18,0,0,1-1.82-1.44A4.68,4.68,0,0,1,29,25.05a4.83,4.83,0,0,1,1.56-3.76,6,6,0,0,1,4.21-1.42,9.45,9.45,0,0,1,2.77.42,6.86,6.86,0,0,1,2.28,1.14l-1.08,2.48a6.17,6.17,0,0,0-4-1.37,3.89,3.89,0,0,0-2.43.65,2.1,2.1,0,0,0-.84,1.73,1.85,1.85,0,0,0,.47,1.34,2.72,2.72,0,0,0,1.16.72c.46.15,1.11.33,2,.52a17.72,17.72,0,0,1,2.7.77,4,4,0,0,1,1.77,1.38,4.51,4.51,0,0,1,.73,2.74,4.67,4.67,0,0,1-1.61,3.74,6.49,6.49,0,0,1-4.37,1.39A9.46,9.46,0,0,1,31,36.94Z"/><g class="cls-3"><path class="cls-4" d="M40,51H12A11,11,0,0,1,1,40V12A11,11,0,0,1,12,1H40A11,11,0,0,1,51,12V40A11,11,0,0,1,40,51Z"/></g></g></g></svg>