<svg xmlns="http://www.w3.org/2000/svg" viewBox="0 0 51 51"><defs><style>.cls-1{fill:#39c5ee;}.cls-2{fill:none;stroke:#39c5ee;stroke-miterlimit:10;}</style></defs><title>ps0</title><g id="Layer_2" data-name="Layer 2"><g id="Layer_1-2" data-name="Layer 1"><path class="cls-1" d="M24,16.1a8.1,8.1,0,0,1,2,5.84,8.07,8.07,0,0,1-2,5.84,7.39,7.39,0,0,1-5.6,2.12H13.88v6.92H11.27V14H18.4A7.42,7.42,0,0,1,24,16.1Zm-1.88,9.64a5.17,5.17,0,0,0,1.3-3.8,5.18,5.18,0,0,0-1.3-3.8,5.12,5.12,0,0,0-3.79-1.32H13.88V27.07h4.45A5.09,5.09,0,0,0,22.12,25.74Z"/><path class="cls-1" d="M30.48,36.44A6.6,6.6,0,0,1,28,35l1.05-2.48a6.94,6.94,0,0,0,2.22,1.31,7.39,7.39,0,0,0,2.64.49c2.19,0,3.29-.79,3.29-2.35a1.72,1.72,0,0,0-.44-1.24,2.71,2.71,0,0,0-1.11-.67c-.45-.14-1.08-.3-1.9-.47A16.18,16.18,0,0,1,31,28.83a4.18,4.18,0,0,1-1.82-1.44,4.68,4.68,0,0,1-.75-2.84A4.83,4.83,0,0,1,30,20.79a6,6,0,0,1,4.21-1.42,9.45,9.45,0,0,1,2.77.42,6.86,6.86,0,0,1,2.28,1.14l-1.08,2.48a6.17,6.17,0,0,0-4-1.37,3.89,3.89,0,0,0-2.43.65A2.1,2.1,0,0,0,31,24.42a1.85,1.85,0,0,0,.47,1.34,2.72,2.72,0,0,0,1.16.72c.46.15,1.11.33,2,.52a17.72,17.72,0,0,1,2.7.77A4,4,0,0,1,39,29.15a4.51,4.51,0,0,1,.73,2.74,4.67,4.67,0,0,1-1.61,3.74A6.49,6.49,0,0,1,33.75,37,9.46,9.46,0,0,1,30.48,36.44Z"/><path class="cls-2" d="M39.48,50.5h-28a11,11,0,0,1-11-11v-28a11,11,0,0,1,11-11h28a11,11,0,0,1,11,11v28A11,11,0,0,1,39.48,50.5Z"/></g></g></svg>