<svg xmlns="http://www.w3.org/2000/svg" xmlns:xlink="http://www.w3.org/1999/xlink" viewBox="0 0 50 49.74"><defs><style>.cls-1{fill:url(#linear-gradient);}.cls-2{fill:url(#linear-gradient-2);}</style><linearGradient id="linear-gradient" x1="49.63" y1="-79.12" x2="74.35" y2="-103.92" gradientTransform="matrix(1, 0, 0, -1, -44.94, -74.65)" gradientUnits="userSpaceOnUse"><stop offset="0" stop-color="#ffd03f"/><stop offset="1" stop-color="#f28021"/></linearGradient><linearGradient id="linear-gradient-2" x1="64.83" y1="-94.91" x2="91.38" y2="-120.35" gradientTransform="matrix(1, 0, 0, -1, -44.94, -74.65)" gradientUnits="userSpaceOnUse"><stop offset="0" stop-color="#fee053"/><stop offset="1" stop-color="#ffc433"/></linearGradient></defs><title>python</title><g id="Layer_2" data-name="Layer 2"><g id="Layer_1-2" data-name="Layer 1"><path id="path8615" class="cls-1" d="M24.82,0c-12.69,0-11.9,5.5-11.9,5.5v5.71H25.05v1.71H8.12S0,12,0,24.81,7.09,37.16,7.09,37.16h4.23V31.22s-.23-7.09,7-7.09h12s6.75.11,6.75-6.53v-11S38.08,0,24.82,0ZM18.14,3.83A2.18,2.18,0,1,1,16,6,2.18,2.18,0,0,1,18.14,3.83Z"/><path id="path8620" class="cls-2" d="M25.18,49.74c12.69,0,11.9-5.5,11.9-5.5V38.53H25V36.82H41.88S50,37.74,50,24.93s-7.09-12.35-7.09-12.35H38.68v5.94s.23,7.09-7,7.09h-12s-6.75-.11-6.75,6.53v11S11.92,49.74,25.18,49.74Zm6.68-3.84A2.18,2.18,0,1,1,34,43.73,2.17,2.17,0,0,1,31.86,45.9Z"/></g></g></svg>