<svg xmlns="http://www.w3.org/2000/svg" xmlns:xlink="http://www.w3.org/1999/xlink" viewBox="0 0 52 52"><defs><style>.cls-1{fill:url(#Orange_Yellow);}.cls-2{opacity:0.83;}.cls-3{fill:none;stroke-miterlimit:10;stroke-width:2px;stroke:url(#Orange_Yellow-2);}</style><linearGradient id="Orange_Yellow" x1="-2.69" y1="320.81" x2="-1.82" y2="319.84" gradientTransform="matrix(39.62, 0, 0, -35.5, 115.86, 11400.1)" gradientUnits="userSpaceOnUse"><stop offset="0" stop-color="#fff33b"/><stop offset="0.04" stop-color="#fee72e"/><stop offset="0.12" stop-color="#fed51b"/><stop offset="0.2" stop-color="#fdca10"/><stop offset="0.28" stop-color="#fdc70c"/><stop offset="0.67" stop-color="#f3903f"/><stop offset="0.89" stop-color="#ed683c"/><stop offset="1" stop-color="#e93e3a"/></linearGradient><linearGradient id="Orange_Yellow-2" x1="26" y1="52" x2="26" y2="0" gradientTransform="matrix(1, 0, 0, 1, 0, 0)" xlink:href="#Orange_Yellow"/></defs><title>swift</title><g id="Layer_2" data-name="Layer 2"><g id="Layer_1-2" data-name="Layer 1"><path class="cls-1" d="M35.68,40.81C30.73,43.66,23.93,44,17.09,41A29,29,0,0,1,4,29.82a21.89,21.89,0,0,0,4.83,3c7.07,3.31,14.14,3.09,19.11,0h0c-7.07-5.42-13.08-12.5-17.56-18.27A19.83,19.83,0,0,1,8,11.32a136.19,136.19,0,0,0,17.09,13,124.28,124.28,0,0,1-12-15.09,119.06,119.06,0,0,0,19.8,16.27c.32.18.56.33.76.46a13.69,13.69,0,0,0,.54-1.64c1.65-6-.23-12.85-4.36-18.51C39.37,11.55,45,22.4,42.67,31.48c-.06.24-.13.48-.2.72l.08.1c4.72,5.9,3.42,12.14,2.83,11-2.56-5-7.29-3.48-9.7-2.46Z"/><g class="cls-2"><path class="cls-3" d="M40,51H12A11,11,0,0,1,1,40V12A11,11,0,0,1,12,1H40A11,11,0,0,1,51,12V40A11,11,0,0,1,40,51Z"/></g></g></g></svg>