<svg xmlns="http://www.w3.org/2000/svg" xmlns:xlink="http://www.w3.org/1999/xlink" viewBox="0 0 51 51"><defs><style>.cls-1{fill:url(#linear-gradient);}.cls-2{opacity:0.83;}.cls-3{fill:none;stroke-miterlimit:10;stroke:url(#linear-gradient-2);}</style><linearGradient id="linear-gradient" x1="3.5" y1="24.09" x2="45.5" y2="24.09" gradientUnits="userSpaceOnUse"><stop offset="0" stop-color="#f68a38"/><stop offset="1" stop-color="#ee2e2b"/></linearGradient><linearGradient id="linear-gradient-2" x1="0" y1="25.5" x2="51" y2="25.5" xlink:href="#linear-gradient"/></defs><title>swift0</title><g id="Layer_2" data-name="Layer 2"><g id="Layer_1-2" data-name="Layer 1"><path class="cls-1" d="M35.18,40.31c-4.95,2.85-11.75,3.15-18.59.21A29,29,0,0,1,3.5,29.32a21.89,21.89,0,0,0,4.83,3c7.07,3.31,14.14,3.09,19.11,0h0C20.36,26.85,14.35,19.77,9.87,14a19.83,19.83,0,0,1-2.36-3.18,136.19,136.19,0,0,0,17.09,13,124.28,124.28,0,0,1-12-15.09A119.06,119.06,0,0,0,32.38,25c.32.18.56.33.76.46a13.69,13.69,0,0,0,.54-1.64c1.65-6-.23-12.85-4.36-18.51C38.87,11.05,44.53,21.9,42.17,31c-.06.24-.13.48-.2.72l.08.1c4.72,5.9,3.42,12.14,2.83,11-2.56-5-7.29-3.48-9.7-2.46Z"/><g class="cls-2"><path class="cls-3" d="M39.48,50.5h-28a11,11,0,0,1-11-11v-28a11,11,0,0,1,11-11h28a11,11,0,0,1,11,11v28A11,11,0,0,1,39.48,50.5Z"/></g></g></g></svg>