<svg xmlns="http://www.w3.org/2000/svg" xmlns:xlink="http://www.w3.org/1999/xlink" viewBox="0 0 744.32 397.36"><defs><linearGradient id="linear-gradient" x1="591.77" y1="302.65" x2="726.15" y2="302.65" gradientUnits="userSpaceOnUse"><stop offset="0" stop-color="#f16b90"/><stop offset="1" stop-color="#f89e71"/></linearGradient><linearGradient id="linear-gradient-2" x1="604.13" y1="283.83" x2="713.78" y2="283.83" gradientUnits="userSpaceOnUse"><stop offset="0" stop-color="#bc79b3"/><stop offset="1" stop-color="#7379ba"/></linearGradient><linearGradient id="linear-gradient-3" x1="597.68" y1="267.17" x2="720.23" y2="267.17" gradientUnits="userSpaceOnUse"><stop offset="0" stop-color="#69cef4"/><stop offset="1" stop-color="#7379ba"/></linearGradient><linearGradient id="linear-gradient-4" x1="257.63" y1="312.06" x2="486.46" y2="83.22" gradientUnits="userSpaceOnUse"><stop offset="0" stop-color="#f89e71"/><stop offset="1" stop-color="#f16b90"/></linearGradient></defs><title>visual</title><g id="Layer_2" data-name="Layer 2"><g id="Layer_1-2" data-name="Layer 1"><rect width="744.32" height="397.36" style="fill:none"/><g id="Workspace4"><rect x="610.28" y="50.62" width="34.5" height="34.5" transform="translate(-3.45 51.51) rotate(-4.69)" style="fill:#271f3e"/><path d="M647.74,85l-37.37,3.06-3.06-37.37,37.37-3.07Zm-34.63-.17,31.4-2.58-2.58-31.39-31.39,2.57Z" style="fill:#cdd0e0"/><rect x="611.17" y="72.59" width="34.5" height="12.5" transform="translate(-4.34 51.62) rotate(-4.69)" style="fill:#fff"/><path d="M647.74,85l-37.37,3.06L609.1,72.64l37.38-3.06Zm-34.63-.17,31.4-2.58-.78-9.47-31.39,2.58Z" style="fill:#cdd0e0"/><rect x="669.14" y="50.15" width="34.5" height="34.5" style="fill:#5e4b8b"/><path d="M705.14,86.15h-37.5V48.65h37.5Zm-34.5-3h31.5V51.65h-31.5Z" style="fill:#cdd0e0"/><rect x="669.14" y="72.15" width="34.5" height="12.5" style="fill:#fff"/><path d="M705.14,86.15h-37.5V70.65h37.5Zm-34.5-3h31.5v-9.5h-31.5Z" style="fill:#cdd0e0"/><rect x="610.27" y="104.62" width="34.5" height="34.5" transform="translate(467.14 740.67) rotate(-86.46)" style="fill:#7379ba"/><path d="M645.08,141.74l-37.43-2.32L610,102l37.43,2.31Zm-34.25-5.13,31.44,1.95,2-31.44-31.44-1.94Z" style="fill:#cdd0e0"/><rect x="620.6" y="115.6" width="12.5" height="34.5" transform="translate(455.55 750.29) rotate(-86.46)" style="fill:#fff"/><path d="M645.08,141.74l-37.43-2.32,1-15.46L646,126.27Zm-34.25-5.13,31.44,1.95.59-9.48-31.44-1.94Z" style="fill:#cdd0e0"/><rect x="669.21" y="161.15" width="34.5" height="34.5" transform="translate(415.37 833.81) rotate(-82.1)" style="fill:#f89e71"/><path d="M702.45,199.54l-37.14-5.15,5.15-37.14,37.15,5.15Zm-33.76-7.71,31.2,4.33,4.33-31.2L673,160.63Z" style="fill:#cdd0e0"/><rect x="678.56" y="173.03" width="12.5" height="34.5" transform="translate(402.18 842.42) rotate(-82.1)" style="fill:#fff"/><path d="M702.31,200.53l-37.14-5.15L667.3,180l37.14,5.15Zm-33.75-7.71,31.19,4.33,1.31-9.41-31.2-4.33Z" style="fill:#cdd0e0"/><rect x="610.27" y="158.12" width="34.5" height="34.5" style="fill:#f16b90"/><path d="M646.27,194.12h-37.5v-37.5h37.5Zm-34.5-3h31.5v-31.5h-31.5Z" style="fill:#cdd0e0"/><rect x="610.27" y="181.12" width="34.5" height="12.5" style="fill:#fff"/><path d="M646.27,195.12h-37.5v-15.5h37.5Zm-34.5-3h31.5v-9.5h-31.5Z" style="fill:#cdd0e0"/><rect x="669.09" y="102.63" width="34.5" height="34.5" transform="translate(-8.62 70.23) rotate(-5.82)" style="fill:#bc79b3"/><path d="M706.89,136.63l-37.3,3.8-3.81-37.31,37.31-3.8Zm-34.62.51L703.6,134l-3.19-31.34-31.34,3.19Z" style="fill:#cdd0e0"/><rect x="670.31" y="125.56" width="34.5" height="12.5" transform="translate(-9.82 70.42) rotate(-5.82)" style="fill:#fff"/><path d="M707,137.62l-37.3,3.8L668.12,126l37.3-3.81Zm-34.62.52,31.33-3.2-1-9.45-31.33,3.2Z" style="fill:#cdd0e0"/><rect x="591.77" y="291.36" width="134.38" height="22.58" style="fill:url(#linear-gradient)"/><path d="M727.65,315.44H590.27V289.86H727.65Zm-134.38-3H724.65V292.86H593.27Z" style="fill:#cdd0e0"/><rect x="604.13" y="276.31" width="109.65" height="15.05" style="fill:url(#linear-gradient-2)"/><path d="M715.28,292.86H602.63V274.81H715.28Zm-109.65-3H712.28V277.81H605.63Z" style="fill:#cdd0e0"/><rect x="604.13" y="242.98" width="109.65" height="15.05" style="fill:#271f3e"/><path d="M715.28,259.53H602.63v-18H715.28Zm-109.65-3H712.28v-12H605.63Z" style="fill:#cdd0e0"/><rect x="597.68" y="258.44" width="122.55" height="17.47" style="fill:url(#linear-gradient-3)"/><path d="M721.73,277.4H596.18V256.94H721.73Zm-122.55-3H718.73V259.94H599.18Z" style="fill:#cdd0e0"/><polygon points="117.69 393.82 99.69 393.82 96.69 327.82 120.69 327.82 117.69 393.82" style="fill:#fff"/><path d="M119.13,395.32H98.26l-3.14-69h27.14Zm-18-3h15.13l2.86-63H98.26Z" style="fill:#cdd0e0"/><polygon points="96.69 330.82 97.87 356.82 119.51 356.82 120.69 330.82 96.69 330.82" style="fill:#cdd0e0"/><polygon points="644.69 393.82 626.69 393.82 623.69 327.82 647.69 327.82 644.69 393.82" style="fill:#fff"/><path d="M646.13,395.32H625.26l-3.14-69h27.14Zm-18-3h15.13l2.86-63H625.26Z" style="fill:#cdd0e0"/><polygon points="623.69 330.82 624.87 356.82 646.51 356.82 647.69 330.82 623.69 330.82" style="fill:#cdd0e0"/><rect x="2.16" y="314.82" width="740" height="26" style="fill:#fff"/><path d="M743.66,342.32H.66v-29h743Zm-740-3h737v-23H3.66Z" style="fill:#cdd0e0"/><rect x="211.16" y="95.82" width="322" height="208" rx="20" ry="20" style="fill:#271f3e"/><path d="M513.16,305.32h-282a21.52,21.52,0,0,1-21.5-21.5v-168a21.53,21.53,0,0,1,21.5-21.5h282a21.52,21.52,0,0,1,21.5,21.5v168A21.52,21.52,0,0,1,513.16,305.32Zm-282-208a18.52,18.52,0,0,0-18.5,18.5v168a18.52,18.52,0,0,0,18.5,18.5h282a18.52,18.52,0,0,0,18.5-18.5v-168a18.52,18.52,0,0,0-18.5-18.5Z" style="fill:#cdd0e0"/><rect x="225.05" y="115.81" width="294" height="163.67" style="fill:url(#linear-gradient-4)"/><path d="M520.55,281h-297V114.31h297Zm-294-3h291V117.31h-291Z" style="fill:#cdd0e0"/><rect x="296.76" y="178.92" width="79" height="79" style="fill:#271f3e"/><path d="M377.26,259.42h-82v-82h82Zm-79-3h76v-76h-76Z" style="fill:#cdd0e0"/><rect x="366.8" y="138.28" width="79" height="79" style="fill:#fff"/><path d="M447.3,218.78h-82v-82h82Zm-79-3h76v-76h-76Z" style="fill:#cdd0e0"/><path d="M394.08,187.49l-2.48,8.95h-8.12l10.6-34.87h10.35l10.87,34.87h-8.54l-2.69-8.95Zm8.85-5.9-2.17-7.4c-.62-2.07-1.24-4.65-1.76-6.72h-.11c-.51,2.07-1,4.71-1.6,6.72l-2.07,7.4Z" style="fill:#271f3e"/><path d="M427.46,164.1a3.92,3.92,0,0,1-4.24,3.94,3.94,3.94,0,1,1,4.24-3.94Zm-8.12,32.34v-25.3h7.86v25.3Z" style="fill:#271f3e"/><rect x="437.8" y="133.28" width="14" height="14" style="fill:#fff"/><path d="M453.3,148.78h-17v-17h17Zm-14-3h11v-11h-11Z" style="fill:#cdd0e0"/><path d="M316.24,203a58.46,58.46,0,0,1,9.6-.65c4.37,0,7.5.84,9.59,2.51a9.06,9.06,0,0,1,3.36,7.27,9.77,9.77,0,0,1-2.89,7.45c-2.42,2.24-6,3.31-10.2,3.31a12.29,12.29,0,0,1-2.43-.18V234h-7Zm7,14.26a10.71,10.71,0,0,0,2.38.18c3.77,0,6.1-1.91,6.1-5.08,0-2.88-2-4.61-5.59-4.61a12.75,12.75,0,0,0-2.89.23Z" style="fill:#cdd0e0"/><path d="M342,227.85a13.91,13.91,0,0,0,6.11,1.68c2.14,0,3-.7,3-1.87s-.69-1.77-3.3-2.65c-4.75-1.59-6.57-4.15-6.52-6.85,0-4.29,3.63-7.5,9.27-7.5A15,15,0,0,1,357,212l-1.21,4.89a11.39,11.39,0,0,0-4.94-1.3c-1.72,0-2.7.7-2.7,1.82s.88,1.67,3.68,2.65c4.33,1.49,6.1,3.73,6.15,7,0,4.28-3.31,7.4-9.83,7.4a16.1,16.1,0,0,1-7.36-1.63Z" style="fill:#cdd0e0"/><rect x="41.26" y="177.26" width="22.58" height="134.38" style="fill:#f2f4f9"/><path d="M65.33,313.14H39.76V175.76H65.33Zm-22.57-3H62.33V178.76H42.76Z" style="fill:#cdd0e0"/><rect x="63.83" y="201.98" width="15.05" height="109.65" style="fill:#e1e4ee"/><path d="M80.38,313.14h-18V200.48h18Zm-15-3h12V203.48h-12Z" style="fill:#cdd0e0"/><rect x="97.16" y="201.98" width="15.05" height="109.65" style="fill:#fff"/><path d="M113.71,313.14h-18V200.48h18Zm-15-3h12V203.48h-12Z" style="fill:#cdd0e0"/><rect x="79.29" y="189.08" width="17.47" height="122.55" style="fill:#e9ebf3"/><path d="M98.25,313.14H77.79V187.58H98.25Zm-17.46-3H95.25V190.58H80.79Z" style="fill:#cdd0e0"/><rect x="124.44" y="177.26" width="17.47" height="134.38" transform="translate(-59.12 43.17) rotate(-15.11)" style="fill:#f2f4f9"/><path d="M141.2,313.43,105.38,180.8l19.76-5.34L161,308.09ZM109.06,182.91l34.25,126.84,14-3.77L123,179.14Z" style="fill:#cdd0e0"/><polygon points="574.91 308.82 555.91 313.82 187.91 313.82 168.91 308.82 168.91 296.82 574.91 296.82 574.91 308.82" style="fill:#fff"/><path d="M556.11,315.32l-368.58-.05L167.41,310V295.32h409V310Zm-368-3H555.72l17.69-4.65v-9.35h-403v9.35Z" style="fill:#cdd0e0"/><polygon points="169.91 307.82 187.91 313.82 555.91 313.82 575.41 307.82 169.91 307.82" style="fill:#cdd0e0"/><path d="M405.35,299c0,1.52-.61,2.75-1.37,2.75H340.35c-.76,0-1.38-1.23-1.38-2.75h0c0-1.52.62-2.75,1.38-2.75H404c.76,0,1.37,1.23,1.37,2.75Z" style="fill:#cdd0e0"/><path d="M520.66,280.32h-297V113.66h297Zm-294-3h291V116.66h-291Z" style="fill:#cdd0e0"/><polygon points="540.15 313.08 475.56 313.08 485.18 298.65 530.53 298.65 540.15 313.08" style="fill:#daddea"/><path d="M543,314.58h-70.2l11.62-17.43h47Zm-64.59-3h59l-7.62-11.43H486Z" style="fill:#cdd0e0"/><path d="M543,314.58h-70.2l11.62-17.43h47Zm-64.59-3h59l-7.62-11.43H486Z" style="fill:#cdd0e0"/><path d="M553.76,258.17a46.7,46.7,0,0,0-1.41-11.42h-90.6a46.74,46.74,0,0,0,22,51.9h46.58A46.67,46.67,0,0,0,553.76,258.17Z" style="fill:#fff"/><path d="M553.57,262.18c.11-1.32.19-2.66.19-4a46.7,46.7,0,0,0-1.41-11.42h-90.6a46.7,46.7,0,0,0-1.41,11.42c0,1.41.09,2.8.21,4.18C485.29,262.1,523,262,553.57,262.18Z" style="fill:#fff"/><path d="M459.18,263.86l-.12-1.38c-.15-1.64-.22-3-.22-4.31a48.32,48.32,0,0,1,1.46-11.79l.28-1.13h92.94l.29,1.13a48.86,48.86,0,0,1,1.45,11.79c0,1.26-.06,2.58-.19,4.14l-.12,1.38h-1.39c-10.65-.05-22.53-.07-34.35-.07-22.39,0-43.22.08-58.64.24Zm3.76-15.61a45.29,45.29,0,0,0-1.1,9.92c0,.83,0,1.7.1,2.67,15.28-.15,35.54-.23,57.27-.23,11.31,0,22.68,0,33,.07.06-.91.08-1.72.08-2.51a46,46,0,0,0-1.09-9.92Z" style="fill:#cdd0e0"/><path d="M530.74,300.15H483.36L483,300a48.22,48.22,0,0,1-22.71-53.57l.28-1.13h92.94l.29,1.13A48.28,48.28,0,0,1,531.09,300Zm-46.57-3h45.77a45.37,45.37,0,0,0,22.32-39,46,46,0,0,0-1.09-9.92H462.94a45.2,45.2,0,0,0,21.23,48.9Z" style="fill:#cdd0e0"/><path d="M546.08,299.74c-3.67-3-5.34-5.9-5.08-8.84.46-5.49,7.52-9.48,15.69-14.11,4.9-2.78,10-5.65,14-9.05,3.54-3,5-6.6,4.09-10.22a9.58,9.58,0,0,0-7.32-6.95c-2.6-.55-7.72-.51-12.88,6.05l-2.36-1.86c4.5-5.72,10.29-8.32,15.87-7.12a12.6,12.6,0,0,1,9.6,9.16c1.18,4.72-.67,9.55-5.07,13.24s-9.45,6.52-14.48,9.36c-7.12,4-13.84,7.84-14.17,11.76-.16,1.85,1.18,3.95,4,6.25Z" style="fill:#cdd0e0"/></g></g></g></svg>