<svg version="1" xmlns="http://www.w3.org/2000/svg" width="240" height="240" viewBox="0 0 180.000000 180.000000"><path d="M1.6 49.5c-.9.9-1.6 2.2-1.6 2.9 0 .7 3.4 6.3 7.5 12.5l7.6 11.2-7.7 11.3c-7.6 11.4-8.4 13.9-5.2 16 2.7 1.6 4.4.1 11.2-10.1 3.4-5.1 6.3-9.2 6.6-9.2.3-.1 3.5 4.3 7.1 9.7 3.6 5.3 7.4 9.9 8.3 10 2.4.5 5.6-2.6 4.9-4.6-.4-1-3.9-6.5-7.8-12.3l-7.2-10.6 7.8-11.8c6.1-9.3 7.6-12.3 6.8-13.6-2.7-5.1-5.4-3.5-12.8 7.6-3.6 5.2-6.7 9.5-7 9.5-.3-.1-3.5-4.4-7.1-9.8-3.6-5.3-7.2-9.8-8.1-10-.9-.2-2.4.4-3.3 1.3zM140.6 50.2c-.8 1.2-1.2 2.6-.9 3.2.3.6 3.7 5.7 7.5 11.3 3.7 5.6 6.8 10.6 6.8 11.1s-3.4 5.8-7.5 11.8c-7.6 11-8.5 13.7-5.2 15.8 2.6 1.7 4.5 0 11.3-9.9 3.4-4.9 6.5-9 7-9.2.5-.2 1.9 1.4 3.2 3.5 9.1 15 12.6 18.4 16 15 2.2-2.2 1.3-4.2-6.3-15.3-4.1-6.1-7.5-11.3-7.5-11.7 0-.4 3.4-5.7 7.5-11.8 6.2-9.1 7.3-11.4 6.5-13-2.8-5.2-5.5-3.7-13 7.5-3.5 5.3-6.6 9.2-7 8.8-.4-.4-3.1-4.4-6-8.8-7.3-11.1-9.4-12.6-12.4-8.3zM11.1 113.9c-1.6 1-.6 6.9 2.1 12.8 5 10.7 19.5 17.4 43.4 20 3.8.4 18.4.7 32.4.8 33.4 0 45.5-1.2 59-6 10.3-3.6 19.2-12.4 20.6-20.2.3-1.5.7-3.5 1-4.4.5-1.9-2.3-4.6-3.5-3.3-.5.5-1.1 2.7-1.3 4.9-1.1 9.2-9 17.3-20.2 20.7-11.9 3.5-22 4.3-55.1 4.3-36.8 0-48.7-1.3-60.1-6.7-8-3.7-14.4-12.1-14.6-18.9-.1-3.3-1.8-5.2-3.7-4z"/></svg>