<svg xmlns="http://www.w3.org/2000/svg" viewBox="0 0 256 255.5"><title>code</title><g id="Layer_2" data-name="Layer 2"><g id="Capa_1" data-name="Capa 1"><rect width="256" height="255.5" style="fill:none"/><rect x="92.69" y="208.98" width="70.62" height="40.03" style="fill:#95a5a5"/><path d="M238.35,39.22H17.66A17.65,17.65,0,0,0,0,56.88V202.53a17.65,17.65,0,0,0,17.66,17.66H238.35A17.65,17.65,0,0,0,256,202.53V56.88a17.65,17.65,0,0,0-17.65-17.66Z" style="fill:#bdc3c7"/><path d="M256,184.88v-128a17.65,17.65,0,0,0-17.65-17.66H17.66A17.65,17.65,0,0,0,0,56.88v128Z" style="fill:#35495e"/><path d="M61.79,237.84H194.21a4.42,4.42,0,0,1,4.41,4.42v8.83a4.41,4.41,0,0,1-4.41,4.41H61.79a4.42,4.42,0,0,1-4.41-4.41v-8.83A4.42,4.42,0,0,1,61.79,237.84Z" style="fill:#bdc3c7"/><path d="M28,136.07H23.69a4.34,4.34,0,0,1,0-8.68H28a4.34,4.34,0,0,1,0,8.68Z" style="fill:#d1d4d1"/><path d="M28,153.42H23.69a4.34,4.34,0,0,1,0-8.68H28a4.34,4.34,0,0,1,0,8.68Z" style="fill:#d1d4d1"/><path d="M28,170.78H23.69a4.34,4.34,0,1,1,0-8.68H28a4.34,4.34,0,0,1,0,8.68Z" style="fill:#d1d4d1"/><path d="M101.79,136.07H45.38a4.34,4.34,0,0,1,0-8.68h56.41a4.34,4.34,0,1,1,0,8.68Z" style="fill:#cc4b4c"/><path d="M149.52,136.07H119.14a4.34,4.34,0,0,1,0-8.68h30.38a4.34,4.34,0,1,1,0,8.68Z" style="fill:#f29c1f"/><path d="M179.89,136.07h-13a4.34,4.34,0,0,1,0-8.68h13a4.34,4.34,0,1,1,0,8.68Z" style="fill:#f29c1f"/><path d="M214.6,136.07H197.25a4.34,4.34,0,0,1,0-8.68H214.6a4.34,4.34,0,1,1,0,8.68Z" style="fill:#e6e7e8"/><path d="M240.64,136.07H232a4.34,4.34,0,0,1,0-8.68h8.68a4.34,4.34,0,0,1,0,8.68Z" style="fill:#e6e7e8"/><path d="M84.43,153.42h-26a4.34,4.34,0,0,1,0-8.68h26a4.34,4.34,0,0,1,0,8.68Z" style="fill:#cc4b4c"/><path d="M123.48,153.42H101.79a4.34,4.34,0,0,1,0-8.68h21.69a4.34,4.34,0,0,1,0,8.68Z" style="fill:#f29c1f"/><path d="M158.2,153.42H140.84a4.34,4.34,0,0,1,0-8.68H158.2a4.34,4.34,0,0,1,0,8.68Z" style="fill:#e6e7e8"/><path d="M197.25,153.42h-21.7a4.34,4.34,0,0,1,0-8.68h21.7a4.34,4.34,0,0,1,0,8.68Z" style="fill:#e6e7e8"/><path d="M240.64,153.42h-26a4.34,4.34,0,0,1,0-8.68h26a4.34,4.34,0,0,1,0,8.68Z" style="fill:#e6e7e8"/><path d="M62.74,170.78H45.38a4.34,4.34,0,0,1,0-8.68H62.74a4.34,4.34,0,0,1,0,8.68Z" style="fill:#cc4b4c"/><path d="M97.45,170.78H80.09a4.34,4.34,0,0,1,0-8.68H97.45a4.34,4.34,0,0,1,0,8.68Z" style="fill:#f29c1f"/><path d="M136.5,170.78H114.81a4.34,4.34,0,0,1,0-8.68H136.5a4.34,4.34,0,0,1,0,8.68Z" style="fill:#f29c1f"/><path d="M166.87,170.78h-13a4.34,4.34,0,0,1,0-8.68h13a4.34,4.34,0,0,1,0,8.68Z" style="fill:#e6e7e8"/><path d="M210.26,170.78h-26a4.34,4.34,0,0,1,0-8.68h26a4.34,4.34,0,0,1,0,8.68Z" style="fill:#e6e7e8"/><path d="M240.64,170.78h-13a4.34,4.34,0,0,1,0-8.68h13a4.34,4.34,0,0,1,0,8.68Z" style="fill:#e6e7e8"/><path d="M153.86.06H45.38A17.35,17.35,0,0,0,28,17.41V78.16A21.69,21.69,0,0,0,49.72,99.85h4.34v30.38L84.43,99.85h69.43A17.35,17.35,0,0,0,171.21,82.5V17.41A17.35,17.35,0,0,0,153.86.06Z" style="fill:#e6e7e8"/><path d="M67.08,69.48A4.31,4.31,0,0,1,64,68.21L46.65,50.85a4.33,4.33,0,0,1,0-6.13L64,27.36a4.34,4.34,0,0,1,6.13,6.14L55.86,47.79,70.14,62.08a4.34,4.34,0,0,1-3.06,7.4Z" style="fill:#8697cb"/><path d="M84.43,56.47a4.35,4.35,0,0,1-4.34-4.34V30.43a4.34,4.34,0,1,1,8.68,0v21.7A4.34,4.34,0,0,1,84.43,56.47Z" style="fill:#f29c1f"/><path d="M84.43,69.48a4.25,4.25,0,0,1-1.65-.35,5.11,5.11,0,0,1-1.43-.91,3.9,3.9,0,0,1-.52-.69,2.5,2.5,0,0,1-.39-.74,2.76,2.76,0,0,1-.26-.78,6.42,6.42,0,0,1-.09-.87,4.58,4.58,0,0,1,1.26-3.08,5.11,5.11,0,0,1,1.43-.91,4.3,4.3,0,0,1,6,4,6.42,6.42,0,0,1-.09.87,2.47,2.47,0,0,1-.26.78,2.11,2.11,0,0,1-.39.74,7.76,7.76,0,0,1-.52.69A4.54,4.54,0,0,1,84.43,69.48Z" style="fill:#f29c1f"/><path d="M114.81,52.13h-13a4.34,4.34,0,0,1,0-8.68h13a4.34,4.34,0,0,1,0,8.68Z" style="fill:#cc4b4c"/><path d="M145.18,52.13h-13a4.34,4.34,0,0,1,0-8.68h13a4.34,4.34,0,1,1,0,8.68Z" style="fill:#cc4b4c"/></g></g></svg>