<svg xmlns="http://www.w3.org/2000/svg" viewBox="0 0 256 255.5"><title>graphic</title><g id="Layer_2" data-name="Layer 2"><g id="Capa_1" data-name="Capa 1"><rect width="256" height="255.5" style="fill:none"/><rect x="92.69" y="208.98" width="70.62" height="40.03" style="fill:#95a5a5"/><path d="M238.35,39.22H17.66A17.65,17.65,0,0,0,0,56.88V202.53a17.65,17.65,0,0,0,17.66,17.66H238.35A17.65,17.65,0,0,0,256,202.53V56.88a17.65,17.65,0,0,0-17.65-17.66Z" style="fill:#bdc3c7"/><path d="M256,184.88v-128a17.65,17.65,0,0,0-17.65-17.66H17.66A17.65,17.65,0,0,0,0,56.88v128Z" style="fill:#35495e"/><path d="M61.79,237.84H194.21a4.42,4.42,0,0,1,4.41,4.42v8.83a4.41,4.41,0,0,1-4.41,4.41H61.79a4.42,4.42,0,0,1-4.41-4.41v-8.83A4.42,4.42,0,0,1,61.79,237.84Z" style="fill:#bdc3c7"/><path d="M214.07,68.74a4.42,4.42,0,0,0-4.42-4.41H169.93a4.41,4.41,0,0,0-4.41,4.41V95.23h48.55V68.74Zm-6.62,22.07H172.14a2.21,2.21,0,1,1,0-4.41h35.31a2.21,2.21,0,1,1,0,4.41Zm0-8.82H172.14a2.21,2.21,0,1,1,0-4.42h35.31a2.21,2.21,0,1,1,0,4.42Zm0-8.83H172.14a2.21,2.21,0,1,1,0-4.42h35.31a2.21,2.21,0,1,1,0,4.42Z" style="fill:#bec8dc"/><path d="M169.93,170.26h39.72a4.41,4.41,0,0,0,4.42-4.41V126.12H165.52v39.73A4.4,4.4,0,0,0,169.93,170.26Zm19.86-39.72h17.66a2.21,2.21,0,0,1,0,4.41H189.79a2.21,2.21,0,0,1,0-4.41Zm0,8.83h17.66a2.21,2.21,0,0,1,0,4.41H189.79a2.21,2.21,0,0,1,0-4.41Zm0,8.82h17.66a2.21,2.21,0,0,1,0,4.42H189.79a2.21,2.21,0,0,1,0-4.42Zm0,8.83h17.66a2.21,2.21,0,0,1,0,4.41H189.79a2.21,2.21,0,0,1,0-4.41ZM181,130.54h0a2.21,2.21,0,0,1,0,4.41h0a2.21,2.21,0,1,1,0-4.41Zm0,8.83h0a2.21,2.21,0,0,1,0,4.41h0a2.21,2.21,0,1,1,0-4.41Zm0,8.82h0a2.21,2.21,0,0,1,0,4.42h0a2.21,2.21,0,0,1,0-4.42Zm0,8.83h0a2.21,2.21,0,0,1,0,4.41h0a2.21,2.21,0,1,1,0-4.41Zm-8.83-26.48h0a2.21,2.21,0,0,1,0,4.41h0a2.21,2.21,0,1,1,0-4.41Zm0,8.83h0a2.21,2.21,0,0,1,0,4.41h0a2.21,2.21,0,1,1,0-4.41Zm0,8.82h0a2.21,2.21,0,0,1,0,4.42h0a2.21,2.21,0,1,1,0-4.42Zm0,8.83h0a2.21,2.21,0,0,1,0,4.41h0a2.21,2.21,0,1,1,0-4.41Z" style="fill:#bec8dc"/><path d="M214.07,95.23H165.52v30.89h48.55Zm-37.52,26.48h-4.41a2.21,2.21,0,1,1,0-4.41h4.41a2.21,2.21,0,1,1,0,4.41Zm0-8.83h-4.41a2.21,2.21,0,1,1,0-4.41h4.41a2.21,2.21,0,1,1,0,4.41Zm0-8.83h-4.41a2.21,2.21,0,1,1,0-4.41h4.41a2.21,2.21,0,1,1,0,4.41Zm30.9,17.66H185.38a2.21,2.21,0,1,1,0-4.41h22.07a2.21,2.21,0,1,1,0,4.41Zm0-8.83H185.38a2.21,2.21,0,1,1,0-4.41h22.07a2.21,2.21,0,1,1,0,4.41Zm0-8.83H185.38a2.21,2.21,0,1,1,0-4.41h22.07a2.21,2.21,0,1,1,0,4.41Z" style="fill:#96a5b9"/><path d="M207.45,68.74H181a2.21,2.21,0,0,1,0,4.42h26.48a2.21,2.21,0,1,0,0-4.42Z" style="fill:#96a5b9"/><path d="M174.34,71a2.21,2.21,0,0,1,2.21-2.21h-4.41a2.21,2.21,0,1,0,0,4.42h4.41A2.21,2.21,0,0,1,174.34,71Z" style="fill:#96a5b9"/><path d="M207.45,86.4H189.79a2.21,2.21,0,1,1,0,4.41h17.66a2.21,2.21,0,1,0,0-4.41Z" style="fill:#96a5b9"/><path d="M183.17,88.61a2.21,2.21,0,0,1,2.21-2.21H172.14a2.21,2.21,0,1,0,0,4.41h13.24A2.2,2.2,0,0,1,183.17,88.61Z" style="fill:#96a5b9"/><path d="M207.45,99.64H185.38a2.21,2.21,0,0,0,0,4.42h22.07a2.21,2.21,0,1,0,0-4.42Z" style="fill:#bec8dc"/><path d="M196.41,79.78a2.21,2.21,0,0,1,2.21-2.21H172.14a2.21,2.21,0,1,0,0,4.42h26.48A2.21,2.21,0,0,1,196.41,79.78Z" style="fill:#96a5b9"/><path d="M207.45,77.57H203A2.21,2.21,0,1,1,203,82h4.42a2.21,2.21,0,1,0,0-4.42Z" style="fill:#96a5b9"/><path d="M183.17,71a2.21,2.21,0,0,0-2.2-2.21h-4.42a2.21,2.21,0,0,0,0,4.42H181A2.21,2.21,0,0,0,183.17,71Z" style="fill:#e4eaf6"/><path d="M192,88.61a2.21,2.21,0,0,0-2.21-2.21h-4.41a2.21,2.21,0,1,0,0,4.41h4.41A2.2,2.2,0,0,0,192,88.61Z" style="fill:#e4eaf6"/><path d="M176.55,99.64h-4.41a2.21,2.21,0,1,0,0,4.42h4.41a2.21,2.21,0,0,0,0-4.42Z" style="fill:#e4eaf6"/><path d="M207.45,108.47H185.38a2.21,2.21,0,1,0,0,4.41h22.07a2.21,2.21,0,1,0,0-4.41Z" style="fill:#bec8dc"/><path d="M176.55,108.47h-4.41a2.21,2.21,0,1,0,0,4.41h4.41a2.21,2.21,0,1,0,0-4.41Z" style="fill:#e4eaf6"/><path d="M207.45,117.3H185.38a2.21,2.21,0,1,0,0,4.41h22.07a2.21,2.21,0,1,0,0-4.41Z" style="fill:#bec8dc"/><path d="M176.55,117.3h-4.41a2.21,2.21,0,1,0,0,4.41h4.41a2.21,2.21,0,1,0,0-4.41Z" style="fill:#e4eaf6"/><path d="M172.14,143.78h0a2.21,2.21,0,0,0,0-4.41h0a2.21,2.21,0,1,0,0,4.41Z" style="fill:#e4eaf6"/><path d="M172.14,135h0a2.21,2.21,0,0,0,0-4.41h0a2.21,2.21,0,1,0,0,4.41Z" style="fill:#e4eaf6"/><path d="M172.14,161.43h0a2.21,2.21,0,0,0,0-4.41h0a2.21,2.21,0,1,0,0,4.41Z" style="fill:#e4eaf6"/><path d="M172.14,152.61h0a2.21,2.21,0,0,0,0-4.42h0a2.21,2.21,0,1,0,0,4.42Z" style="fill:#e4eaf6"/><path d="M181,143.78h0a2.21,2.21,0,0,0,0-4.41h0a2.21,2.21,0,1,0,0,4.41Z" style="fill:#96a5b9"/><path d="M181,135h0a2.21,2.21,0,0,0,0-4.41h0a2.21,2.21,0,1,0,0,4.41Z" style="fill:#96a5b9"/><path d="M181,161.43h0a2.21,2.21,0,0,0,0-4.41h0a2.21,2.21,0,1,0,0,4.41Z" style="fill:#96a5b9"/><path d="M181,152.61h0a2.21,2.21,0,0,0,0-4.42h0a2.21,2.21,0,0,0,0,4.42Z" style="fill:#96a5b9"/><path d="M189.79,143.78h17.66a2.21,2.21,0,0,0,0-4.41H189.79a2.21,2.21,0,0,0,0,4.41Z" style="fill:#96a5b9"/><path d="M189.79,135h17.66a2.21,2.21,0,0,0,0-4.41H189.79a2.21,2.21,0,0,0,0,4.41Z" style="fill:#96a5b9"/><path d="M189.79,161.43h17.66a2.21,2.21,0,0,0,0-4.41H189.79a2.21,2.21,0,0,0,0,4.41Z" style="fill:#96a5b9"/><path d="M189.79,152.61h17.66a2.21,2.21,0,0,0,0-4.42H189.79a2.21,2.21,0,0,0,0,4.42Z" style="fill:#96a5b9"/><path d="M205.24,79.78A2.21,2.21,0,0,0,203,77.57h-4.41a2.21,2.21,0,0,0,0,4.42H203A2.21,2.21,0,0,0,205.24,79.78Z" style="fill:#e4eaf6"/><path d="M46.34,121.71H79.45v-8.83H50.76V73.16H90.48v28.69a2.21,2.21,0,1,1,0,4.41v6.62H83.86v8.83H95.08l0-2.65a1.77,1.77,0,0,1,2.95-1.3l1,.92a4.52,4.52,0,0,0,.22-1.37v-11a2.21,2.21,0,1,1,0-4.41V68.74a4.42,4.42,0,0,0-4.41-4.41H46.35a4.41,4.41,0,0,0-4.42,4.41V117.3A4.41,4.41,0,0,0,46.34,121.71Z" style="fill:#ff6469"/><path d="M81.65,141.57a2.2,2.2,0,0,0,2.21-2.2v-8.83a2.21,2.21,0,1,0-4.41,0v8.83A2.19,2.19,0,0,0,81.65,141.57Z" style="fill:#96a5b9"/><path d="M134.62,168.05h8.83a2.21,2.21,0,0,0,0-4.41h-8.83a2.21,2.21,0,1,0,0,4.41Z" style="fill:#96a5b9"/><path d="M143.45,146a2.2,2.2,0,0,0-2.21,2.2V157a2.21,2.21,0,1,0,4.41,0v-8.83A2.19,2.19,0,0,0,143.45,146Z" style="fill:#96a5b9"/><path d="M134.62,106.26h8.83a2.21,2.21,0,0,0,0-4.41h-8.83a2.21,2.21,0,1,0,0,4.41Z" style="fill:#96a5b9"/><path d="M143.45,110.68a2.2,2.2,0,0,0-2.21,2.2v8.83a2.21,2.21,0,1,0,4.41,0v-8.83A2.19,2.19,0,0,0,143.45,110.68Z" style="fill:#96a5b9"/><path d="M108.14,163.64H99.31a2.21,2.21,0,1,0,0,4.42h8.83a2.21,2.21,0,0,0,0-4.42Z" style="fill:#96a5b9"/><path d="M81.65,110.68a2.19,2.19,0,0,0-2.2,2.2v8.83a2.21,2.21,0,1,0,4.41,0v-8.83A2.2,2.2,0,0,0,81.65,110.68Z" style="fill:#96a5b9"/><path d="M90.48,163.64H81.65a2.21,2.21,0,0,0,0,4.42h8.83a2.21,2.21,0,0,0,0-4.42Z" style="fill:#96a5b9"/><path d="M79.45,157a2.21,2.21,0,1,0,4.41,0v-8.83a2.21,2.21,0,0,0-4.41,0Z" style="fill:#96a5b9"/><path d="M143.45,128.33a2.21,2.21,0,0,0-2.21,2.21v8.83a2.21,2.21,0,0,0,4.41,0v-8.83A2.2,2.2,0,0,0,143.45,128.33Z" style="fill:#96a5b9"/><path d="M117,106.26h8.83a2.21,2.21,0,1,0,0-4.41H117a2.21,2.21,0,0,0,0,4.41Z" style="fill:#96a5b9"/><path d="M79.45,104.05a2.2,2.2,0,0,0,2.2,2.21h8.83a2.21,2.21,0,1,0,0-4.41H81.65A2.2,2.2,0,0,0,79.45,104.05Z" style="fill:#96a5b9"/><path d="M117,168.05h8.83a2.21,2.21,0,1,0,0-4.41H117a2.21,2.21,0,0,0,0,4.41Z" style="fill:#96a5b9"/><path d="M97.1,104.05a2.21,2.21,0,0,0,2.21,2.21h8.83a2.21,2.21,0,0,0,0-4.41H99.31A2.21,2.21,0,0,0,97.1,104.05Z" style="fill:#96a5b9"/><path d="M95.12,119.05l0,2.65L94.9,136a1.76,1.76,0,0,0,2.48,1.64l4.39-1.92,3.92,8.93a2.2,2.2,0,0,0,2,1.31,2.32,2.32,0,0,0,.89-.18,2.21,2.21,0,0,0,1.13-2.91l-3.92-8.93L110.2,132a1.77,1.77,0,0,0,.47-2.94L99.09,118.67l-1-.92A1.77,1.77,0,0,0,95.12,119.05Z" style="fill:#464655"/></g></g></svg>