<svg xmlns="http://www.w3.org/2000/svg" viewBox="0 0 256 255.5"><title>project</title><g id="Layer_2" data-name="Layer 2"><g id="Capa_1" data-name="Capa 1"><rect width="256" height="255.5" style="fill:none"/><rect x="92.69" y="208.83" width="70.62" height="40.03" style="fill:#95a5a5"/><path d="M238.35,39.08H17.66A17.65,17.65,0,0,0,0,56.73V202.39A17.65,17.65,0,0,0,17.66,220H238.35A17.65,17.65,0,0,0,256,202.39V56.73a17.65,17.65,0,0,0-17.65-17.65Z" style="fill:#bdc3c7"/><path d="M256,184.73v-128a17.65,17.65,0,0,0-17.65-17.65H17.66A17.65,17.65,0,0,0,0,56.73v128Z" style="fill:#35495e"/><path d="M61.79,237.7H194.21a4.41,4.41,0,0,1,4.41,4.41v8.83a4.4,4.4,0,0,1-4.41,4.41H61.79a4.41,4.41,0,0,1-4.41-4.41v-8.83A4.41,4.41,0,0,1,61.79,237.7Z" style="fill:#bdc3c7"/><path d="M3.88,143.07l9-9L37.3,158.54l-9,9a13.25,13.25,0,0,1-18.73,0l-5.72-5.72A13.24,13.24,0,0,1,3.88,143.07Z" style="fill:#65ddb9"/><path d="M13,121.74,37.3,97.42,74,134.09,49.65,158.41a8.82,8.82,0,0,1-12.48,0L13,134.22A8.82,8.82,0,0,1,13,121.74Z" style="fill:#46b29d"/><path d="M37.3,97.42s45.83-51.95,33.61-82.5l85.56,85.56C125.91,88.26,74,134.09,74,134.09Z" style="fill:#e6e7e8"/><polygon points="49.52 158.54 96.67 184.73 110.64 170.76 73.97 134.09 49.52 158.54" style="fill:#65ddb9"/><path d="M168.7,100.47a8.61,8.61,0,0,1-12.23,0L70.93,14.93A8.64,8.64,0,1,1,83.16,2.71L110,29.5v0l31.07,31,27.67,27.68a8.61,8.61,0,0,1,0,12.22Z" style="fill:#46b29d"/><path d="M110,29.54v0a22.33,22.33,0,0,1,17.12-8.08A22.08,22.08,0,0,1,148.7,39.08a21.08,21.08,0,0,1,.44,4.41A22,22,0,0,1,141,60.57Z" style="fill:#bdc3c7"/><path d="M203,136.18H163.31a4.42,4.42,0,0,1,0-8.83H203a4.42,4.42,0,1,1,0,8.83Z" style="fill:#e6e7e8"/><path d="M207.45,118.53H194.21a4.42,4.42,0,1,1,0-8.83h13.24a4.42,4.42,0,0,1,0,8.83Z" style="fill:#e6e7e8"/><path d="M238.35,118.53H225.1a4.42,4.42,0,0,1,0-8.83h13.25a4.42,4.42,0,0,1,0,8.83Z" style="fill:#e6e7e8"/><path d="M238.35,136.18H220.69a4.42,4.42,0,0,1,0-8.83h17.66a4.42,4.42,0,0,1,0,8.83Z" style="fill:#e6e7e8"/><path d="M172.14,149.42h57.38a8.83,8.83,0,0,1,8.83,8.83h0a8.84,8.84,0,0,1-8.83,8.83H172.14a8.83,8.83,0,0,1-8.83-8.83h0A8.83,8.83,0,0,1,172.14,149.42Z" style="fill:#4482c3"/></g></g></svg>