<svg xmlns="http://www.w3.org/2000/svg" xmlns:xlink="http://www.w3.org/1999/xlink" viewBox="0 0 744.32 397.36"><defs><linearGradient id="linear-gradient" x1="257.75" y1="311.23" x2="486.58" y2="82.4" gradientUnits="userSpaceOnUse"><stop offset="0" stop-color="#69cef4"/><stop offset="1" stop-color="#7379ba"/></linearGradient><linearGradient id="linear-gradient-2" x1="179.28" y1="280.21" x2="259.63" y2="199.86" xlink:href="#linear-gradient"/></defs><title>web</title><g id="Layer_2" data-name="Layer 2"><g id="Layer_1-2" data-name="Layer 1"><rect width="744.32" height="397.36" style="fill:none"/><g id="Workspace3"><path d="M596.33,91a50.25,50.25,0,1,1-50.25-50.24A50.25,50.25,0,0,1,596.33,91Z" style="fill:#fff"/><path d="M546.08,142.74A51.75,51.75,0,1,1,597.83,91,51.8,51.8,0,0,1,546.08,142.74Zm0-100.49A48.75,48.75,0,1,0,594.83,91,48.8,48.8,0,0,0,546.08,42.25Z" style="fill:#cdd0e0"/><path d="M579.52,91a33.44,33.44,0,1,1-33.44-33.44A33.44,33.44,0,0,1,579.52,91Z" style="fill:#e1e4ee"/><path d="M546.08,125.93A34.94,34.94,0,1,1,581,91,35,35,0,0,1,546.08,125.93Zm0-66.88A31.94,31.94,0,1,0,578,91,32,32,0,0,0,546.08,59.05Z" style="fill:#cdd0e0"/><path d="M547.12,93.14a1.5,1.5,0,0,1-1.5,1.5h0a1.5,1.5,0,0,1-1.5-1.5V69.64a1.51,1.51,0,0,1,1.5-1.5h0a1.5,1.5,0,0,1,1.5,1.5Z" style="fill:#cdd0e0"/><path d="M561.75,91.89a1.37,1.37,0,0,1,1.37,1.38h0a1.37,1.37,0,0,1-1.37,1.37H545.5a1.37,1.37,0,0,1-1.38-1.37h0a1.38,1.38,0,0,1,1.38-1.38Z" style="fill:#cdd0e0"/><polygon points="117.69 393.64 99.69 393.64 96.69 327.64 120.69 327.64 117.69 393.64" style="fill:#fff"/><path d="M119.13,395.14H98.26l-3.14-69h27.14Zm-18-3h15.13l2.86-63H98.26Z" style="fill:#cdd0e0"/><polygon points="96.69 330.64 97.87 356.64 119.51 356.64 120.69 330.64 96.69 330.64" style="fill:#cdd0e0"/><polygon points="644.69 393.64 626.69 393.64 623.69 327.64 647.69 327.64 644.69 393.64" style="fill:#fff"/><path d="M646.13,395.14H625.26l-3.14-69h27.14Zm-18-3h15.13l2.86-63H625.26Z" style="fill:#cdd0e0"/><polygon points="623.69 330.64 624.87 356.64 646.51 356.64 647.69 330.64 623.69 330.64" style="fill:#cdd0e0"/><rect x="2.16" y="314.64" width="740" height="26" style="fill:#fff"/><path d="M743.66,342.14H.66v-29h743Zm-740-3h737v-23H3.66Z" style="fill:#cdd0e0"/><rect x="211.16" y="95.64" width="322" height="208" rx="20" ry="20" style="fill:#271f3e"/><path d="M513.16,305.14h-282a21.52,21.52,0,0,1-21.5-21.5v-168a21.53,21.53,0,0,1,21.5-21.5h282a21.52,21.52,0,0,1,21.5,21.5v168A21.52,21.52,0,0,1,513.16,305.14Zm-282-208a18.52,18.52,0,0,0-18.5,18.5v168a18.52,18.52,0,0,0,18.5,18.5h282a18.52,18.52,0,0,0,18.5-18.5v-168a18.52,18.52,0,0,0-18.5-18.5Z" style="fill:#cdd0e0"/><rect x="225.16" y="114.98" width="294" height="163.67" style="fill:url(#linear-gradient)"/><path d="M520.66,280.14h-297V113.48h297Zm-294-3h291V116.48h-291Z" style="fill:#cdd0e0"/><polygon points="574.91 308.64 555.91 313.64 187.91 313.64 168.91 308.64 168.91 296.64 574.91 296.64 574.91 308.64" style="fill:#fff"/><path d="M556.11,315.14l-368.58-.05-20.12-5.29V295.14h409V309.8Zm-368-3H555.72l17.69-4.65v-9.35h-403v9.35Z" style="fill:#cdd0e0"/><polygon points="169.91 307.64 187.91 313.64 555.91 313.64 575.41 307.64 169.91 307.64" style="fill:#cdd0e0"/><path d="M405.35,298.81c0,1.52-.61,2.75-1.37,2.75H340.35c-.76,0-1.38-1.23-1.38-2.75h0c0-1.52.62-2.75,1.38-2.75H404c.76,0,1.37,1.23,1.37,2.75Z" style="fill:#cdd0e0"/><path d="M608.35,247.73v47a20,20,0,0,0,20,20h56a20,20,0,0,0,20-20v-47a19,19,0,0,0-.11-2H608.45C608.39,246.39,608.35,247.06,608.35,247.73Z" style="fill:#fff"/><path d="M684.84,316.23h-56a21.52,21.52,0,0,1-21.5-21.5v-47c0-.7,0-1.42.11-2.15l.13-1.35H706.1l.14,1.35c.07.72.1,1.45.1,2.15v47A21.52,21.52,0,0,1,684.84,316.23Zm-74.48-69c0,.17,0,.34,0,.5v47a18.52,18.52,0,0,0,18.5,18.5h56a18.52,18.52,0,0,0,18.5-18.5v-47.5Z" style="fill:#cdd0e0"/><path d="M710.92,285.63a9.33,9.33,0,1,0-6-16.47v14.29A9.29,9.29,0,0,0,710.92,285.63Z" style="fill:none"/><path d="M710.92,257.63a18.65,18.65,0,0,0-6,1v10.52a9.33,9.33,0,1,1,0,14.29V294a18.66,18.66,0,1,0,6-36.33Z" style="fill:#fff"/><path d="M710.92,296.47a20.08,20.08,0,0,1-6.48-1.09l-1-.34V280.23l2.47,2.07a7.83,7.83,0,1,0,0-12l-2.47,2.08V257.56l1-.34a20.16,20.16,0,1,1,6.48,39.25Zm-4.5-3.62a16.84,16.84,0,0,0,4.5.62,17.17,17.17,0,1,0,0-34.34,16.84,16.84,0,0,0-4.5.62v6.7a10.83,10.83,0,1,1,0,19.7Z" style="fill:#cdd0e0"/><path d="M638,245.89l-3.65-49.84a5,5,0,0,0-10,.72l3.59,49.17Z" style="fill:#5e4b8b"/><path d="M680.58,245.81l3.58-49a5,5,0,0,0-10-.72l-3.64,49.76Z" style="fill:#5e4b8b"/><path d="M651,245.84l.68-46.83a5,5,0,0,0-10-.15l-.69,47Z" style="fill:#5e4b8b"/><path d="M645.92,245.87l3.27-27.1a5,5,0,0,0-9.93-1.2l-3.42,28.34Z" style="fill:#8fb2ae"/><path d="M662.19,245.81l5.13-42.45a5,5,0,0,0-9.93-1.2l-5.28,43.67Z" style="fill:#5e4b8b"/><path d="M673.33,245.81l-.24-29.33a5,5,0,0,0-10,.08l.24,29.26Z" style="fill:#8fb2ae"/><path d="M626.53,247.45l-3.7-50.57a6,6,0,0,1,1.62-4.53,6.64,6.64,0,0,1,4.42-2.1,6.37,6.37,0,0,1,6.93,5.69l3.76,51.44H638l-10,.05Zm2.84-54.22h-.29a3.65,3.65,0,0,0-2.43,1.15,3,3,0,0,0-.82,2.28l3.49,47.76,7,0-3.52-48.24A3.34,3.34,0,0,0,629.37,193.23Z" style="fill:#cdd0e0"/><path d="M682,247.31h-13l3.75-51.37a6.38,6.38,0,0,1,6.94-5.69,6.68,6.68,0,0,1,4.42,2.1,6,6,0,0,1,1.61,4.53Zm-9.68-3h6.89l3.49-47.64a3,3,0,0,0-.83-2.28,3.65,3.65,0,0,0-2.43-1.15,3.36,3.36,0,0,0-3.72,2.92l-3.53,48.15Z" style="fill:#cdd0e0"/><path d="M639.51,247.38l.71-48.54a6.35,6.35,0,0,1,6.48-6.08h.11a6.64,6.64,0,0,1,4.53,1.84,6,6,0,0,1,1.88,4.43l-.71,48.3H651l-10,0Zm7.25-51.62a3.37,3.37,0,0,0-3.54,3.12l-.66,45.49,7,0,.66-45.36a3,3,0,0,0-1-2.22,3.65,3.65,0,0,0-2.5-1Z" style="fill:#cdd0e0"/><path d="M650.42,247.34,655.9,202a6.35,6.35,0,0,1,7.19-5.35,6.62,6.62,0,0,1,4.32,2.3,6,6,0,0,1,1.4,4.61l-5.29,43.77h-1.33l-10.07,0Zm11.84-47.76a3.29,3.29,0,0,0-3.38,2.76l-5.07,42,7.05,0,5-41.13a3,3,0,0,0-.72-2.32,3.67,3.67,0,0,0-2.38-1.25A3.59,3.59,0,0,0,662.26,199.58Z" style="fill:#cdd0e0"/><path d="M673.33,245.81l-.24-29.33a5,5,0,0,0-10,.08l.24,29.26Z" style="fill:#7379ba"/><path d="M661.84,247.32l-.25-30.75a6,6,0,0,1,1.91-4.42,6.69,6.69,0,0,1,4.55-1.81,6.36,6.36,0,0,1,6.54,6.13l.25,30.84h-13Zm6.26-34a3.67,3.67,0,0,0-2.53,1,3,3,0,0,0-1,2.22l.22,27.76h7l-.22-27.82A3.36,3.36,0,0,0,668.1,213.34Z" style="fill:#cdd0e0"/><path d="M621.42,246l10.42-.07L620,206.29a5,5,0,0,0-9.58,2.86Z" style="fill:#7379ba"/><path d="M621.31,247.49,610,209.58a6,6,0,0,1,.6-4.78,6.68,6.68,0,0,1,3.86-3,6.88,6.88,0,0,1,1.95-.29,6.21,6.21,0,0,1,6.05,4.35l12.41,41.54h-2l-10.42.07Zm-4.92-43a3.74,3.74,0,0,0-1.09.16,3.68,3.68,0,0,0-2.13,1.64,3,3,0,0,0-.31,2.41l10.68,35.75,7.29,0-11.27-37.71A3.21,3.21,0,0,0,616.39,204.51Z" style="fill:#cdd0e0"/><path d="M645.92,245.87l3.27-27.1a5,5,0,0,0-9.93-1.2l-3.42,28.34Z" style="fill:#7379ba"/><path d="M634.15,247.42l3.62-30A6.36,6.36,0,0,1,645,212a6.59,6.59,0,0,1,4.31,2.31,6,6,0,0,1,1.4,4.6l-3.43,28.41h-1.33l-10.07,0Zm10-32.43a3.31,3.31,0,0,0-3.39,2.76l-3.22,26.65,7.06,0,3.11-25.78a3,3,0,0,0-.71-2.31,3.63,3.63,0,0,0-2.38-1.26Z" style="fill:#cdd0e0"/><path d="M689.12,245.82l11-36.67a5,5,0,0,0-9.59-2.86l-11.8,39.52Z" style="fill:#7379ba"/><path d="M690.24,247.32H676.67l12.39-41.45a6.18,6.18,0,0,1,6-4.35,6.82,6.82,0,0,1,1.95.29,6.62,6.62,0,0,1,3.86,3,6,6,0,0,1,.6,4.78Zm-9.54-3H688l10.64-35.6a3.07,3.07,0,0,0-.32-2.41,3.65,3.65,0,0,0-2.13-1.64,3.69,3.69,0,0,0-1.09-.16,3.22,3.22,0,0,0-3.17,2.21Z" style="fill:#cdd0e0"/><rect x="57.35" y="210.24" width="12" height="97.5" style="fill:#271f3e"/><path d="M70.85,309.23h-15V208.74h15Zm-12-3h9V211.74h-9Z" style="fill:#cdd0e0"/><path d="M118.1,307.73a5.25,5.25,0,0,1-5.25,5.25h-78a5.25,5.25,0,0,1-5.25-5.25h0a5.25,5.25,0,0,1,5.25-5.25h78a5.25,5.25,0,0,1,5.25,5.25Z" style="fill:#271f3e"/><path d="M112.85,314.48h-78a6.75,6.75,0,0,1,0-13.5h78a6.75,6.75,0,1,1,0,13.5Zm-78-10.5a3.75,3.75,0,0,0,0,7.5h78a3.75,3.75,0,1,0,0-7.5Z" style="fill:#cdd0e0"/><rect x="176.34" y="26" width="49.52" height="5" transform="translate(67.66 181.62) rotate(-57)" style="fill:#cdd0e0"/><rect x="-11.03" y="149.01" width="260.99" height="13.5" transform="translate(-76.09 172.88) rotate(-57.52)" style="fill:#271f3e"/><path d="M55.54,271.53l-13.92-8.86L183.39,40l13.92,8.86Zm-9.78-9.78,8.86,5.64L193.17,49.77l-8.86-5.64Z" style="fill:#cdd0e0"/><path d="M321.84,13a9.29,9.29,0,0,1-9.28,9.28H215.63A9.28,9.28,0,0,1,206.35,13h0a9.27,9.27,0,0,1,9.28-9.28h96.93A9.28,9.28,0,0,1,321.84,13Z" style="fill:#271f3e"/><path d="M312.56,23.78H215.63a10.78,10.78,0,0,1,0-21.56h96.93a10.78,10.78,0,0,1,0,21.56ZM215.63,5.22a7.78,7.78,0,0,0,0,15.56h96.93a7.78,7.78,0,0,0,0-15.56Z" style="fill:#cdd0e0"/><path d="M231.88,273.59h279a1,1,0,0,0,1-1.08V123.91a1,1,0,0,0-1-1.07h-279a1,1,0,0,0-1,1.07v148.6A1,1,0,0,0,231.88,273.59Zm43.38-129.68V125H509.91V145.7H275.26Zm-42.38,0V125h40.4V145.7h-40.4Zm0,125.75V147.84h277v123.6h-277Z" style="fill:#cdd0e0"/><path d="M242.48,205h143a1,1,0,0,0,1-1.07V158.2a1,1,0,0,0-1-1.07h-143a1,1,0,0,0-1,1.07v45.73A1,1,0,0,0,242.48,205Zm1-3.93v-41.8H384.54v43.59H243.47Z" style="fill:#cdd0e0"/><path d="M242.48,262.15h53a1,1,0,0,0,1-1.07V215.36a1,1,0,0,0-1-1.07h-53a1,1,0,0,0-1,1.07v45.72A1,1,0,0,0,242.48,262.15ZM286.71,260H244.88l2.83-3.05,15.13-16.32,1-1,1.13.81,22.7,16.33,4.55,3.27Zm7.76-14.65v13.72l-2.57-1.85-13.86-10-1.68-1.21,1.43-1.54,6.15-6.64,1-1.09,1.15.93,7.7,6.23.66.53Zm-51,8.82V216.43h51v25.36l-2.65-2.14-6.36-5.15a1,1,0,0,0-1.3.1l-8.53,9.21-1,1-1.13-.81-9.31-6.7a1,1,0,0,0-.55-.18,1,1,0,0,0-.71.31l-16.67,18-2.83,3.05Z" style="fill:#cdd0e0"/><path d="M306.06,233.58h79.47a1,1,0,0,0,1-1.08V215.36a1,1,0,0,0-1-1.07H306.06a1,1,0,0,0-1,1.07V232.5A1,1,0,0,0,306.06,233.58Zm1-3.93V216.43h77.49v15H307.05Z" style="fill:#cdd0e0"/><path d="M306.06,262.15h79.47a1,1,0,0,0,1-1.07V243.94a1,1,0,0,0-1-1.08H306.06a1,1,0,0,0-1,1.08v17.14A1,1,0,0,0,306.06,262.15Zm1-3.93V245h77.49v15H307.05Z" style="fill:#cdd0e0"/><rect x="315.66" y="222.86" width="60.27" height="2.14" style="fill:#cdd0e0"/><rect x="315.66" y="251.44" width="60.27" height="2.14" style="fill:#cdd0e0"/><path d="M244.13,134.94a3.67,3.67,0,1,1-3.65-3.94A3.81,3.81,0,0,1,244.13,134.94Z" style="fill:#cdd0e0"/><path d="M256.72,134.94a3.66,3.66,0,1,1-3.65-3.94A3.8,3.8,0,0,1,256.72,134.94Z" style="fill:#cdd0e0"/><path d="M269.32,134.94a3.67,3.67,0,1,1-3.66-3.94A3.81,3.81,0,0,1,269.32,134.94Z" style="fill:#cdd0e0"/><path d="M391.39,176.27h79.47a1,1,0,0,0,1-1.07V158.05a1,1,0,0,0-1-1.07H391.39a1,1,0,0,0-1,1.07V175.2A1,1,0,0,0,391.39,176.27Zm1-3.93V159.13h77.49v15H392.38Z" style="fill:#cdd0e0"/><polygon points="346.76 193.81 346.76 215.13 352.25 209.65 356.23 217.32 359.12 215.82 355.29 208.43 362.69 208.43 346.76 193.81" style="fill:#fff"/><rect x="188.08" y="176.43" width="62.74" height="127.65" rx="10.82" ry="10.82" style="fill:#271f3e"/><path d="M240,305.27H198.9a12,12,0,0,1-12-12v-106a12,12,0,0,1,12-12H240a12,12,0,0,1,12,12v106A12,12,0,0,1,240,305.27ZM198.9,177.62a9.64,9.64,0,0,0-9.62,9.62v106a9.64,9.64,0,0,0,9.62,9.63H240a9.64,9.64,0,0,0,9.62-9.63v-106a9.64,9.64,0,0,0-9.62-9.62Z" style="fill:#cdd0e0"/><path d="M245.29,291.74a7.31,7.31,0,0,1-7.52,7.07H201.13a7.3,7.3,0,0,1-7.51-7.07V188.33a7.3,7.3,0,0,1,7.51-7.07h36.64a7.3,7.3,0,0,1,7.52,7.07Z" style="fill:url(#linear-gradient-2)"/><path d="M233.23,182a2.8,2.8,0,0,1-2.8,2.8h-22a2.8,2.8,0,0,1-2.79-2.8h0a2.79,2.79,0,0,1,2.79-2.8h22a2.8,2.8,0,0,1,2.8,2.8Z" style="fill:#271f3e"/><path d="M257.41,304.73a18,18,0,0,0-18-18h-40.5a18,18,0,0,0-15.57,27H255A17.82,17.82,0,0,0,257.41,304.73Z" style="fill:#fff"/><path d="M255.85,315.23H182.48l-.44-.75a19.48,19.48,0,0,1,16.87-29.25h40.5a19.48,19.48,0,0,1,16.87,29.25Zm-71.62-3h69.86a16.47,16.47,0,0,0-14.68-24h-40.5a16.47,16.47,0,0,0-14.68,24Z" style="fill:#cdd0e0"/><rect x="218.04" y="225.24" width="2.25" height="6" style="fill:#fff"/><rect x="212.79" y="226.64" width="2.25" height="6" transform="translate(-86.17 137.74) rotate(-30)" style="fill:#fff"/><rect x="208.94" y="230.48" width="2.25" height="6" transform="translate(-97.15 298.78) rotate(-60.02)" style="fill:#fff"/><rect x="205.66" y="237.61" width="6" height="2.25" style="fill:#fff"/><rect x="207.07" y="242.86" width="6" height="2.25" transform="translate(-93.85 137.74) rotate(-30)" style="fill:#fff"/><rect x="210.91" y="246.7" width="6" height="2.25" transform="translate(-107.69 309.08) rotate(-59.98)" style="fill:#fff"/><rect x="218.04" y="246.23" width="2.25" height="6" style="fill:#fff"/><rect x="223.28" y="244.83" width="2.25" height="6" transform="translate(-93.86 145.45) rotate(-30.01)" style="fill:#fff"/><rect x="227.13" y="240.99" width="2.25" height="6" transform="translate(-97.14 319.79) rotate(-60.02)" style="fill:#fff"/><rect x="226.66" y="237.61" width="6" height="2.25" style="fill:#fff"/><rect x="225.25" y="232.36" width="6" height="2.25" transform="translate(-86.13 145.29) rotate(-29.98)" style="fill:#fff"/><rect x="221.41" y="228.52" width="6" height="2.25" transform="translate(-86.65 309.25) rotate(-60.01)" style="fill:#fff"/></g></g></g></svg>