<svg xmlns="http://www.w3.org/2000/svg" viewBox="120 0 100 30">
    <path
      class="path"
      stroke="#7B6077"
      stroke-width="1"
      fill="none"
      d="M155.92,2.48a16.86,16.86,0,0,1-.27,2.66c-.21,1.41-.34,2.3-.4,2.66q-.13,1.4-.45,9.28c-.18,4.81-.27,7.46-.27,8q0,4.83.85,6.81a.93.93,0,0,1-.81.49,1.75,1.75,0,0,1-1-.44,2.08,2.08,0,0,1-.7-.9,21,21,0,0,0-.27-2.75q-2.66,3.38-5.08,3.38a5.2,5.2,0,0,1-4.5-2.21,8.4,8.4,0,0,1-1.35-5,24.08,24.08,0,0,1,1.39-7.84q1.8-5.3,4.77-5.3a4.38,4.38,0,0,1,2.57.94c.18.12.88.75,2.11,1.89A121,121,0,0,0,153,.68a1.17,1.17,0,0,1,.86-.32,2,2,0,0,1,1.48.63A2,2,0,0,1,155.92,2.48Zm-3.37,16.64a7,7,0,0,0-.9-3.55,3.28,3.28,0,0,0-2.93-1.89q-2.25,0-3.6,4.59A22,22,0,0,0,144,24.8a8.49,8.49,0,0,0,.63,3.42,2.74,2.74,0,0,0,2.57,1.88c1.86,0,3.27-1.43,4.23-4.31A20.15,20.15,0,0,0,152.55,19.12Z"
    />
    <path
      class="path"
      stroke="#7B6077"
      stroke-width="1"
      fill="none"
      d="M169,13.5a11.3,11.3,0,0,1-.38,2.43,12,12,0,0,0-.38,2.43v10a11.32,11.32,0,0,0,.45,2.7.56.56,0,0,1-.5.36c-1.47,0-2.2-.71-2.2-2.12V12.74a2.36,2.36,0,0,1,1.12-.32,2.4,2.4,0,0,1,1.13.32C168.72,13,169,13.2,169,13.5Zm.86-6.75q0,1.53-1.44,1.53a2.35,2.35,0,0,1-1.58-.63,1.88,1.88,0,0,1-.72-1.44,1.35,1.35,0,0,1,1.53-1.53,2.28,2.28,0,0,1,1.56.59A1.91,1.91,0,0,1,169.83,6.75Z"
    />
  </svg>
