<svg viewBox="150 0 65 60" xmlns="http://www.w3.org/2000/svg">
  <path
    class="path"
    d="M184.47,16.21q2.66,2.73,2.81,4.25c.09,1-.48,2-1.73,2.95-1.06.77-2.28,1.64-3.67,2.63s-3,2-4.83,3.13c-1,.62-1.58.73-1.87.32s-.07-.87.65-1.4q2-1.44,3.71-2.84T183.32,22a2.86,2.86,0,0,0,1.08-2,6.76,6.76,0,0,0-1.23-3.06A11,11,0,0,1,182,14.77c-.67.19-1.33.41-2,.65l-1.91.72a2.61,2.61,0,0,1-1.76.29c-.41-.15-.66-.63-.76-1.44a1.75,1.75,0,0,1,.25-1.44,10.17,10.17,0,0,1,1.12-1,9.13,9.13,0,0,0,1.22-1.37,20.3,20.3,0,0,0,1.23-1.84c.38-.64.72-1.28,1-1.9A9.23,9.23,0,0,0,181,5.91c.48-1.82-.29-3-2.3-3.52q-1.87-.66-3.53,2.16-.44.72-.9,1.62a23.23,23.23,0,0,0-1,2.16c-.34.84-.73,1.84-1.19,3s-1,2.58-1.55,4.21c-.33,1-.65,1.79-.93,2.49s-.58,1.36-.87,2-.6,1.3-.93,2-.72,1.38-1.16,2.19c-.24.53-.5,1.17-.79,1.91s-.55,1.5-.79,2.27c-.34,1.15-.71,1.71-1.12,1.69s-.73-.76-1-2.2a17.17,17.17,0,0,1,0-5,2.62,2.62,0,0,0-.75-1.59,3.27,3.27,0,0,0-1.48-.79,5.33,5.33,0,0,0-1.84-.11,6.55,6.55,0,0,0-1.69.4,33.22,33.22,0,0,0-4.89,4c-.77.82-1.3,1.15-1.59,1s-.38-.77-.29-1.87a5.12,5.12,0,0,1,.65-2.27,3.32,3.32,0,0,1,1.59-1.19,17.66,17.66,0,0,0,3.52-2.38,44.58,44.58,0,0,0,5.12-5A2.32,2.32,0,0,0,162,11,7.33,7.33,0,0,0,160.13,8c-.57-.62-.73-1-.47-1.29s.83,0,1.7.86a23.1,23.1,0,0,1,2.41,2.48,5.42,5.42,0,0,1,1,1.84,2,2,0,0,1,0,1.37,3.27,3.27,0,0,1-.83,1.08c-.91.81-1.71,1.54-2.38,2.16s-1.44,1.29-2.3,2a6.16,6.16,0,0,1,3.35.18,2.52,2.52,0,0,1,1.69,1.55c.14.67.45,1,.93,1s1-.44,1.52-1.26q1.73-2.88,3.2-5.86t2.48-5.58a20.82,20.82,0,0,1,3-5.87A3.87,3.87,0,0,1,178.78,1a6.46,6.46,0,0,1,2.59.75,5.49,5.49,0,0,1,1.73,1.48,3.84,3.84,0,0,1,.76,1.84,3.21,3.21,0,0,1-.33,1.83C182.91,8,182.36,9,181.88,9.84s-1.11,1.81-1.88,2.91c1.25-.28,2.45-.54,3.6-.75s2.28-.42,3.39-.61c1.34-.2,2.46-.33,3.35-.4a6.25,6.25,0,0,1,2.55.32c1.11.39,1.69.75,1.77,1.08s-.35.56-1.26.65l-2.74.33-3.82.46a34,34,0,0,0-4.1.8,3.82,3.82,0,0,1,.76.61ZM152.36,38.1c.33-.82.67-1.23,1-1.23s.44.48.29,1.44a5.55,5.55,0,0,0,.43,2.63c.39,1,.94,2.17,1.66,3.57.19.38.37.73.54,1s.32.64.47,1h.07a47.46,47.46,0,0,1,.72-5.61,10,10,0,0,1,1.22-3.32,5.39,5.39,0,0,1,2.16-1.9,33.73,33.73,0,0,1,3.6-1.48c3-1,5.6-1.82,7.85-2.45V30.5c0-.41,0-.83.07-1.26a5.27,5.27,0,0,0-.75-3.49,6.11,6.11,0,0,0-2.77-1.62c-.72-.24-1-.53-1-.86s.66-.39,1.77-.15a18.94,18.94,0,0,1,2.7.76A3.85,3.85,0,0,1,174,25a3.5,3.5,0,0,1,.72,1.83,20.78,20.78,0,0,1,.07,3.1v.58a3.12,3.12,0,0,1-.07.64c1-.24,1.86-.44,2.7-.61s1.67-.32,2.48-.47a30.1,30.1,0,0,1,3.31-.21,13.65,13.65,0,0,1,2.85.29,14.77,14.77,0,0,1,2.84.9c1,.4,2.07.92,3.31,1.54q2.67,1.44,3.28,2.85a2,2,0,0,1-.4,2.41,5.41,5.41,0,0,0-.82,1.58c-.27.72-.59,1.8-1,3.24s-.82,3.18-1.33,4.79-1,3.15-1.55,4.61a39.83,39.83,0,0,1-1.65,4,11.27,11.27,0,0,1-1.73,2.7c-.67.82-1.28,1.22-1.84,1.22a1.65,1.65,0,0,1-1.4-.93c-.48-.72-.91-1.43-1.3-2.13s-.74-1.3-1.08-1.83a22,22,0,0,0-4-.25,41,41,0,0,0-4.93.39,41.4,41.4,0,0,0-10.66,2.59c.38,1.16.4,1.79,0,1.91s-.86-.23-1.48-1a16.94,16.94,0,0,1-2-3c-.48-1-1-2.18-1.65-3.67l-2.13-4.61c-.6-1.29-1.21-2.71-1.83-4.24A6.57,6.57,0,0,1,152.36,38.1Zm5.4,9.79c-.1,0-.15,0-.15-.07a.36.36,0,0,1,0,.18.12.12,0,0,0,0,.11c.67,1.39,1.31,2.73,1.91,4s1.19,2.59,1.76,3.89a27.32,27.32,0,0,1,4-1.41q2.67-.75,5.55-1.26c.14-1.39.27-2.76.39-4.1s.23-2.69.33-4c-.82.24-1.68.5-2.59.79l-2.7.86-2.49.79c-.77.24-1.41.46-1.94.65a4.86,4.86,0,0,1-1.95.22A4.39,4.39,0,0,1,157.76,47.89Zm.43-1.58a11.65,11.65,0,0,0,1.73-.26c.86-.16,1.9-.39,3.13-.68s2.58-.62,4.07-1l4.53-1.15c.1-1.49.19-3,.29-4.46s.19-3,.29-4.54c-.91.24-1.9.46-2.95.65l-3.68.65a16.55,16.55,0,0,0-3.31.93,5.69,5.69,0,0,0-2.3,1.77,8.69,8.69,0,0,0-1.48,3.13,30.17,30.17,0,0,0-.83,5Zm16.49-2a1.2,1.2,0,0,1-.4.11,2.31,2.31,0,0,0-.47.11c-.09,1.63-.23,3.17-.39,4.61s-.3,2.71-.4,3.81h.5a31.61,31.61,0,0,1,6-.25,9.67,9.67,0,0,1,3.42.68c.67.39,1,.77,1.08,1.16s-.22.6-.8.64q1.44,1.16,2.13.87a3.87,3.87,0,0,0,1.47-2c1-2.2,1.76-4.22,2.38-6s1.22-3.87,1.8-6.12a.59.59,0,0,0-.22-.08.5.5,0,0,1-.21-.07A9.11,9.11,0,0,0,188,42c-1.37.19-2.9.43-4.61.72s-3.37.6-5,.93S175.54,44.22,174.68,44.36Zm16.2-4.1a2.06,2.06,0,0,0,.5.36c.14-.48.29-1.06.43-1.73a4.64,4.64,0,0,0-.07-3.17,5.29,5.29,0,0,0-2.23-2.09,15.62,15.62,0,0,0-5.11-1.8,11.36,11.36,0,0,0-5,.44c-.92.24-1.74.46-2.49.68l-2.27.68c-.09,1.3-.19,2.72-.28,4.25S174.1,41,174,42.63l5.58-1.47L183.68,40a12,12,0,0,1,4.24-.68A6,6,0,0,1,190.88,40.26Z"
    stroke="#7B6077"
    stroke-width="1"
    fill="none"
  />
</svg>
