<svg xmlns="http://www.w3.org/2000/svg" viewBox="0 0 250 220">
  <path
    class="path"
    id="dance"
    d="M199.26,38.91c-1.55-1.34-4.89-1.34-8.23,1.11a50.24,50.24,0,0,1-11.56,6.45c-2.67,1.11-3.33,4-3.33,5.56a142.65,142.65,0,0,0-17.79,8,52.36,52.36,0,0,0-6.67.45c-.23,0-.23,0-.45.22L138.78,75.82,111,83.16c-1.34.44-4.45-.45-6-1.12a20.9,20.9,0,0,0-2.22-1.11h-.22A2.68,2.68,0,0,1,101,79.38a3.85,3.85,0,0,1,0-2.23l1.11-2.44A34.29,34.29,0,0,1,109.43,66c.44-.22.89-.66,1.33-.89a23.61,23.61,0,0,0,2.45-1.77,47.59,47.59,0,0,1,5.78-4.9c4.45-2.22,10.67-5.78,19.12-10.67A16.39,16.39,0,0,0,142.78,44c10.23-7.56,20.9-20.9,21.57-21.57.45-.44,2.22-2.22,3.78-8.67,1.78-7.12-2-11.12-2.22-11.34h-.22c-1.56-2.22-3.12-2.45-4.23-2-2.22,1.11-2.22,5.11-2.22,8v2.23c-.23,3.33-.89,4.67-1.11,4.89L154.35,18c-4.45,3.12-14.46,11.79-18.91,15.57a20.9,20.9,0,0,0,.45-14.23c-1.56-3.78-4.23-6.67-8-7.78-1.55-3.34-5.78-4.45-9.33-4-3.12.45-5.56,1.78-6.23,3.78A15.7,15.7,0,0,0,98.53,28a15.24,15.24,0,0,0,5.56,10.45,12.23,12.23,0,0,1-2.89,3.78c-9.56-5.11-15.12-10.67-15.12-10.89-.22-.23-12.67-16-17.34-20.91L65.4,7.11c-.22-.22-6.22-6-10.45-6s-6.67.22-9.34,1.77a2.12,2.12,0,0,0-1.33,2.23C44.5,6.66,46.72,8,48.72,8.67c3.12.88,8.23,3.11,9.34,3.55C59,14,66.74,28.23,75,37.35a13.67,13.67,0,0,0,3.78,4.45c1.34,1.33,2.45,2.22,3.56,3.33.67.67,1.33,1.11,2,1.78a28.3,28.3,0,0,0-5.78,2.89c-4.89,3.56-5.34,9.56-5.56,13.57,0,.89-.22,1.77-.22,2.22-.22,2-.45,3.33-.67,5.56-.22,1.56-.22,3.78-.66,6.89-.67,7.56,4.89,15.57,5.33,16.46.22.44.89,3.11-.67,4.44l-.22.45c-15.12,12.45-24.68,23.12-30,30.24l-20,27.57c0,.22-.22.45,0,.45,0,.22.22.22.45.44a2.5,2.5,0,0,0,.89.45c-2.67,4.22-6.23,9.78-7.34,11.11a28.35,28.35,0,0,1-3.56,4c-4.67,2.89-15.79,15.12-16,18.23a3.54,3.54,0,0,0,2.22,3.34,4.52,4.52,0,0,0,2,.44c1.56,0,3.78-.67,6.45-3.34,2.45-2.44,5.56-3.33,8.23-4a11.69,11.69,0,0,0,5.11-2c2.67-2.22,2-7.78,1.56-9.34a145.31,145.31,0,0,0,11.56-9.56,16.86,16.86,0,0,0,4.67,2.22h.23c.22,0,.44,0,.44-.22.67-1.11,17.79-25.13,19.35-31.13L93.2,118.51,111,108.06c.22,0,19.12-8.67,30.9-16.23s27.35-22,27.58-22.24c2.22-1.78,4.22-3.56,6-5.11,2-1.78,3.56-3.12,4.22-3.56A40.92,40.92,0,0,1,184.14,58c5.56-1.56,14.9-13.56,15.79-16A2.39,2.39,0,0,0,199.26,38.91ZM155,19.34l4-2.67.23-.22a15.89,15.89,0,0,0,1.33-5.56V8.67c0-2.45,0-6.23,1.56-7.12.66-.44,1.78-.22,3.33.89.45.44,3.34,4,1.78,10.23-1.55,6.45-3.56,8.23-3.56,8.23h0c0,.22-10.89,13.78-21.56,21.56A26.88,26.88,0,0,1,137.89,46c-8.67,5.12-14.68,8.45-19.34,10.68h0a50.5,50.5,0,0,0-6,5.11,19.6,19.6,0,0,1-2.22,1.78,4.73,4.73,0,0,1-1.34.89c-.22,0-3.55,2.67-7.11,8.23a49.57,49.57,0,0,1-3.78-9.12v-.22a10.69,10.69,0,0,1,6-13.12l13.57-5.78c10.67-3.12,16.45-7.56,16.9-8h0C134.33,36.46,149.45,23.34,155,19.34ZM118.55,8.89c3.11-.22,6.89.66,8.22,3.56,0,.22.22.22.45.22A11,11,0,0,1,134.56,20,18.44,18.44,0,0,1,133,35.57c-.67.67-6.23,4.67-16.23,7.78l-.89-.44a4.91,4.91,0,0,1-2.45-2.67.22.22,0,0,0,.22-.22c1.12.22,2.67,0,4.23-1.78A3.07,3.07,0,0,0,119,35.35,5.1,5.1,0,0,0,116.32,32c1.56-1.11,4.45-4.22,3.78-9.78-.67-4.89-2-8.23-4.22-9.78a3.59,3.59,0,0,0-2.23-.89C114.32,10.22,116.1,9.11,118.55,8.89ZM99.87,28.23a14.53,14.53,0,0,1,12.89-15.56h0a3.17,3.17,0,0,1,2.45.89c1.33.89,3.11,3.33,3.78,8.89a8.8,8.8,0,0,1-4,9.12.48.48,0,0,0-.45.44.76.76,0,0,0,.23.45c.66.44,2.66,1.55,2.89,3.11a3,3,0,0,1-.67,1.78,4,4,0,0,1-3.56,1.33,1.3,1.3,0,0,0-.89.23c-.44.44-.22,1.33.22,2h0A14,14,0,0,1,99.87,28.23Zm5.33,11.34a17.38,17.38,0,0,0,8.23,2.89h.22c.45.45.67.89,1.12,1.12C111.21,45.13,99,50,94.09,50H93.2c-1.56-.22-2.67-.66-2.89-1.33a1,1,0,0,1,.22-1.11,21.43,21.43,0,0,0,9.56-2.45A3.94,3.94,0,0,0,101.65,44h0A16.49,16.49,0,0,0,105.2,39.57ZM83.41,44.24c-1.11-.89-2.22-2-3.78-3.33a16.38,16.38,0,0,1-3.56-4.23c-8.89-9.56-16.89-24.9-16.89-25.12a.23.23,0,0,0-.23-.23s-6.22-2.44-9.56-3.55C47.17,7.11,45.83,6,45.61,5.33c0-.44.22-.67.67-.89C48.5,3.11,50.73,2.88,55,2.88c3.78,0,9.56,5.56,9.56,5.56l3.34,3.34C72.52,16.67,85,32.46,85.19,32.68a60.17,60.17,0,0,0,14.9,10.9c-.22.22-.45.22-.67.44a21.24,21.24,0,0,1-9.34,2.45h-.44a14.89,14.89,0,0,0-3.78.44A14.14,14.14,0,0,0,83.41,44.24ZM73,78.26c.22-3.11.45-5.33.67-6.89a41.07,41.07,0,0,1,.67-5.56c0-.67.22-1.55.22-2.44.22-4,.67-9.57,5.11-12.68a18.63,18.63,0,0,1,9.56-3.56,1.91,1.91,0,0,0,0,1.56C89.64,49.8,91,50.47,93,50.91c2.67.45,8.23-1.11,13.35-2.89l-3.12,1.34A11.81,11.81,0,0,0,96.53,64v.23A55.53,55.53,0,0,0,100.76,74l-1.12,2.22a4.39,4.39,0,0,0,0,3.34,4.05,4.05,0,0,0,2.45,2.22h.22a9.55,9.55,0,0,1,2,.89c-2.22,1.78-10.45,8.9-14.89,10.23a22.17,22.17,0,0,1-7.12.89c-2,0-3.78-.22-4.45-.22C77.19,92.5,72.29,84.93,73,78.26Zm-48,97.62a.82.82,0,0,0-.22.67c.44,1.78.89,6.89-1.11,8.67A11.46,11.46,0,0,1,18.93,187c-2.89.66-6.23,1.55-8.9,4.22-3.78,3.78-6.44,3.12-7.11,2.67a2.68,2.68,0,0,1-1.56-2c.22-2.22,10.45-14.45,15.34-17.34a31,31,0,0,0,3.78-4.23c.89-1.11,3.12-4.45,7.34-11.12a15.62,15.62,0,0,1,5.56,4.67,7.75,7.75,0,0,0,2.67,2.67A144.71,144.71,0,0,1,24.93,175.88ZM141.45,90.72c-11.79,7.56-30.69,16-30.91,16L92.75,117.18l-31.35,20c-.22,0-.22.22-.22.44-.89,4.9-16.68,27.35-19.13,30.47-1.33-.45-5.56-2.23-7.33-5.12a19.83,19.83,0,0,0-7.34-5.78L47,130.3c5.33-6.9,14.89-17.57,29.79-30l.45-.45a5,5,0,0,0,1.33-4.89c.89,0,2.22.22,4,.22a23.59,23.59,0,0,0,7.34-.89c5.12-1.55,14.68-10,15.79-10.89,1.78.67,4.22,1.33,5.78.89l28-7.34c.22,0,.22,0,.22-.22l12.45-15.12a42.66,42.66,0,0,1,11.12,0c4.89.66,5.56,5.78,5.56,7.11C166.8,70.48,152.57,83.6,141.45,90.72ZM199,41.57c-.89,2.67-10,14-14.9,15.35a34.45,34.45,0,0,0-4.89,2.89c-.67.44-2.22,1.78-4.23,3.56-1.55,1.33-3.33,2.89-5.11,4.44-.22-2.22-1.56-6.67-6.45-7.33a10.49,10.49,0,0,0-2.67-.23A149.37,149.37,0,0,1,177,53.14c.22,0,.44-.45.44-.67s-.22-3.56,2.67-4.89a56.78,56.78,0,0,0,11.78-6.67c2.89-2,5.56-2,6.67-1.11A1.48,1.48,0,0,1,199,41.57Z"
    style="stroke:#F37343;;fill:none;stroke-miterlimit:10;stroke-width:0.5px"
  />
</svg>
