<svg xmlns="http://www.w3.org/2000/svg" viewBox="0 -1 250 220">
  <path
    class="path"
    d="M13.09,47.65V66.19a.77.77,0,0,0,.76.77h172.3a.77.77,0,0,0,.76-.77v-21h3.6a.78.78,0,0,0,.77-.77V18.21a.77.77,0,0,0-.77-.76.76.76,0,0,0-.76.76V30.37l-.39-.07-2.59-.5-84-16.19L101,13.27l-.27,0V.76a.76.76,0,1,0-1.52,0V13.22l-.27,0-1.77.34-84,16.19-2.59.5-.39.07V18.21a.76.76,0,0,0-.76-.76.77.77,0,0,0-.77.76V44.38a.78.78,0,0,0,.77.77h3.6v2.5Zm172.3-2.18v20H14.61V45.15H185.39ZM12.76,43.62H10.25V31.93l.27-.05,1.76-.34L99.53,14.72l.41-.08h.12l.41.08,87.25,16.82,1.76.34.27.05V43.62h-177Z"
    style="stroke:#F37343;;fill:none;stroke-miterlimit:10;stroke-width:0.5px"
  />
  <path
    class="path"
    d="M8.72,144.54v12.32h-8a.77.77,0,0,0-.76.77v13.08a.77.77,0,0,0,.76.77H199.24a.77.77,0,0,0,.76-.77V157.63a.77.77,0,0,0-.76-.77h-8V144.54a.77.77,0,0,0-.77-.76H178.19V75.68h3.6a.76.76,0,0,0,.76-.76.77.77,0,0,0-.76-.77H160a.78.78,0,0,0-.77.77.77.77,0,0,0,.77.76h3.6v68.1H142.75V75.68h3.6a.76.76,0,0,0,.76-.76.77.77,0,0,0-.76-.77H124.54a.78.78,0,0,0-.77.77.77.77,0,0,0,.77.76h3.6v68.1H107.31V75.68h3.6a.76.76,0,0,0,.76-.76.77.77,0,0,0-.76-.77H89.09a.77.77,0,0,0-.76.77.76.76,0,0,0,.76.76h3.6v68.1H71.86V75.68h3.6a.77.77,0,0,0,.77-.76.78.78,0,0,0-.77-.77H53.65a.77.77,0,0,0-.76.77.76.76,0,0,0,.76.76h3.6v68.1H36.42V75.68H40a.77.77,0,0,0,.77-.76.78.78,0,0,0-.77-.77H18.21a.77.77,0,0,0-.76.77.76.76,0,0,0,.76.76h3.6v68.1H9.49A.77.77,0,0,0,8.72,144.54Zm156.38-1.09V75.68h11.56v68.1H165.1Zm-35.44,0V75.68h11.56v68.1H129.66Zm-35.44,0V75.68h11.56v68.1H94.22Zm-35.44,0V75.68H70.34v68.1H58.78Zm-35.44,0V75.68H34.9v68.1H23.34ZM10.25,156.54V145.3h179.5v11.56h-141a.78.78,0,0,0-.77.77.77.77,0,0,0,.77.76H198.47V170H1.53V158.39H35.66a.76.76,0,0,0,.76-.76.77.77,0,0,0-.76-.77H10.25Z"
    style="stroke:#F37343;;fill:none;stroke-miterlimit:10;stroke-width:0.5px"
  />
</svg>
