<svg width="18px" height="28px" viewBox="0 0 18 28" version="1.1" xmlns="http://www.w3.org/2000/svg" xmlns:xlink="http://www.w3.org/1999/xlink">
    <g id="Welcome" stroke="none" stroke-width="1" fill="none" fill-rule="evenodd">
        <g id="Desktop-HD" transform="translate(-694.000000, -545.000000)" fill="#F5A623" fill-rule="nonzero">
            <g id="Group" transform="translate(686.000000, 514.000000)">
                <g id="port-sign" transform="translate(8.000000, 31.000000)">
                    <path d="M8.99950186,1.99475252 C12.839698,1.99475252 15.9646667,5.05660302 15.9646667,8.82032036 C15.9646667,12.5840377 12.839698,15.6449583 8.99950186,15.6449583 C5.1602546,15.6449583 2.03618729,12.5835727 2.03618729,8.82032036 C2.03618729,5.05660302 5.15978019,1.99475252 8.99950186,1.99475252 Z M8.99950186,0 C4.02882332,0 0,3.94905296 0,8.82073883 C0,13.6919597 8.99954931,28 8.99954931,28 C8.99954931,28 18,13.6920062 18,8.82073883 C17.9999526,3.948588 13.9716037,0 8.99950186,0 Z" id="Shape"></path>
                </g>
            </g>
        </g>
    </g>
</svg>
