<svg xmlns="http://www.w3.org/2000/svg" viewBox="0 0 250 220">
  <path
    class="path"
    d="M194,127V13.25A13.48,13.48,0,0,0,180.33,0H13.67A13.48,13.48,0,0,0,0,13.25V127a13.48,13.48,0,0,0,13.67,13.26H75.1L75,143.37c-.4,14.77-4.6,21.23-7.06,23.76a11.28,11.28,0,0,1-8.46,3.54,1.07,1.07,0,1,0,0,2.12h75a1.07,1.07,0,1,0,0-2.12,11.21,11.21,0,0,1-8.45-3.54c-2.46-2.52-6.65-9-7.06-23.76l-.09-3.08h61.43A13.48,13.48,0,0,0,194,127ZM2.33,102.65V13.25A11.25,11.25,0,0,1,13.67,2.13H180.33a11.25,11.25,0,0,1,11.34,11.12v92.4H2.33ZM122.26,166l3.12,4.67H68.62L71.74,166c4.63-6.92,5.51-17.24,5.63-22.78l.06-2.93h39.14l.06,2.93C116.75,148.76,117.63,159.08,122.26,166ZM13.67,138.16A11.25,11.25,0,0,1,2.33,127V107.78H191.67V127a11.25,11.25,0,0,1-11.34,11.13Z"
    style="stroke:#F37343;;fill:none;stroke-miterlimit:10;stroke-width:0.5px"
  />
  <path
    class="path"
    d="M87.5,74.21a1.17,1.17,0,0,0,2.33,0V49.83a9.51,9.51,0,0,0-19,0V74.21a1.18,1.18,0,0,0,2.34,0V67.14H87.5v7.07ZM84.5,65H73.17V49.83a7.17,7.17,0,0,1,14.33,0V65Z"
    style="stroke:#F37343;;fill:none;stroke-miterlimit:10;stroke-width:0.5px"
  />
  <path
    class="path"
    d="M113.67,75.27a9.36,9.36,0,0,0,9.5-9.19V49.83a9.36,9.36,0,0,0-9.5-9.19h-8.34a1.11,1.11,0,0,0-1.16,1.06V74.21a1.12,1.12,0,0,0,1.16,1.06Zm-7.17-5.13V42.76h7.17a7.12,7.12,0,0,1,7.16,7.07V66.08a7.12,7.12,0,0,1-7.16,7.06H106.5Z"
    style="stroke:#F37343;;fill:none;stroke-miterlimit:10;stroke-width:0.5px"
  />
  <path
    class="path"
    d="M97,128.59a5.63,5.63,0,1,1,5.83-5.62A5.73,5.73,0,0,1,97,128.59Zm0-10.25a4.63,4.63,0,1,0,4.83,4.63A4.74,4.74,0,0,0,97,118.34Z"
    style="stroke:#F37343;;fill:none;stroke-miterlimit:10;stroke-width:0.5px"
  />
</svg>
