<svg xmlns="http://www.w3.org/2000/svg" viewBox="50 0 100 30">
  <path
    class="path"
    stroke="#7B6077"
    stroke-width="1"
    fill="none"
    d="M95.85,29.16a1.06,1.06,0,0,1-.59.94,2.12,2.12,0,0,1-1.17.37q-2.88,0-11.06-13a.39.39,0,0,0-.39.14c-.1.12-.65,1.06-1.64,2.83s-2.22,3.8-3.33,5.72a29,29,0,0,0-2.57,6,2.45,2.45,0,0,1-1.43.58c-.63,0-1.48-.6-2.53-1.8.45-.42,1.11-1.06,2-1.93a80.44,80.44,0,0,0,4.55-7.11,74.22,74.22,0,0,0,3.87-6.71q0-.68-4-6.37t-4-6.77c0-1,.52-1.48,1.58-1.48a6.83,6.83,0,0,1,2.38.76l.13.27a12.37,12.37,0,0,0,1.94,5.85q1.71,2.7,3.42,5.36,1.84-2.79,5.26-8.6A27.84,27.84,0,0,1,90,1a2.07,2.07,0,0,1,1.62-1,1,1,0,0,1,.83.45,1.89,1.89,0,0,1,.38,1l-8.5,13.68a71.62,71.62,0,0,0,4.76,7.65q4.1,6,5.32,6a.71.71,0,0,0,.63-.4h.49A1.38,1.38,0,0,1,95.85,29.16Z"
  />
  <path
    class="path"
    stroke="#7B6077"
    stroke-width="1"
    fill="none"
    d="M107.64,13.5a12,12,0,0,1-.38,2.43,11.47,11.47,0,0,0-.39,2.43v10a11.32,11.32,0,0,0,.45,2.7.54.54,0,0,1-.49.36c-1.47,0-2.21-.71-2.21-2.12V12.74a2.4,2.4,0,0,1,1.13-.32,2.36,2.36,0,0,1,1.12.32C107.38,13,107.64,13.2,107.64,13.5Zm.85-6.75q0,1.53-1.44,1.53a2.33,2.33,0,0,1-1.57-.63,1.88,1.88,0,0,1-.72-1.44,1.35,1.35,0,0,1,1.53-1.53,2.24,2.24,0,0,1,1.55.59A1.88,1.88,0,0,1,108.49,6.75Z"
  />
  <path
    class="path"
    stroke="#7B6077"
    stroke-width="1"
    fill="none"
    d="M132.21,31.32a.79.79,0,0,1-.72.5,3.84,3.84,0,0,1-1.53-.63V28.44q0-14.94-3.72-14.94c-.78,0-1.61.57-2.51,1.71a16.48,16.48,0,0,0-3.4,10.67,17.38,17.38,0,0,0,.25,2.49,18.87,18.87,0,0,1,.24,2.5c0,.45-.3.68-.91.68-1.16,0-1.74-.95-1.74-2.84V18.5c0-.27,0-.66,0-1.17s.05-.9.05-1.17a12.62,12.62,0,0,0-.16-1.71,14.58,14.58,0,0,1-.16-1.67c0-.24.19-.52.57-.83a1.55,1.55,0,0,1,.87-.47,1.4,1.4,0,0,1,1.08.62c-.09,2-.13,3.1-.13,3.43s0,.88,0,1.3c.27-.09.63-.58,1.08-1.48A10.86,10.86,0,0,1,122.89,13a3.21,3.21,0,0,1,2.48-1.26,5.13,5.13,0,0,1,1.62.4,6,6,0,0,1,3.46,3,21.4,21.4,0,0,1,1.76,9.41Z"
  />
</svg>
