  <svg viewBox="70 0 65 60" xmlns="http://www.w3.org/2000/svg">
    <path
      class="path"
      d="M95.84,34.71c-.48,1.64-.87,3.14-1.16,4.5s-.52,2.67-.72,3.89-.33,2.4-.43,3.53-.17,2.29-.21,3.49a31.16,31.16,0,0,0,0,4.57c.12,1.32.25,2.44.4,3.35q.44,2.45-.15,2.67c-.38.14-.88-.36-1.51-1.52a14.48,14.48,0,0,1-1.37-3.67,12.08,12.08,0,0,1,0-4.17c.1-.82.18-1.82.26-3s.13-2.47.18-3.89.07-2.9.07-4.46,0-3.14-.07-4.72c0-1.15-.08-2.14-.08-2.95v-2a33.34,33.34,0,0,1-4.39,2.52c-1.25.58-2.61,1.13-4.1,1.66l-.87.21a79.72,79.72,0,0,1-1.33,10.08A55.86,55.86,0,0,1,77.76,54q-.57,1.44-1.11,1.44c-.36,0-.66-.74-.9-2.23A15.7,15.7,0,0,1,75.64,51a3.21,3.21,0,0,1,.68-1.84,7.65,7.65,0,0,0,1.05-2.3c.31-1,.66-2.42,1-4.25s.69-3.89.9-5.76a28.27,28.27,0,0,0,.18-5.11c0-.86,0-1.61-.07-2.23a9,9,0,0,0-.29-1.73,11,11,0,0,0-.54-1.55,11.88,11.88,0,0,0-.9-1.69,25.49,25.49,0,0,1-1.44-2.77A18.39,18.39,0,0,1,75.32,19q-.36-1.31,0-1.44c.27-.1.66.19,1.19.86a14.09,14.09,0,0,1,1,1.33q.48.69.9,1.26l.87-.36c.33-.14.69-.29,1.08-.43,1.68-.67,3.39-1.41,5.15-2.23a31.15,31.15,0,0,0,4.86-2.81,27.26,27.26,0,0,0,2.34-1.84,2.94,2.94,0,0,0,1-1.4,1.56,1.56,0,0,0-.29-1.26A9.09,9.09,0,0,0,92,9.15c-1-.86-1.33-1.41-1.12-1.65s.71-.17,1.48.21a28.77,28.77,0,0,1,2.92,1.8,14.39,14.39,0,0,1,2.34,2,2.21,2.21,0,0,1,.79,1.73c-.05.57-.53,1-1.44,1.15a10.73,10.73,0,0,0-1.19.32,6.26,6.26,0,0,0-1.22.58c-.46.26-1,.59-1.62,1l-2.38,1.44a39.76,39.76,0,0,1-5.65,2.92,30.2,30.2,0,0,1-5.58,1.83,17.36,17.36,0,0,1,2,4.72,19.22,19.22,0,0,1,.51,5.72q3.31-1.73,6.69-3.67c2.26-1.3,4.2-2.5,5.84-3.6a6.28,6.28,0,0,1,3.24-1c.28-1,.56-1.83.82-2.63s.52-1.52.76-2.19a10.8,10.8,0,0,1,.54-1.08c.17-.29.3-.45.4-.47s.13.11.1.4A6.56,6.56,0,0,1,99.87,20c-.15.52-.34,1.17-.58,1.94s-.48,1.63-.72,2.59a6.62,6.62,0,0,1,1.59.43c1,.53,1.33.92,1.11,1.16a1.79,1.79,0,0,1-1.33.36,8.81,8.81,0,0,0-1.94.21c-.39,1.3-.75,2.63-1.08,4S96.22,33.42,95.84,34.71ZM93.24,29a11.86,11.86,0,0,1,.11,1.19c0,.46,0,1,0,1.69a24.29,24.29,0,0,0,.21,4.07c.15.65.46.18.94-1.4.38-1.25.76-2.5,1.12-3.75s.73-2.44,1.11-3.6A29.7,29.7,0,0,0,93.24,29ZM131.33,55c.1.67,0,1.08-.14,1.22s-.84-.26-1.95-1.22c-.52-.43-1.24-1-2.16-1.69s-1.9-1.4-3-2.09-2.16-1.37-3.24-2-2-1.16-2.85-1.55q-2.24-1-3.81-1.65c-1.06-.43-2-.78-2.74-1.05a15.6,15.6,0,0,0-1.91-.54l-1.26-.21c-.14.38-.29.78-.43,1.19s-.31.82-.5,1.26A12,12,0,0,1,104.44,51a10.94,10.94,0,0,1-4.07,2.3c-.91.29-1.55.13-1.91-.47a3,3,0,0,1-.1-2.41,10.27,10.27,0,0,1,8-7.06q.8-2.58,1.44-5.58a45.31,45.31,0,0,0,.86-5.22,5.81,5.81,0,0,0,.15-1c-.2.19-.36.37-.51.54a2.76,2.76,0,0,1-.5.46c-1.3,1.49-2.17,2.21-2.63,2.16s-.83-.57-1.12-1.58a3,3,0,0,1-.21-1.37,1.26,1.26,0,0,1,.72-.93,2.44,2.44,0,0,0,1.08-1,18,18,0,0,0,1.29-2.55,28.73,28.73,0,0,0,1.3-3.93q.72-2.62,1.37-5.43c.43-1.87.8-3.63,1.11-5.26a30.3,30.3,0,0,0,.54-3.45,4.44,4.44,0,0,0-.39-2.13,4.18,4.18,0,0,0-1.15-1.58,1.63,1.63,0,0,0-1.55-.29c-.58.17-1.08.76-1.51,1.76-.34.68-.66,1-1,.87s-.34-.58-.1-1.44c.48-1.83,1.28-2.91,2.41-3.24a3.46,3.46,0,0,1,3.27.72,6.27,6.27,0,0,1,2.13,3,7.43,7.43,0,0,1,0,4.42c-.76,3-1.51,6-2.23,9.08a61.32,61.32,0,0,1-2.52,8.2c2-1.24,3.79-2.42,5.33-3.52s2.81-2,3.82-2.67a6.47,6.47,0,0,1,3.09-1,3.85,3.85,0,0,1,2.88.9,6.41,6.41,0,0,1,2.09,3.17,2.76,2.76,0,0,1-.43,2.52c-.39.43-.78.92-1.19,1.47s-.95,1.31-1.62,2.27a9.38,9.38,0,0,1-4.39,3.6,8.82,8.82,0,0,1-4.61.58c-1-.19-1.5-.46-1.48-.79s.59-.51,1.7-.51a8.13,8.13,0,0,0,4.1-1.33,12,12,0,0,0,3.89-3.92,7.16,7.16,0,0,0,1.4-3.46,2.15,2.15,0,0,0-2.77-2.16,8,8,0,0,0-2.59.94q-1,.57-2.85,1.83c-1.22.84-2.46,1.77-3.7,2.77a12.32,12.32,0,0,1-.08,1.23c0,.48-.12,1.13-.21,1.94q-.36,2.88-.9,5.4A46.53,46.53,0,0,1,108.72,43a9.08,9.08,0,0,1,1.73,0,14.73,14.73,0,0,1,2,.4,24.51,24.51,0,0,1,2.48.82c.94.36,2.05.83,3.35,1.41l1.8.83q1.16.54,2.52,1.29l2.81,1.59q1.44.83,2.73,1.62a9.48,9.48,0,0,1,2.41,2.08A4.26,4.26,0,0,1,131.33,55ZM101.88,50.7a11.45,11.45,0,0,0,1.55-1.37,11.27,11.27,0,0,0,1.69-2.66c.15-.39.3-.77.47-1.16a10.06,10.06,0,0,0,.47-1.29,5.9,5.9,0,0,0-2.7.86,10,10,0,0,0-2.27,2.16A7.41,7.41,0,0,0,100,49.33a2.16,2.16,0,0,0-.08,1.33.78.78,0,0,0,.72.51A2.13,2.13,0,0,0,101.88,50.7Z"
      stroke="#E4B4AB"
      stroke-width="1"
      fill="none"
    />
  </svg>
