<svg xmlns="http://www.w3.org/2000/svg" viewBox="-20 0 100 30">
  <path
    class="path"
    stroke="#FBC7B0"
    stroke-width="1"
    fill="none"
    d="M24.71,29.16a1.06,1.06,0,0,1-.59.94,2.15,2.15,0,0,1-1.17.37q-2.88,0-11.07-13a.38.38,0,0,0-.38.14c-.11.12-.65,1.06-1.64,2.83s-2.23,3.8-3.33,5.72a29,29,0,0,0-2.57,6,2.47,2.47,0,0,1-1.44.58Q1.57,32.76,0,31C.45,30.54,1.11,29.9,2,29a83.18,83.18,0,0,0,4.55-7.11,74.22,74.22,0,0,0,3.87-6.71q0-.68-4-6.37c-2.65-3.79-4-6-4-6.77,0-1,.52-1.48,1.57-1.48a6.8,6.8,0,0,1,2.39.76l.13.27A12.26,12.26,0,0,0,8.51,7.47q1.71,2.7,3.42,5.36,1.85-2.79,5.26-8.6A29.13,29.13,0,0,1,18.81,1a2.1,2.1,0,0,1,1.62-1,1,1,0,0,1,.83.45,1.82,1.82,0,0,1,.39,1L13.14,15.08a73.78,73.78,0,0,0,4.77,7.65q4.1,6,5.31,6a.69.69,0,0,0,.63-.4h.5A1.44,1.44,0,0,1,24.71,29.16Z"
  />
  <path
    class="path"
    stroke="#FBC7B0"
    stroke-width="1"
    fill="none"
    d="M46.12,14.27a41.59,41.59,0,0,1-.29,4.16,47.7,47.7,0,0,0-.29,4.79c0,.54.05,1.57.16,3.08s.15,2.61.15,3.27c0,1.32-.15,2.11-.44,2.38a1.42,1.42,0,0,1-.77.18,1.35,1.35,0,0,1-1.35-.85c-.12-.57-.24-1.13-.36-1.67a6.17,6.17,0,0,1-4.46,2.52,3.65,3.65,0,0,1-2.7-1,5.64,5.64,0,0,1-1.84-2.17,17.14,17.14,0,0,1-.63-5.74V13.37Q33,12,34.83,12q1.26,0,1.26,1.44c0,1.44-.05,3.31-.13,5.62-.09,2.94-.14,4.82-.14,5.63A7.06,7.06,0,0,0,36.54,28c.6,1.29,1.36,1.93,2.29,1.93,1.54,0,2.72-1,3.56-3.06a13.69,13.69,0,0,0,.9-5V15.89a3.06,3.06,0,0,0-.25-1,3.24,3.24,0,0,1-.25-1,3.13,3.13,0,0,1,.05-.5,2.1,2.1,0,0,1,1.26-.63C45.45,12.57,46.12,13.1,46.12,14.27Z"
  />
</svg>
