  <svg viewBox="-5 0 65 60" xmlns="http://www.w3.org/2000/svg">
    <path
      class="path"
      d="M12.17,22a8.44,8.44,0,0,0,1.05-2.09,3,3,0,0,0,.07-1.55A3,3,0,0,0,12.53,17,12.65,12.65,0,0,0,11,15.71c-2.74,1.44-4.7,2.44-5.9,3s-1.9.72-2.09.43,0-.62.36-1.15a8.43,8.43,0,0,1,2.37-2,41.34,41.34,0,0,0,3.5-2.66A36.15,36.15,0,0,0,12.75,10a9.51,9.51,0,0,0,1.94-2.59,2.37,2.37,0,0,0-.21-2A5.6,5.6,0,0,1,13.94,4c-.08-.38,0-.6.18-.65s.55.12,1.08.51a18.52,18.52,0,0,1,2.16,2,8.49,8.49,0,0,1,1.11,1.3,1.24,1.24,0,0,1,.25.9,1.25,1.25,0,0,1-.43.72l-.93.83q-.66.57-1.8,1.44a14.27,14.27,0,0,0-2,1.8,8.24,8.24,0,0,0-.94,1.08.87.87,0,0,0-.1.86,2.67,2.67,0,0,0,.9,1q.72.54,2,1.41c.87.57,1.32,1.15,1.37,1.72a1.88,1.88,0,0,1-.72,1.59,16.82,16.82,0,0,0-2.27,2.48,35.3,35.3,0,0,0-2.34,3.64c-.38.67-.75,1.31-1.11,1.91s-.74,1.16-1.12,1.69q2.37,1.44,2.09,5.25c-.1,1-.18,2.43-.25,4.25s-.12,3.76-.15,5.8,0,4.07,0,6.08.14,3.72.29,5.11c.09,1.06,0,1.66-.4,1.8s-.73-.26-1.12-1.22a17.86,17.86,0,0,1-.93-5c0-1,0-2.81.14-5.54s.34-6.34.58-10.8a12.52,12.52,0,0,0-.11-2.7,4,4,0,0,0-.9-1.84Q6.78,34,5.15,36.23c-1.08,1.48-2.19,3-3.35,4.53a5.6,5.6,0,0,1-1.15,1.3c-.24.14-.43-.12-.57-.79A2.67,2.67,0,0,1,.26,39.5,9.77,9.77,0,0,1,2,37a75.87,75.87,0,0,0,4.64-6.34Q9.29,26.64,12.17,22ZM33,1a1,1,0,0,1-.54-.51.32.32,0,0,1,.18-.43,1.63,1.63,0,0,1,.94,0,7.1,7.1,0,0,1,1.8.68c1.39.67,2.18,1.28,2.37,1.84a1.88,1.88,0,0,1-.57,1.83c-.39.39-.72.73-1,1a4.38,4.38,0,0,0-.79,1.4c-.24.53-.47,1-.69,1.55s-.44,1-.68,1.47a10.38,10.38,0,0,1,2.16.65,21.44,21.44,0,0,1,4.39,3.17q2.31,2.09,4.68,4.61,1.8,1.93,3.06,3.2a25.6,25.6,0,0,0,2.23,2,14.07,14.07,0,0,0,1.77,1.19,9.55,9.55,0,0,0,1.72.72c1,.28,1.82.55,2.56.79s1.44.48,2.09.72,1.27.5,1.87.79,1.24.6,1.91.94c.91.48,1.38.93,1.4,1.36s-.59.56-1.83.36A38,38,0,0,1,55.48,29a12.25,12.25,0,0,1-4.21-2.16q-1.52-1.23-3.53-3.17t-3.89-4c-.62-.68-1.33-1.38-2.12-2.13s-1.59-1.44-2.38-2.09-1.52-1.22-2.19-1.72a11,11,0,0,0-1.59-1.05,9.88,9.88,0,0,0-1.26-.54,10.17,10.17,0,0,0-1.19-.32Q31.68,15,30.5,17.51c-.8,1.68-1.6,3.28-2.42,4.82s-1.69,3.1-2.62,4.68-2,3.36-3.21,5.33a20.79,20.79,0,0,1-1.58,2.34A7.45,7.45,0,0,1,17,37.2a27.38,27.38,0,0,1-2.91.75c-.58.1-.88,0-.9-.28s.32-.58,1-.87a12.54,12.54,0,0,0,3.53-2.12,13.55,13.55,0,0,0,2.59-3.13c1.06-1.88,2.05-3.63,3-5.26s1.81-3.24,2.63-4.82,1.62-3.17,2.41-4.76,1.59-3.24,2.41-5c-.19-.24,0-.65.58-1.23.38-.86.78-1.76,1.18-2.7s.83-1.91,1.26-2.91a4.37,4.37,0,0,0,.54-2.27C34.31,2.09,33.84,1.55,33,1ZM21.1,44.72c-.1-.38,0-.55.43-.5a1,1,0,0,1,.79.79,5,5,0,0,1,.15,1.87,12,12,0,0,1-.87,3.31c1.35-1.1,2.46-2,3.35-2.66s1.65-1.22,2.27-1.66c.86-.62,1.3-.79,1.3-.5s-.46.86-1.37,1.73a21.11,21.11,0,0,0-3.78,4.14,15.54,15.54,0,0,0-1.69,3.27c-.29.92-.6,1.4-.94,1.44s-.6-.38-.79-1.29q-.87-4.11-.15-5a3.64,3.64,0,0,0,.54-1c.17-.41.33-.84.47-1.3A6.7,6.7,0,0,0,21.1,46,5,5,0,0,0,21.1,44.72Zm5.69-17.78c-.58-.43-.75-.83-.51-1.19s.77-.42,1.59-.18a4.6,4.6,0,0,0,1.55,0,13.48,13.48,0,0,0,1.9-.4,18.46,18.46,0,0,0,2-.68c.65-.27,1.24-.52,1.77-.76a13.12,13.12,0,0,1,3.42-1.15,4.69,4.69,0,0,1,2.77.07c.67.34,1,.72,1.12,1.15a.82.82,0,0,1-.47.94,10.65,10.65,0,0,0-3.1,2.81c-.43.52-.9,1.05-1.4,1.58S36.34,30.3,35.72,31c0,.58.07,1.19.07,1.84s0,1.3.07,2l2.66-.8a16.51,16.51,0,0,1,2.24-.5,8.38,8.38,0,0,1,3,0,3.15,3.15,0,0,1,1.44.62c.24.24.15.48-.25.72a5.47,5.47,0,0,1-2.27.43q-1,.08-2.85.36c-1.22.19-2.53.45-3.92.79.1,2,.17,3.85.22,5.65s.12,3.06.21,3.78.09,1.62.11,2.7,0,2.16,0,3.24,0,2.1-.08,3.06A6.64,6.64,0,0,1,36,57c-.33,1-.66,1.45-1,1.48s-.85-.4-1.62-1.26a30.32,30.32,0,0,0-3.27-2.92q-2.05-1.62-4-3.06c-.62-.48-.85-.83-.68-1s.49-.21,1,0a28.16,28.16,0,0,1,5,3c1,.67,1.66,1,2,.86s.54-.82.68-2.16a19.91,19.91,0,0,0,.07-2.12V46.09c0-1.39,0-2.9,0-4.54S34,38.34,34,36.8c-1,.24-1.89.52-2.77.83s-1.65.59-2.27.83a7.61,7.61,0,0,1-3.1.75c-.81,0-1.2-.3-1.15-.82a2,2,0,0,1,.36-1.12,2.45,2.45,0,0,1,1.3-.54,7.77,7.77,0,0,0,1.94-.86A17,17,0,0,0,30,34.71c.67-.62,1.33-1.24,2-1.87s1.28-1.27,1.9-1.94c0-.82-.08-1.49-.1-2a6.85,6.85,0,0,0-.11-1.08,4.8,4.8,0,0,1-.22-1.44,2.34,2.34,0,0,1-.47.25l-.54.26C30.2,27.92,28.32,28,26.79,26.94Zm3.89,9.29a15.9,15.9,0,0,0,1.62-.4c.55-.17,1.11-.32,1.69-.47a7.65,7.65,0,0,1,0-1.26,6.71,6.71,0,0,0,0-1.19L32.33,34.5C31.8,35,31.25,35.6,30.68,36.23ZM38.6,24.78a13.87,13.87,0,0,0-1.62.36l-1.55.43a2.47,2.47,0,0,1,.25.94c0,.33,0,.67,0,1v1.23A32.23,32.23,0,0,0,38.6,24.78Zm4.1,19.8c-1.06-.39-1.39-.58-1-.58s1.06,0,2,.15a4.83,4.83,0,0,1,1.19.36c.45.19.91.4,1.36.64a8.74,8.74,0,0,1,1.26.8,3.74,3.74,0,0,1,.8.72,8.68,8.68,0,0,1,1.54,2.66,12,12,0,0,1,.54,2.59c.2,1.87-.2,2.82-1.18,2.85s-2.7-1.17-5.15-3.57q-1-1-.87-1.26c.1-.17.48,0,1.16.47,2,1.39,3.13,2,3.49,1.87s.25-1.22-.33-3.24a5.1,5.1,0,0,0-2-2.81A16.26,16.26,0,0,0,42.7,44.58Z"
      stroke="#FBC7B0"
      stroke-width="1"
      fill="none"
    />
  </svg>
