<svg xmlns:xlink="http://www.w3.org/1999/xlink" xmlns="http://www.w3.org/2000/svg" stroke-width="0.501" stroke-linejoin="bevel" fill-rule="evenodd" version="1.1" overflow="visible" viewBox="0 0 75 93.75" x="0px" y="0px"><g fill="none" stroke="black" font-family="Times New Roman" font-size="16" transform="scale(1 -1)">
  <g transform="translate(0 -75)">
  <g><path d="M 44.352,10.251 C 43.845,10.601 43.506,11.05 43.256,11.53 L 42.846,12.613 L 42.499,12.585 C 41.864,12.553 41.493,12.581 40.854,12.485 C 30.588,10.94 18.507,11.616 11.171,17.638 L 9.811,18.877 L 9.77,18.914 L 7.921,20.633 C 3.768,25.029 1.433,31.407 1.502,37.55 C 1.629,48.966 10.837,55.87 18.041,59.179 C 23.274,61.584 29.166,62.479 34.852,62.801 C 40.145,63.101 45.4,62.508 50.66,61.242 C 58.421,59.374 66.79,55.051 70.895,48.049 C 74.155,42.49 74.073,33.524 72.185,28.846 C 70.134,23.768 67.247,19.122 63.147,15.692 C 59.466,12.615 54.574,10.47 50.037,9.779 C 48.524,9.549 45.809,9.243 44.352,10.251 Z M 49.884,10.79 C 54.239,11.453 58.957,13.522 62.49,16.477 C 66.424,19.767 69.227,24.253 71.236,29.229 C 73.024,33.657 73.09,42.285 70.012,47.532 C 66.107,54.192 58.052,58.411 50.421,60.247 C 45.241,61.495 40.088,62.074 34.909,61.78 C 29.277,61.46 23.533,60.577 18.468,58.25 C 11.364,54.987 2.646,48.337 2.525,37.539 C 2.449,30.789 5.401,23.775 10.456,19.672 L 10.497,19.634 C 17.244,12.811 29.803,11.857 40.701,13.496 C 41.296,13.585 42.038,13.584 42.714,13.627 C 42.846,14.952 43.273,15.911 43.955,16.562 C 44.702,17.274 45.678,17.541 46.672,17.603 C 47.823,17.674 49.1,17.471 50.267,17.277 C 51.168,19.42 49.793,21.226 46.907,20.425 C 44.983,19.891 40.711,18.806 38.564,18.763 C 35.47,18.699 31.641,18.992 28.712,19.446 C 25.356,19.965 19.067,21.901 16.375,24.203 C 12.119,27.84 10.518,31.462 9.631,36.094 C 9.578,36.372 9.76,36.64 10.037,36.693 C 10.315,36.746 10.583,36.564 10.636,36.287 C 11.489,31.833 12.994,28.437 17.04,24.98 C 19.51,22.868 25.563,20.968 28.869,20.457 C 31.746,20.011 35.515,19.724 38.543,19.786 C 39.308,19.8 40.389,19.963 41.542,20.189 C 41.581,21.843 41.054,22.723 40.132,23.205 C 39.042,23.775 37.275,23.87 34.742,23.599 C 33.413,23.456 31.05,23.678 28.845,24.06 C 26.673,24.436 24.471,24.996 23.531,25.614 C 23.339,25.741 23.255,25.981 23.326,26.2 C 23.637,27.152 24.43,27.574 24.412,28.643 C 24.381,30.5 24.016,30.846 23.629,32.019 L 23.546,32.297 L 23.482,32.327 C 23.337,32.433 23.234,32.596 23.188,32.79 C 23.164,32.893 23.156,32.999 23.156,33.099 C 23.157,33.382 23.387,33.61 23.669,33.609 C 23.881,33.608 24.062,33.478 24.139,33.294 L 24.164,33.17 L 24.237,33.139 C 24.34,33.072 24.418,32.969 24.452,32.843 C 24.865,31.286 25.396,30.971 25.435,28.66 C 25.453,27.595 24.921,26.922 24.567,26.384 L 24.489,26.258 L 24.856,26.103 C 25.823,25.731 27.357,25.355 29.02,25.068 C 30.41,24.826 31.822,24.658 32.969,24.6 C 30.4,27.875 29.252,32.937 31.637,36.937 C 32.93,39.103 34.931,41.279 36.556,42.933 L 37.205,43.588 L 37.526,43.986 C 38.329,45.045 39.447,46.901 40.762,48.693 C 42.095,50.51 43.863,52.592 45.491,52.357 L 45.572,52.338 C 47.784,51.634 47.557,48.206 48.234,45.649 L 48.486,44.918 L 49.428,44.923 C 52.206,44.735 55.388,43.442 57.964,42.895 L 58.994,42.725 L 59.053,42.775 C 59.612,43.285 60.539,44.367 61.598,45.473 C 62.62,46.541 64.015,47.94 65.054,47.916 C 66.514,47.881 67.113,46.496 67.402,45.298 C 67.7,44.061 67.785,42.497 67.916,41.629 C 68.209,39.522 68.166,37.381 68.258,35.344 C 68.271,35.062 68.053,34.822 67.771,34.81 C 67.489,34.797 67.249,35.015 67.237,35.297 C 67.139,37.428 67.188,39.443 66.903,41.482 C 66.747,42.524 66.697,43.859 66.407,45.057 C 66.109,46.294 65.667,46.878 65.029,46.893 C 64.608,46.903 63.578,46.062 62.337,44.766 C 61.238,43.618 60.052,42.224 59.45,41.774 C 59.347,41.697 59.218,41.661 59.09,41.675 C 55.607,42.043 51.442,44.187 48.169,43.898 C 47.952,43.879 47.746,43.999 47.657,44.198 C 46.549,46.663 46.907,50.328 45.556,51.222 L 45.306,51.342 L 44.994,51.325 C 44.127,51.131 42.917,49.901 41.587,48.088 C 40.212,46.213 38.8,43.86 37.952,42.889 C 36.235,41.173 33.92,38.766 32.516,36.412 C 30.311,32.716 31.485,27.849 34.107,24.83 C 34.169,24.758 34.207,24.674 34.223,24.586 C 34.371,24.592 34.508,24.602 34.633,24.616 C 37.165,24.888 39.216,24.838 40.606,24.112 C 41.928,23.42 42.553,22.181 42.566,20.401 C 44.106,20.736 45.646,21.136 46.634,21.41 C 50.25,22.415 52.333,19.949 51.299,17.11 C 51.698,17.049 52.071,17.002 52.408,16.982 C 53.406,16.921 54.804,17.337 55.283,17.874 C 55.471,18.085 55.795,18.103 56.005,17.915 C 56.216,17.727 56.234,17.403 56.046,17.193 C 55.276,16.33 53.513,15.89 52.347,15.961 C 51.832,15.991 51.265,16.074 50.676,16.171 C 50.553,16.137 50.419,16.149 50.299,16.214 C 50.283,16.222 50.268,16.231 50.254,16.24 C 49.076,16.437 47.831,16.649 46.735,16.582 C 45.869,16.528 45.166,16.303 44.661,15.821 C 44.164,15.348 43.785,14.556 43.706,13.206 C 44.004,12.258 44.274,11.549 44.935,11.092 C 45.992,10.36 48.247,10.542 49.884,10.79 Z M 54.295,25.499 C 53.484,25.637 52.706,25.941 52.116,26.439 C 51.513,26.946 51.115,27.649 51.093,28.531 C 51.086,28.813 51.31,29.048 51.592,29.055 C 51.874,29.062 52.109,28.838 52.116,28.556 C 52.13,27.999 52.371,27.561 52.775,27.221 C 53.189,26.871 53.782,26.624 54.467,26.507 C 55.854,26.271 57.426,26.599 58.318,27.404 C 58.527,27.593 58.851,27.577 59.04,27.367 C 59.229,27.158 59.213,26.834 59.003,26.645 C 57.819,25.575 55.901,25.225 54.295,25.499 Z M 42.465,26.994 C 42.369,27.359 42.508,27.738 43.001,28.072 C 44.401,29.023 48.186,27.358 47.013,26.042 C 45.848,24.679 42.794,25.755 42.465,26.994 Z M 36.915,30.035 C 35.591,30.528 34.488,31.612 34.466,33.183 C 34.462,33.466 34.688,33.698 34.97,33.702 C 35.253,33.706 35.485,33.48 35.489,33.198 C 35.503,32.165 36.232,31.381 37.272,30.994 C 38.328,30.601 39.599,30.663 40.504,31.235 C 40.743,31.386 41.059,31.314 41.21,31.076 C 41.361,30.837 41.289,30.521 41.051,30.37 C 39.831,29.6 38.217,29.551 36.915,30.035 Z" stroke="none" fill="#000000" stroke-width="1.023" stroke-linejoin="round" stroke-linecap="round" marker-start="none" marker-end="none" stroke-miterlimit="79.8403193612775"/>
</g>
</g>
</g>
</svg>
